<?xml version="1.0" standalone="no"?>
<!DOCTYPE svg PUBLIC "-//W3C//DTD SVG 1.1//EN" "http://www.w3.org/Graphics/SVG/1.1/DTD/svg11.dtd" >
<svg xmlns="http://www.w3.org/2000/svg" xmlns:xlink="http://www.w3.org/1999/xlink" version="1.1">
<metadata>
Created by FontForge 20191125 at Fri Jun 16 23:29:06 2017
 By convertio
Copyright \(c\) 2017 by 29Letters. All rights reserved.
</metadata>
<defs>
<font id="29LTBukra-SmBd" horiz-adv-x="0" >
  <font-face 
    font-family="29LT Bukra SmBd"
    font-weight="600"
    font-stretch="normal"
    units-per-em="1000"
    panose-1="0 0 7 0 0 0 0 0 0 0"
    ascent="800"
    descent="-200"
    x-height="574"
    cap-height="811"
    bbox="-858 -461 2049 1106"
    underline-thickness="50"
    underline-position="-100"
    stemh="105"
    stemv="157"
    unicode-range="U+000D-FEFC"
  />
<missing-glyph horiz-adv-x="500" 
 />
    <glyph glyph-name="T_T.liga" unicode="TT" horiz-adv-x="1319" 
d="M1294 811v-147h-258v-664h-157v664h-440v-664h-157v664h-257v147h1269z" />
    <glyph glyph-name="f_b.liga" unicode="fb" horiz-adv-x="1131" 
d="M769 586c192 0 317 -111 317 -303v-1c0 -189 -120 -305 -317 -305c-80 0 -174 19 -248 44v644h-167c-55 0 -74 -15 -74 -58v-33h211v-146h-211v-428h-158v428h-101v146h101v55c0 135 61 182 236 182h321v-231c32 4 62 6 90 6zM934 281v2c0 93 -57 160 -160 160
c-29 0 -60 -4 -95 -11v-306c31 -5 68 -6 94 -6c100 0 161 64 161 161z" />
    <glyph glyph-name="f_h.liga" unicode="fh" horiz-adv-x="1129" 
d="M787 591c142 0 266 -49 266 -222v-369h-158v338c0 73 -40 99 -115 99c-27 0 -64 -3 -101 -10v-427h-158v665h-167c-55 0 -74 -15 -74 -58v-33h211v-146h-211v-428h-158v428h-101v146h101v55c0 135 61 182 236 182h321v-227c43 4 81 7 108 7z" />
    <glyph glyph-name="f_k.liga" unicode="fk" horiz-adv-x="1071" 
d="M857 289l211 -289h-186l-203 288v-288h-158v665h-167c-55 0 -74 -15 -74 -58v-33h211v-146h-211v-428h-158v428h-101v146h101v55c0 135 61 182 236 182h321v-520l193 283h185z" />
    <glyph glyph-name="f_t.liga" unicode="ft" horiz-adv-x="920" 
d="M762 145h112v-145h-170c-145 0 -196 58 -196 184v247h-17v-3h-211v-428h-158v428h-101v146h101v35c0 135 61 182 236 182h74v-146h-78c-55 0 -74 -15 -74 -58v-13h228v204h156v-204h209v-143h-209v-200c0 -65 31 -86 98 -86z" />
    <glyph glyph-name="fi" unicode="fi" horiz-adv-x="697" 
d="M620 574v-574h-158v427h-181v-427h-158v427h-101v147h101v55c0 141 64 182 236 182h253v-146h-242c-72 0 -89 -12 -89 -69v-22h339z" />
    <glyph glyph-name="fl" unicode="fl" horiz-adv-x="756" 
d="M679 811v-811h-158v665h-167c-55 0 -74 -15 -74 -58v-33h211v-146h-211v-428h-158v428h-101v146h101v55c0 135 61 182 236 182h321z" />
    <glyph glyph-name="uni067E067E.init" unicode="&#xfb58;&#xfb59;" horiz-adv-x="987" 
d="M0 0v157h156v417h157v-417h455v417h157v-574h-925zM224 -173c0 -53 -41 -79 -87 -79c-45 0 -86 26 -86 79c0 47 37 77 86 77c50 0 87 -30 87 -77zM346 -96c49 0 86 -30 86 -77c0 -53 -40 -79 -86 -79s-87 26 -87 79c0 47 37 77 87 77zM741 -173c0 -53 -41 -79 -87 -79
c-45 0 -86 26 -86 79c0 47 37 77 86 77c50 0 87 -30 87 -77zM863 -96c49 0 86 -30 86 -77c0 -53 -40 -79 -86 -79s-87 26 -87 79c0 47 37 77 87 77zM242 -255c43 0 75 -27 75 -66c0 -46 -34 -69 -75 -69c-38 0 -75 23 -75 69c0 39 32 66 75 66zM759 -255c43 0 75 -27 75 -66
c0 -46 -34 -69 -75 -69c-38 0 -75 23 -75 69c0 39 32 66 75 66z" />
    <glyph glyph-name="uniFEFB" unicode="&#xfedf;&#xfe8e;" horiz-adv-x="695" arabic-form="isolated" 
d="M54 0l-31 157h291c93 0 146 46 146 130v598h157v-586c0 -199 -105 -299 -321 -299h-242zM139 219v509h156v-509h-156z" />
    <glyph glyph-name="uniFEFC" unicode="&#xfee0;&#xfe8e;" horiz-adv-x="740" arabic-form="final" 
d="M617 306c0 -103 48 -149 143 -149v-157c-96 0 -172 36 -202 97c-53 -65 -139 -97 -262 -97h-242l-31 157h291c93 0 146 46 146 130v598h157v-579zM295 728v-509h-156v509h156z" />
    <glyph glyph-name="uniFEF7" unicode="&#xfedf;&#xfe84;" horiz-adv-x="695" arabic-form="isolated" 
d="M129 796v73c0 71 48 108 117 108h35v-67h-39c-16 0 -27 -11 -27 -28v-10h92v-76h-178zM54 0l-31 157h291c93 0 146 46 146 130v598h157v-586c0 -199 -105 -299 -321 -299h-242zM139 219v509h156v-509h-156z" />
    <glyph glyph-name="uniFEF8" unicode="&#xfee0;&#xfe84;" horiz-adv-x="740" arabic-form="final" 
d="M307 872v-76h-178v73c0 71 48 108 117 108h35v-67h-39c-16 0 -27 -11 -27 -28v-10h92zM617 306c0 -103 48 -149 143 -149v-157c-96 0 -172 36 -202 97c-53 -65 -139 -97 -262 -97h-242l-31 157h291c93 0 146 46 146 130v598h157v-579zM295 219h-156v509h156v-509z" />
    <glyph glyph-name="uniFEF9" unicode="&#xfedf;&#xfe88;" horiz-adv-x="695" arabic-form="isolated" 
d="M54 0l-31 157h291c93 0 146 46 146 130v598h157v-586c0 -199 -105 -299 -321 -299h-242zM139 219v509h156v-509h-156zM140 -242v73c0 72 48 109 117 109h44v-68h-48c-16 0 -27 -11 -27 -27v-10h101v-77h-187z" />
    <glyph glyph-name="uniFEFA" unicode="&#xfee0;&#xfe88;" horiz-adv-x="740" arabic-form="final" 
d="M617 306c0 -103 48 -149 143 -149v-157c-96 0 -172 36 -202 97c-53 -65 -139 -97 -262 -97h-242l-31 157h291c93 0 146 46 146 130v598h157v-579zM295 728v-509h-156v509h156zM226 -155v-10h101v-77h-187v73c0 72 48 109 117 109h44v-68h-48c-16 0 -27 -11 -27 -27z" />
    <glyph glyph-name="uniFEF5" unicode="&#xfedf;&#xfe82;" horiz-adv-x="695" arabic-form="isolated" 
d="M54 0l-31 157h291c93 0 146 46 146 130v598h157v-586c0 -199 -105 -299 -321 -299h-242zM118 770v85h200v-85h-200zM139 219v509h156v-509h-156z" />
    <glyph glyph-name="uniFEF6" unicode="&#xfee0;&#xfe82;" horiz-adv-x="740" arabic-form="final" 
d="M617 306c0 -103 48 -149 143 -149v-157c-96 0 -172 36 -202 97c-53 -65 -139 -97 -262 -97h-242l-31 157h291c93 0 146 46 146 130v598h157v-579zM318 855v-85h-200v85h200zM295 219h-156v509h156v-509z" />
    <glyph glyph-name="uni06440671" unicode="&#xfedf;&#xfb51;" horiz-adv-x="695" 
d="M95 770v75c0 73 42 111 122 111h1c80 0 122 -38 122 -111v-75h-245zM54 0l-31 157h291c93 0 146 46 146 130v598h157v-586c0 -199 -105 -299 -321 -299h-242zM185 845h65v7c0 22 -11 33 -32 33h-1c-21 0 -32 -11 -32 -33v-7zM139 219v509h156v-509h-156z" />
    <glyph glyph-name="uni06440671.fina" unicode="&#xfee0;&#xfb51;" horiz-adv-x="740" 
d="M340 845v-75h-245v75c0 73 42 111 122 111h1c80 0 122 -38 122 -111zM617 306c0 -103 48 -149 143 -149v-157c-96 0 -172 36 -202 97c-53 -65 -139 -97 -262 -97h-242l-31 157h291c93 0 146 46 146 130v598h157v-579zM250 845v7c0 22 -11 33 -32 33h-1
c-21 0 -32 -11 -32 -33v-7h65zM295 219h-156v509h156v-509z" />
    <glyph glyph-name="uniFC5A.init" unicode="&#xfef3;&#xfef4;" horiz-adv-x="987" 
d="M0 0v157h156v417h157v-417h455v417h157v-574h-925zM133 -91c51 0 90 -32 90 -81c0 -54 -43 -81 -90 -81c-48 0 -90 27 -90 81c0 49 39 81 90 81zM348 -91c51 0 90 -32 90 -81c0 -54 -43 -81 -90 -81c-48 0 -90 27 -90 81c0 49 39 81 90 81zM650 -91c51 0 90 -32 90 -81
c0 -54 -43 -81 -90 -81c-48 0 -90 27 -90 81c0 49 39 81 90 81zM865 -91c51 0 90 -32 90 -81c0 -54 -43 -81 -90 -81c-48 0 -90 27 -90 81c0 49 39 81 90 81z" />
    <glyph glyph-name="uniFE8E" unicode="&#x627;" horiz-adv-x="380" arabic-form="final" 
d="M235 157h165v-157h-322v811h157v-654z" />
    <glyph glyph-name="uniFE84" unicode="&#x623;" horiz-adv-x="380" arabic-form="final" 
d="M246 836v-76h-178v73c0 71 48 108 117 108h35v-67h-39c-16 0 -27 -11 -27 -28v-10h92zM235 157h165v-157h-322v692h157v-535z" />
    <glyph glyph-name="uniFE88" unicode="&#x625;" horiz-adv-x="380" arabic-form="final" 
d="M235 157h165v-157h-322v811h157v-654zM186 -155v-10h101v-77h-187v73c0 72 48 109 117 109h44v-68h-48c-16 0 -27 -11 -27 -27z" />
    <glyph glyph-name="uniFE82" unicode="&#x622;" horiz-adv-x="380" arabic-form="final" 
d="M257 938v-85h-200v85h200zM235 157h165v-157h-322v811h157v-654z" />
    <glyph glyph-name="uniFB51" unicode="&#x671;" horiz-adv-x="380" arabic-form="final" 
d="M279 809v-75h-245v75c0 73 42 111 122 111h1c80 0 122 -38 122 -111zM189 809v7c0 22 -11 33 -32 33h-1c-21 0 -32 -11 -32 -33v-7h65zM235 157h165v-157h-322v692h157v-535z" />
    <glyph glyph-name="uni066E.init" unicode="&#x66e;" horiz-adv-x="313" 
d="M0 0v157h93v417h157v-574h-250z" />
    <glyph glyph-name="uni066E.medi" unicode="&#x66e;" horiz-adv-x="343" 
d="M250 157h113v-157h-363v157h93v417h157v-417z" />
    <glyph glyph-name="uni066E.fina" unicode="&#x66e;" horiz-adv-x="891" 
d="M798 157h113v-157h-544c-220 0 -321 111 -321 315v179h157v-163c0 -122 75 -174 198 -174h240v417h157v-417z" />
    <glyph glyph-name="uniFE90" unicode="&#x628;" horiz-adv-x="891" arabic-form="final" 
d="M798 157h113v-157h-544c-220 0 -321 111 -321 315v179h157v-163c0 -122 75 -174 198 -174h240v417h157v-417zM468 -91c51 0 91 -32 91 -81c0 -55 -43 -82 -91 -82s-91 27 -91 82c0 49 40 81 91 81z" />
    <glyph glyph-name="uniFE92" unicode="&#x628;" horiz-adv-x="343" arabic-form="medial" 
d="M250 157h113v-157h-363v157h93v417h157v-417zM172 -91c51 0 91 -32 91 -81c0 -55 -43 -82 -91 -82s-91 27 -91 82c0 49 40 81 91 81z" />
    <glyph glyph-name="uniFE91" unicode="&#x628;" horiz-adv-x="313" arabic-form="initial" 
d="M0 0v157h93v417h157v-574h-250zM126 -254c-48 0 -91 27 -91 82c0 49 40 81 91 81s91 -32 91 -81c0 -55 -43 -82 -91 -82z" />
    <glyph glyph-name="uniFB57" unicode="&#x67e;" horiz-adv-x="891" arabic-form="final" 
d="M798 157h113v-157h-544c-220 0 -321 111 -321 315v179h157v-163c0 -122 75 -174 198 -174h240v417h157v-417zM451 -173c0 -53 -41 -79 -87 -79c-45 0 -86 26 -86 79c0 47 37 77 86 77c50 0 87 -30 87 -77zM573 -96c49 0 86 -30 86 -77c0 -53 -40 -79 -86 -79
s-87 26 -87 79c0 47 37 77 87 77zM469 -255c43 0 75 -27 75 -66c0 -46 -34 -69 -75 -69c-38 0 -75 23 -75 69c0 39 32 66 75 66z" />
    <glyph glyph-name="uniFB59" unicode="&#x67e;" horiz-adv-x="468" arabic-form="medial" 
d="M488 157v-157h-488v157h156v417h157v-417h175zM224 -173c0 -53 -41 -79 -87 -79c-45 0 -86 26 -86 79c0 47 37 77 86 77c50 0 87 -30 87 -77zM346 -96c49 0 86 -30 86 -77c0 -53 -40 -79 -86 -79s-87 26 -87 79c0 47 37 77 87 77zM242 -255c43 0 75 -27 75 -66
c0 -46 -34 -69 -75 -69c-38 0 -75 23 -75 69c0 39 32 66 75 66z" />
    <glyph glyph-name="uniFB58" unicode="&#x67e;" horiz-adv-x="416" arabic-form="initial" 
d="M0 0v157h197v417h157v-574h-354zM83 -252c-45 0 -86 26 -86 79c0 47 37 77 86 77c50 0 87 -30 87 -77c0 -53 -41 -79 -87 -79zM292 -252c-46 0 -87 26 -87 79c0 47 37 77 87 77c49 0 86 -30 86 -77c0 -53 -40 -79 -86 -79zM188 -390c-38 0 -75 23 -75 69
c0 39 32 66 75 66s75 -27 75 -66c0 -46 -34 -69 -75 -69z" />
    <glyph glyph-name="uniFE96" unicode="&#x62a;" horiz-adv-x="891" arabic-form="final" 
d="M332 638c-48 0 -90 27 -90 81c0 49 39 81 90 81s90 -32 90 -81c0 -54 -43 -81 -90 -81zM547 638c-48 0 -90 27 -90 81c0 49 39 81 90 81s90 -32 90 -81c0 -54 -43 -81 -90 -81zM798 157h113v-157h-544c-220 0 -321 111 -321 315v179h157v-163c0 -122 75 -174 198 -174
h240v417h157v-417z" />
    <glyph glyph-name="uniFE98" unicode="&#x62a;" horiz-adv-x="468" arabic-form="medial" 
d="M133 664c-48 0 -90 27 -90 81c0 49 39 81 90 81s90 -32 90 -81c0 -54 -43 -81 -90 -81zM348 664c-48 0 -90 27 -90 81c0 49 39 81 90 81s90 -32 90 -81c0 -54 -43 -81 -90 -81zM488 157v-157h-488v157h156v417h157v-417h175z" />
    <glyph glyph-name="uniFE97" unicode="&#x62a;" horiz-adv-x="504" arabic-form="initial" 
d="M172 664c-48 0 -90 27 -90 81c0 49 39 81 90 81s90 -32 90 -81c0 -54 -43 -81 -90 -81zM387 664c-48 0 -90 27 -90 81c0 49 39 81 90 81s90 -32 90 -81c0 -54 -43 -81 -90 -81zM0 0v157h197v417h157v-574h-354z" />
    <glyph glyph-name="uniFE9A" unicode="&#x62b;" horiz-adv-x="891" arabic-form="final" 
d="M440 795c-38 0 -75 22 -75 68c0 39 32 66 75 66s75 -27 75 -66c0 -46 -36 -68 -75 -68zM335 638c-45 0 -86 26 -86 79c0 47 37 77 86 77c50 0 87 -30 87 -77c0 -53 -41 -79 -87 -79zM457 717c0 47 37 77 87 77c49 0 86 -30 86 -77c0 -53 -40 -79 -86 -79s-87 26 -87 79z
M798 157h113v-157h-544c-220 0 -321 111 -321 315v179h157v-163c0 -122 75 -174 198 -174h240v417h157v-417z" />
    <glyph glyph-name="uniFE9C" unicode="&#x62b;" horiz-adv-x="468" arabic-form="medial" 
d="M241 821c-38 0 -75 22 -75 68c0 39 32 66 75 66s75 -27 75 -66c0 -46 -36 -68 -75 -68zM136 664c-45 0 -86 26 -86 79c0 47 37 77 86 77c50 0 87 -30 87 -77c0 -53 -41 -79 -87 -79zM258 743c0 47 37 77 87 77c49 0 86 -30 86 -77c0 -53 -40 -79 -86 -79s-87 26 -87 79z
M488 157v-157h-488v157h156v417h157v-417h175z" />
    <glyph glyph-name="uniFE9B" unicode="&#x62b;" horiz-adv-x="497" arabic-form="initial" 
d="M280 829c-38 0 -75 22 -75 68c0 39 32 66 75 66s75 -27 75 -66c0 -46 -36 -68 -75 -68zM175 672c-45 0 -86 26 -86 79c0 47 37 77 86 77c50 0 87 -30 87 -77c0 -53 -41 -79 -87 -79zM384 672c-46 0 -87 26 -87 79c0 47 37 77 87 77c49 0 86 -30 86 -77
c0 -53 -40 -79 -86 -79zM0 0v157h197v417h157v-574h-354z" />
    <glyph glyph-name="uniFB67" unicode="&#x679;" horiz-adv-x="891" arabic-form="final" 
d="M562 694v-75h-245v213h95v-35h43c64 0 107 -41 107 -103zM467 694v12c0 13 -8 21 -21 21h-34v-33h55zM798 157h113v-157h-544c-220 0 -321 111 -321 315v179h157v-163c0 -122 75 -174 198 -174h240v417h157v-417z" />
    <glyph glyph-name="uniFB69" unicode="&#x679;" horiz-adv-x="468" arabic-form="medial" 
d="M363 720v-75h-245v213h95v-35h43c64 0 107 -41 107 -103zM268 720v12c0 13 -8 21 -21 21h-34v-33h55zM488 157v-157h-488v157h156v417h157v-417h175z" />
    <glyph glyph-name="uniFB68" unicode="&#x679;" horiz-adv-x="417" arabic-form="initial" 
d="M170 640v213h95v-35h43c64 0 107 -41 107 -103v-75h-245zM265 715h55v12c0 13 -8 21 -21 21h-34v-33zM0 0v157h197v417h157v-574h-354z" />
    <glyph glyph-name="uniFE9E" unicode="&#x62c;" horiz-adv-x="687" arabic-form="final" 
d="M606 157h101v-157h-366c-62 0 -90 -20 -115 -85l-59 -146l-142 55l68 168c48 121 110 165 235 165h123c10 39 17 87 17 127c0 98 -60 158 -153 158c-56 0 -98 -13 -153 -48l-56 143c69 37 144 62 219 62c192 0 291 -123 291 -323c0 -39 -4 -79 -10 -119zM399 -104
c51 0 91 -32 91 -82c0 -55 -43 -82 -91 -82s-91 27 -91 82c0 50 40 82 91 82z" />
    <glyph glyph-name="uniFEA0" unicode="&#x62c;" horiz-adv-x="626" arabic-form="medial" 
d="M544 157h102v-157h-646v157h389c10 39 17 87 17 127c0 98 -60 158 -153 158c-56 0 -98 -13 -153 -48l-56 143c69 37 144 62 219 62c192 0 291 -123 291 -323c0 -39 -4 -79 -10 -119zM273 -91c51 0 91 -32 91 -81c0 -55 -43 -82 -91 -82s-91 27 -91 82c0 49 40 81 91 81z
" />
    <glyph glyph-name="uniFE9F" unicode="&#x62c;" horiz-adv-x="601" arabic-form="initial" 
d="M263 599c192 0 291 -123 291 -323c0 -96 -25 -206 -46 -276h-508v157h389c10 39 17 87 17 127c0 98 -60 158 -153 158c-56 0 -98 -13 -153 -48l-56 143c69 37 144 62 219 62zM273 -91c51 0 91 -32 91 -81c0 -55 -43 -82 -91 -82s-91 27 -91 82c0 49 40 81 91 81z" />
    <glyph glyph-name="uniFB7B" unicode="&#x686;" horiz-adv-x="781" arabic-form="final" 
d="M700 157h101v-157h-416c-84 0 -136 -28 -184 -96l-54 -71l-122 91l68 90c74 101 154 143 279 143h173c10 39 17 87 17 127c0 98 -60 158 -153 158c-56 0 -98 -13 -153 -48l-56 143c69 37 144 62 219 62c192 0 291 -123 291 -323c0 -39 -4 -79 -10 -119zM466 -181
c0 -53 -41 -79 -87 -79c-45 0 -86 26 -86 79c0 47 37 77 86 77c50 0 87 -30 87 -77zM588 -104c49 0 86 -30 86 -77c0 -53 -40 -79 -86 -79s-87 26 -87 79c0 47 37 77 87 77zM484 -263c43 0 75 -27 75 -66c0 -46 -34 -69 -75 -69c-38 0 -75 23 -75 69c0 39 32 66 75 66z" />
    <glyph glyph-name="uniFB7D" unicode="&#x686;" horiz-adv-x="626" arabic-form="medial" 
d="M544 157h102v-157h-646v157h389c10 39 17 87 17 127c0 98 -60 158 -153 158c-56 0 -98 -13 -153 -48l-56 143c69 37 144 62 219 62c192 0 291 -123 291 -323c0 -39 -4 -79 -10 -119zM256 -173c0 -53 -41 -79 -87 -79c-45 0 -86 26 -86 79c0 47 37 77 86 77
c50 0 87 -30 87 -77zM378 -96c49 0 86 -30 86 -77c0 -53 -40 -79 -86 -79s-87 26 -87 79c0 47 37 77 87 77zM274 -255c43 0 75 -27 75 -66c0 -46 -34 -69 -75 -69c-38 0 -75 23 -75 69c0 39 32 66 75 66z" />
    <glyph glyph-name="uniFB7C" unicode="&#x686;" horiz-adv-x="601" arabic-form="initial" 
d="M263 599c192 0 291 -123 291 -323c0 -96 -25 -206 -46 -276h-508v157h389c10 39 17 87 17 127c0 98 -60 158 -153 158c-56 0 -98 -13 -153 -48l-56 143c69 37 144 62 219 62zM256 -173c0 -53 -41 -79 -87 -79c-45 0 -86 26 -86 79c0 47 37 77 86 77c50 0 87 -30 87 -77z
M378 -96c49 0 86 -30 86 -77c0 -53 -40 -79 -86 -79s-87 26 -87 79c0 47 37 77 87 77zM274 -255c43 0 75 -27 75 -66c0 -46 -34 -69 -75 -69c-38 0 -75 23 -75 69c0 39 32 66 75 66z" />
    <glyph glyph-name="uniFEA2" unicode="&#x62d;" horiz-adv-x="687" arabic-form="final" 
d="M606 157h101v-157h-366c-62 0 -90 -20 -115 -85l-59 -146l-142 55l68 168c48 121 110 165 235 165h123c10 39 17 87 17 127c0 98 -60 158 -153 158c-56 0 -98 -13 -153 -48l-56 143c69 37 144 62 219 62c192 0 291 -123 291 -323c0 -39 -4 -79 -10 -119z" />
    <glyph glyph-name="uniFEA4" unicode="&#x62d;" horiz-adv-x="626" arabic-form="medial" 
d="M544 157h102v-157h-646v157h389c10 39 17 87 17 127c0 98 -60 158 -153 158c-56 0 -98 -13 -153 -48l-56 143c69 37 144 62 219 62c192 0 291 -123 291 -323c0 -39 -4 -79 -10 -119z" />
    <glyph glyph-name="uniFEA3" unicode="&#x62d;" horiz-adv-x="601" arabic-form="initial" 
d="M263 599c192 0 291 -123 291 -323c0 -96 -25 -206 -46 -276h-508v157h389c10 39 17 87 17 127c0 98 -60 158 -153 158c-56 0 -98 -13 -153 -48l-56 143c69 37 144 62 219 62z" />
    <glyph glyph-name="uniFEA6" unicode="&#x62e;" horiz-adv-x="687" arabic-form="final" 
d="M343 693c-48 0 -91 27 -91 82c0 49 40 81 91 81s91 -32 91 -81c0 -55 -43 -82 -91 -82zM606 157h101v-157h-366c-62 0 -90 -20 -115 -85l-59 -146l-142 55l68 168c48 121 110 165 235 165h123c10 39 17 87 17 127c0 98 -60 158 -153 158c-56 0 -98 -13 -153 -48l-56 143
c69 37 144 62 219 62c192 0 291 -123 291 -323c0 -39 -4 -79 -10 -119z" />
    <glyph glyph-name="uniFEA8" unicode="&#x62e;" horiz-adv-x="626" arabic-form="medial" 
d="M268 693c-48 0 -91 27 -91 82c0 49 40 81 91 81s91 -32 91 -81c0 -55 -43 -82 -91 -82zM544 157h102v-157h-646v157h389c10 39 17 87 17 127c0 98 -60 158 -153 158c-56 0 -98 -13 -153 -48l-56 143c69 37 144 62 219 62c192 0 291 -123 291 -323c0 -39 -4 -79 -10 -119z
" />
    <glyph glyph-name="uniFEA7" unicode="&#x62e;" horiz-adv-x="601" arabic-form="initial" 
d="M268 693c-48 0 -91 27 -91 82c0 49 40 81 91 81s91 -32 91 -81c0 -55 -43 -82 -91 -82zM263 599c192 0 291 -123 291 -323c0 -96 -25 -206 -46 -276h-508v157h389c10 39 17 87 17 127c0 98 -60 158 -153 158c-56 0 -98 -13 -153 -48l-56 143c69 37 144 62 219 62z" />
    <glyph glyph-name="uniFEAA" unicode="&#x62f;" horiz-adv-x="609" arabic-form="final" 
d="M516 157h113v-157h-606v157h345v134c0 84 -40 126 -121 126h-47v157h24c202 0 292 -102 292 -299v-118z" />
    <glyph glyph-name="uniFEAC" unicode="&#x630;" horiz-adv-x="609" arabic-form="final" 
d="M231 668c-48 0 -91 27 -91 82c0 49 40 81 91 81s91 -32 91 -81c0 -55 -43 -82 -91 -82zM516 157h113v-157h-606v157h345v134c0 84 -40 126 -121 126h-47v157h24c202 0 292 -102 292 -299v-118z" />
    <glyph glyph-name="uniFB89" unicode="&#x688;" horiz-adv-x="609" arabic-form="final" 
d="M353 720v-75h-245v213h95v-35h43c64 0 107 -41 107 -103zM258 720v12c0 13 -8 21 -21 21h-34v-33h55zM516 157h113v-157h-606v157h345v134c0 84 -40 126 -121 126h-47v157h24c202 0 292 -102 292 -299v-118z" />
    <glyph glyph-name="uniFEAE" unicode="&#x631;" horiz-adv-x="395" arabic-form="final" 
d="M415 157v-157h-109c-12 -171 -87 -220 -225 -220c-29 0 -58 3 -84 9l-16 136c34 -2 57 -3 84 -3c50 0 86 26 86 102v550h157v-417h107z" />
    <glyph glyph-name="uniFEB0" unicode="&#x632;" horiz-adv-x="395" arabic-form="final" 
d="M231 668c-48 0 -91 27 -91 82c0 49 40 81 91 81s91 -32 91 -81c0 -55 -43 -82 -91 -82zM415 157v-157h-109c-12 -171 -87 -220 -225 -220c-29 0 -58 3 -84 9l-16 136c34 -2 57 -3 84 -3c50 0 86 26 86 102v550h157v-417h107z" />
    <glyph glyph-name="uniFB8D" unicode="&#x691;" horiz-adv-x="395" arabic-form="final" 
d="M353 720v-75h-245v213h95v-35h43c64 0 107 -41 107 -103zM258 720v12c0 13 -8 21 -21 21h-34v-33h55zM415 157v-157h-109c-12 -171 -87 -220 -225 -220c-29 0 -58 3 -84 9l-16 136c34 -2 57 -3 84 -3c50 0 86 26 86 102v550h157v-417h107z" />
    <glyph glyph-name="uniFB8B" unicode="&#x698;" horiz-adv-x="395" arabic-form="final" 
d="M231 821c-38 0 -75 22 -75 68c0 39 32 66 75 66s75 -27 75 -66c0 -46 -36 -68 -75 -68zM126 664c-45 0 -86 26 -86 79c0 47 37 77 86 77c50 0 87 -30 87 -77c0 -53 -41 -79 -87 -79zM248 743c0 47 37 77 87 77c49 0 86 -30 86 -77c0 -53 -40 -79 -86 -79s-87 26 -87 79z
M308 574v-417h107v-157h-109c-12 -171 -87 -220 -225 -220c-29 0 -58 3 -84 9l-16 136c34 -2 57 -3 84 -3c50 0 86 26 86 102v550h157z" />
    <glyph glyph-name="uniFEB2" unicode="&#x633;" horiz-adv-x="1501" arabic-form="final" 
d="M1378 306c0 -103 48 -149 143 -149v-157c-89 0 -161 31 -195 84c-44 -63 -118 -94 -223 -94c-93 0 -169 37 -207 104c-44 -60 -117 -94 -212 -94h-62v-125h-255c-206 0 -321 112 -321 309v321h158v-302c0 -122 75 -171 188 -171h73v473h157v-348h62c65 0 146 29 146 134
v214h156v-236c0 -77 47 -122 117 -122c73 0 118 44 118 127v304h157v-272z" />
    <glyph glyph-name="uniFEB4" unicode="&#x633;" horiz-adv-x="1151" arabic-form="medial" 
d="M1028 306c0 -103 48 -149 143 -149v-157c-89 0 -161 31 -195 84c-44 -63 -118 -94 -223 -94c-93 0 -169 37 -207 104c-44 -60 -117 -94 -212 -94h-334v157h114v348h157v-348h63c65 0 146 29 146 134v214h156v-236c0 -77 47 -122 117 -122c73 0 118 44 118 127v304h157
v-272z" />
    <glyph glyph-name="uniFEB3" unicode="&#x633;" horiz-adv-x="1080" arabic-form="initial" 
d="M871 578h157v-287c0 -200 -86 -301 -275 -301c-93 0 -169 37 -207 104c-44 -60 -117 -94 -212 -94h-334v157h114v348h157v-348h63c65 0 146 29 146 134v214h156v-236c0 -77 47 -122 117 -122c73 0 118 44 118 127v304z" />
    <glyph glyph-name="uniFEB6" unicode="&#x634;" horiz-adv-x="1501" arabic-form="final" 
d="M910 752c-38 0 -75 22 -75 68c0 39 32 66 75 66s75 -27 75 -66c0 -46 -36 -68 -75 -68zM805 595c-45 0 -86 26 -86 79c0 47 37 77 86 77c50 0 87 -30 87 -77c0 -53 -41 -79 -87 -79zM927 674c0 47 37 77 87 77c49 0 86 -30 86 -77c0 -53 -40 -79 -86 -79s-87 26 -87 79z
M1378 306c0 -103 48 -149 143 -149v-157c-89 0 -161 31 -195 84c-44 -63 -118 -94 -223 -94c-93 0 -169 37 -207 104c-44 -60 -117 -94 -212 -94h-62v-125h-255c-206 0 -321 112 -321 309v321h158v-302c0 -122 75 -171 188 -171h73v473h157v-348h62c65 0 146 29 146 134v214
h156v-236c0 -77 47 -122 117 -122c73 0 118 44 118 127v304h157v-272z" />
    <glyph glyph-name="uniFEB8" unicode="&#x634;" horiz-adv-x="1151" arabic-form="medial" 
d="M556 752c-38 0 -75 22 -75 68c0 39 32 66 75 66s75 -27 75 -66c0 -46 -36 -68 -75 -68zM451 595c-45 0 -86 26 -86 79c0 47 37 77 86 77c50 0 87 -30 87 -77c0 -53 -41 -79 -87 -79zM573 674c0 47 37 77 87 77c49 0 86 -30 86 -77c0 -53 -40 -79 -86 -79s-87 26 -87 79z
M1028 306c0 -103 48 -149 143 -149v-157c-89 0 -161 31 -195 84c-44 -63 -118 -94 -223 -94c-93 0 -169 37 -207 104c-44 -60 -117 -94 -212 -94h-334v157h114v348h157v-348h63c65 0 146 29 146 134v214h156v-236c0 -77 47 -122 117 -122c73 0 118 44 118 127v304h157v-272z
" />
    <glyph glyph-name="uniFEB7" unicode="&#x634;" horiz-adv-x="1080" arabic-form="initial" 
d="M556 752c-38 0 -75 22 -75 68c0 39 32 66 75 66s75 -27 75 -66c0 -46 -36 -68 -75 -68zM451 595c-45 0 -86 26 -86 79c0 47 37 77 86 77c50 0 87 -30 87 -77c0 -53 -41 -79 -87 -79zM573 674c0 47 37 77 87 77c49 0 86 -30 86 -77c0 -53 -40 -79 -86 -79s-87 26 -87 79z
M871 578h157v-287c0 -200 -86 -301 -275 -301c-93 0 -169 37 -207 104c-44 -60 -117 -94 -212 -94h-334v157h114v348h157v-348h63c65 0 146 29 146 134v214h156v-236c0 -77 47 -122 117 -122c73 0 118 44 118 127v304z" />
    <glyph glyph-name="uniFEBA" unicode="&#x635;" horiz-adv-x="1247" arabic-form="final" 
d="M1154 157h113v-157h-645v-125h-255c-206 0 -321 112 -321 309v321h158v-302c0 -122 75 -171 188 -171h73v598h157v-56h214c204 -1 319 -114 318 -315v-102zM996 157l1 130c0 86 -57 130 -147 130h-228v-260h374z" />
    <glyph glyph-name="uniFEBC" unicode="&#x635;" horiz-adv-x="875" arabic-form="medial" 
d="M782 157h113v-157h-895v157h93v473h157v-56h214c204 -1 319 -114 318 -315v-102zM624 157l1 130c0 86 -57 130 -147 130h-228v-260h374z" />
    <glyph glyph-name="uniFEBB" unicode="&#x635;" horiz-adv-x="835" arabic-form="initial" 
d="M464 574c204 -1 319 -114 318 -315v-259h-782v157h93v473h157v-56h214zM624 157l1 130c0 86 -57 130 -147 130h-228v-260h374z" />
    <glyph glyph-name="uniFEBE" unicode="&#x636;" horiz-adv-x="1247" arabic-form="final" 
d="M837 668c-48 0 -91 27 -91 82c0 49 40 81 91 81s91 -32 91 -81c0 -55 -43 -82 -91 -82zM1154 157h113v-157h-645v-125h-255c-206 0 -321 112 -321 309v321h158v-302c0 -122 75 -171 188 -171h73v598h157v-56h214c204 -1 319 -114 318 -315v-102zM996 157l1 130
c0 86 -57 130 -147 130h-228v-260h374z" />
    <glyph glyph-name="uniFEC0" unicode="&#x636;" horiz-adv-x="875" arabic-form="medial" 
d="M454 668c-48 0 -91 27 -91 82c0 49 40 81 91 81s91 -32 91 -81c0 -55 -43 -82 -91 -82zM782 157h113v-157h-895v157h93v473h157v-56h214c204 -1 319 -114 318 -315v-102zM624 157l1 130c0 86 -57 130 -147 130h-228v-260h374z" />
    <glyph glyph-name="uniFEBF" unicode="&#x636;" horiz-adv-x="835" arabic-form="initial" 
d="M454 668c-48 0 -91 27 -91 82c0 49 40 81 91 81s91 -32 91 -81c0 -55 -43 -82 -91 -82zM464 574c204 -1 319 -114 318 -315v-259h-782v157h93v473h157v-56h214zM624 157l1 130c0 86 -57 130 -147 130h-228v-260h374z" />
    <glyph glyph-name="uniFEC2" unicode="&#x637;" horiz-adv-x="923" arabic-form="final" 
d="M830 157h113v-157h-921l30 157h89v654h157v-237h214c204 -1 319 -114 318 -315v-102zM672 157l1 130c0 86 -57 130 -147 130h-228v-260h374z" />
    <glyph glyph-name="uniFEC4" unicode="&#x637;" horiz-adv-x="881" arabic-form="medial" 
d="M788 157h113v-157h-901v157h99v659h157v-242h214c204 -1 319 -114 318 -315v-102zM630 157l1 130c0 86 -57 130 -147 130h-228v-260h374z" />
    <glyph glyph-name="uniFEC3" unicode="&#x637;" horiz-adv-x="841" arabic-form="initial" 
d="M470 574c204 -1 319 -114 318 -315v-259h-788v157h99v659h157v-242h214zM630 157l1 130c0 86 -57 130 -147 130h-228v-260h374z" />
    <glyph glyph-name="uniFEC6" unicode="&#x638;" horiz-adv-x="923" arabic-form="final" 
d="M532 668c-48 0 -91 27 -91 82c0 49 40 81 91 81s91 -32 91 -81c0 -55 -43 -82 -91 -82zM830 157h113v-157h-921l30 157h89v654h157v-237h214c204 -1 319 -114 318 -315v-102zM672 157l1 130c0 86 -57 130 -147 130h-228v-260h374z" />
    <glyph glyph-name="uniFEC8" unicode="&#x638;" horiz-adv-x="881" arabic-form="medial" 
d="M491 668c-48 0 -91 27 -91 82c0 49 40 81 91 81s91 -32 91 -81c0 -55 -43 -82 -91 -82zM788 157h113v-157h-901v157h99v659h157v-242h214c204 -1 319 -114 318 -315v-102zM630 157l1 130c0 86 -57 130 -147 130h-228v-260h374z" />
    <glyph glyph-name="uniFEC7" unicode="&#x638;" horiz-adv-x="841" arabic-form="initial" 
d="M491 668c-48 0 -91 27 -91 82c0 49 40 81 91 81s91 -32 91 -81c0 -55 -43 -82 -91 -82zM470 574c204 -1 319 -114 318 -315v-259h-788v157h99v659h157v-242h214zM630 157l1 130c0 86 -57 130 -147 130h-228v-260h374z" />
    <glyph glyph-name="uniFECA" unicode="&#x639;" horiz-adv-x="793" arabic-form="final" 
d="M813 157v-157h-475c-62 0 -90 -20 -115 -85l-59 -146l-142 55l68 168c34 87 76 134 143 154l-121 318c94 85 200 135 319 135c121 0 225 -50 321 -135l-113 -307h174zM487 157l91 227c-44 38 -96 58 -147 58c-49 0 -100 -20 -147 -57l91 -228h112z" />
    <glyph glyph-name="uniFECC" unicode="&#x639;" horiz-adv-x="721" arabic-form="medial" 
d="M741 157v-157h-741v157h157l-116 307c94 85 200 135 319 135c121 0 225 -50 321 -135l-113 -307h173zM416 157l91 227c-44 38 -96 58 -147 58c-49 0 -100 -20 -147 -57l91 -228h112z" />
    <glyph glyph-name="uniFECB" unicode="&#x639;" horiz-adv-x="625" arabic-form="initial" 
d="M268 157h310v-157h-578v157h102c-21 69 -31 123 -31 170c0 175 116 272 279 272c60 0 136 -20 212 -51l-52 -145c-54 25 -100 39 -149 39c-81 0 -141 -52 -141 -142c0 -46 17 -96 48 -143z" />
    <glyph glyph-name="uniFECE" unicode="&#x63a;" horiz-adv-x="793" arabic-form="final" 
d="M432 693c-48 0 -91 27 -91 82c0 49 40 81 91 81s91 -32 91 -81c0 -55 -43 -82 -91 -82zM813 157v-157h-475c-62 0 -90 -20 -115 -85l-59 -146l-142 55l68 168c34 87 76 134 143 154l-121 318c94 85 200 135 319 135c121 0 225 -50 321 -135l-113 -307h174zM487 157
l91 227c-44 38 -96 58 -147 58c-49 0 -100 -20 -147 -57l91 -228h112z" />
    <glyph glyph-name="uniFED0" unicode="&#x63a;" horiz-adv-x="721" arabic-form="medial" 
d="M361 693c-48 0 -91 27 -91 82c0 49 40 81 91 81s91 -32 91 -81c0 -55 -43 -82 -91 -82zM741 157v-157h-741v157h157l-116 307c94 85 200 135 319 135c121 0 225 -50 321 -135l-113 -307h173zM416 157l91 227c-44 38 -96 58 -147 58c-49 0 -100 -20 -147 -57l91 -228h112z
" />
    <glyph glyph-name="uniFECF" unicode="&#x63a;" horiz-adv-x="625" arabic-form="initial" 
d="M350 693c-48 0 -91 27 -91 82c0 49 40 81 91 81s91 -32 91 -81c0 -55 -43 -82 -91 -82zM268 157h310v-157h-578v157h102c-21 69 -31 123 -31 170c0 175 116 272 279 272c60 0 136 -20 212 -51l-52 -145c-54 25 -100 39 -149 39c-81 0 -141 -52 -141 -142
c0 -46 17 -96 48 -143z" />
    <glyph glyph-name="uniFED2" unicode="&#x641;" horiz-adv-x="1072" arabic-form="final" 
d="M769 668c-48 0 -91 27 -91 82c0 49 40 81 91 81s91 -32 91 -81c0 -55 -43 -82 -91 -82zM979 157h113v-157h-121h-2h-182h-420c-220 0 -321 111 -321 315v179h157v-163c0 -122 75 -174 198 -174h102c-18 37 -28 81 -28 128v1c0 173 132 288 333 288h171v-417zM773 157h49
v261h-49c-85 0 -151 -48 -151 -132v-1c0 -80 66 -128 151 -128z" />
    <glyph glyph-name="uniFED4" unicode="&#x641;" horiz-adv-x="679" arabic-form="medial" 
d="M419 668c-48 0 -91 27 -91 82c0 49 40 81 91 81s91 -32 91 -81c0 -55 -43 -82 -91 -82zM586 157h113v-157h-121h-2h-182h-394v157h110c-18 37 -28 81 -28 128v1c0 173 132 288 333 288h171v-417zM380 157h49v261h-49c-85 0 -151 -48 -151 -132v-1c0 -80 66 -128 151 -128
z" />
    <glyph glyph-name="uniFED3" unicode="&#x641;" horiz-adv-x="648" arabic-form="initial" 
d="M419 668c-48 0 -91 27 -91 82c0 49 40 81 91 81s91 -32 91 -81c0 -55 -43 -82 -91 -82zM415 574h171v-574h-8h-184h-394v157h110c-18 37 -28 81 -28 128v1c0 173 132 288 333 288zM380 157h49v261h-49c-85 0 -151 -48 -151 -132v-1c0 -80 66 -128 151 -128z" />
    <glyph glyph-name="uniFB6B" unicode="&#x6a4;" horiz-adv-x="1072" arabic-form="final" 
d="M769 821c-38 0 -75 22 -75 68c0 39 32 66 75 66s75 -27 75 -66c0 -46 -36 -68 -75 -68zM664 664c-45 0 -86 26 -86 79c0 47 37 77 86 77c50 0 87 -30 87 -77c0 -53 -41 -79 -87 -79zM786 743c0 47 37 77 87 77c49 0 86 -30 86 -77c0 -53 -40 -79 -86 -79s-87 26 -87 79z
M979 157h113v-157h-121h-2h-182h-420c-220 0 -321 111 -321 315v179h157v-163c0 -122 75 -174 198 -174h102c-18 37 -28 81 -28 128v1c0 173 132 288 333 288h171v-417zM773 157h49v261h-49c-85 0 -151 -48 -151 -132v-1c0 -80 66 -128 151 -128z" />
    <glyph glyph-name="uniFB6D" unicode="&#x6a4;" horiz-adv-x="679" arabic-form="medial" 
d="M419 821c-38 0 -75 22 -75 68c0 39 32 66 75 66s75 -27 75 -66c0 -46 -36 -68 -75 -68zM314 664c-45 0 -86 26 -86 79c0 47 37 77 86 77c50 0 87 -30 87 -77c0 -53 -41 -79 -87 -79zM436 743c0 47 37 77 87 77c49 0 86 -30 86 -77c0 -53 -40 -79 -86 -79s-87 26 -87 79z
M586 157h113v-157h-121h-2h-182h-394v157h110c-18 37 -28 81 -28 128v1c0 173 132 288 333 288h171v-417zM380 157h49v261h-49c-85 0 -151 -48 -151 -132v-1c0 -80 66 -128 151 -128z" />
    <glyph glyph-name="uniFB6C" unicode="&#x6a4;" horiz-adv-x="648" arabic-form="initial" 
d="M419 821c-38 0 -75 22 -75 68c0 39 32 66 75 66s75 -27 75 -66c0 -46 -36 -68 -75 -68zM314 664c-45 0 -86 26 -86 79c0 47 37 77 86 77c50 0 87 -30 87 -77c0 -53 -41 -79 -87 -79zM523 820c49 0 86 -30 86 -77c0 -53 -40 -79 -86 -79s-87 26 -87 79c0 47 37 77 87 77z
M82 286c0 173 132 288 333 288h171v-574h-8h-184h-394v157h110c-18 37 -28 81 -28 128v1zM429 157v261h-49c-85 0 -151 -48 -151 -132v-1c0 -80 66 -128 151 -128h49z" />
    <glyph glyph-name="uni06A1.init" unicode="&#x6a1;" horiz-adv-x="648" 
d="M415 574h171v-574h-8h-184h-394v157h110c-18 37 -28 81 -28 128v1c0 173 132 288 333 288zM380 157h49v261h-49c-85 0 -151 -48 -151 -132v-1c0 -80 66 -128 151 -128z" />
    <glyph glyph-name="uni06A1.medi" unicode="&#x6a1;" horiz-adv-x="679" 
d="M586 157h113v-157h-121h-2h-182h-394v157h110c-18 37 -28 81 -28 128v1c0 173 132 288 333 288h171v-417zM380 157h49v261h-49c-85 0 -151 -48 -151 -132v-1c0 -80 66 -128 151 -128z" />
    <glyph glyph-name="uni06A1.fina" unicode="&#x6a1;" horiz-adv-x="1072" 
d="M979 157h113v-157h-121h-2h-182h-420c-220 0 -321 111 -321 315v179h157v-163c0 -122 75 -174 198 -174h102c-18 37 -28 81 -28 128v1c0 173 132 288 333 288h171v-417zM773 157h49v261h-49c-85 0 -151 -48 -151 -132v-1c0 -80 66 -128 151 -128z" />
    <glyph glyph-name="uni066F.fina" unicode="&#x66f;" horiz-adv-x="921" 
d="M941 157v-157h-113v-220h-461c-216 0 -321 106 -321 315v204h157v-188c0 -126 81 -174 198 -174h270v89h-35c-186 0 -312 92 -312 259v1c0 173 132 288 333 288h171v-417h113zM622 157h49v261h-49c-85 0 -151 -48 -151 -132v-1c0 -80 66 -128 151 -128z" />
    <glyph glyph-name="uniFED6" unicode="&#x642;" horiz-adv-x="921" arabic-form="final" 
d="M519 664c-48 0 -90 27 -90 81c0 49 39 81 90 81s90 -32 90 -81c0 -54 -43 -81 -90 -81zM734 664c-48 0 -90 27 -90 81c0 49 39 81 90 81s90 -32 90 -81c0 -54 -43 -81 -90 -81zM941 157v-157h-113v-220h-461c-216 0 -321 106 -321 315v204h157v-188
c0 -126 81 -174 198 -174h270v89h-35c-186 0 -312 92 -312 259v1c0 173 132 288 333 288h171v-417h113zM622 157h49v261h-49c-85 0 -151 -48 -151 -132v-1c0 -80 66 -128 151 -128z" />
    <glyph glyph-name="uniFED8" unicode="&#x642;" horiz-adv-x="679" arabic-form="medial" 
d="M311 664c-48 0 -90 27 -90 81c0 49 39 81 90 81s90 -32 90 -81c0 -54 -43 -81 -90 -81zM526 664c-48 0 -90 27 -90 81c0 49 39 81 90 81s90 -32 90 -81c0 -54 -43 -81 -90 -81zM586 157h113v-157h-121h-2h-182h-394v157h110c-18 37 -28 81 -28 128v1
c0 173 132 288 333 288h171v-417zM380 157h49v261h-49c-85 0 -151 -48 -151 -132v-1c0 -80 66 -128 151 -128z" />
    <glyph glyph-name="uniFED7" unicode="&#x642;" horiz-adv-x="648" arabic-form="initial" 
d="M311 664c-48 0 -90 27 -90 81c0 49 39 81 90 81s90 -32 90 -81c0 -54 -43 -81 -90 -81zM526 826c51 0 90 -32 90 -81c0 -54 -43 -81 -90 -81c-48 0 -90 27 -90 81c0 49 39 81 90 81zM82 286c0 173 132 288 333 288h171v-574h-8h-184h-394v157h110c-18 37 -28 81 -28 128
v1zM429 157v261h-49c-85 0 -151 -48 -151 -132v-1c0 -80 66 -128 151 -128h49z" />
    <glyph glyph-name="uniFEDA" unicode="&#x643;" horiz-adv-x="889" arabic-form="final" 
d="M798 157h111v-157h-542c-220 0 -321 111 -321 315v179h157v-163c0 -122 75 -174 198 -174h240v654h157v-654zM553 608v-120h-234v130c0 72 47 120 118 120h81v-90h-71c-17 0 -28 -10 -28 -26v-14h134z" />
    <glyph glyph-name="uniFEDC" unicode="&#x643;" horiz-adv-x="743" arabic-form="medial" 
d="M650 157h113v-157h-763v157h492v104c0 76 -44 115 -114 115h-280c-25 35 -48 89 -50 156l147 279h191l-161 -278h134c193 0 291 -95 291 -299v-77z" />
    <glyph glyph-name="uniFEDB" unicode="&#x643;" horiz-adv-x="703" arabic-form="initial" 
d="M0 0v157h492v104c0 76 -44 115 -114 115h-280c-25 35 -48 89 -50 156l147 279h191l-161 -278h134c193 0 291 -95 291 -299v-234h-650z" />
    <glyph glyph-name="uniFB8F" unicode="&#x6a9;" horiz-adv-x="1012" arabic-form="final" 
d="M919 157h113v-157h-665c-220 0 -321 111 -321 315v179h157v-163c0 -122 75 -174 198 -174h359v104c0 76 -44 115 -114 115h-246c-25 35 -48 89 -49 156l146 280h192l-162 -279h100c193 0 292 -95 292 -299v-77z" />
    <glyph glyph-name="uniFB91" unicode="&#x6a9;" horiz-adv-x="743" arabic-form="medial" 
d="M650 157h113v-157h-763v157h492v104c0 76 -44 115 -114 115h-280c-25 35 -48 89 -50 156l147 279h191l-161 -278h134c193 0 291 -95 291 -299v-77z" />
    <glyph glyph-name="uniFB90" unicode="&#x6a9;" horiz-adv-x="703" arabic-form="initial" 
d="M0 0v157h492v104c0 76 -44 115 -114 115h-280c-25 35 -48 89 -50 156l147 279h191l-161 -278h134c193 0 291 -95 291 -299v-234h-650z" />
    <glyph glyph-name="uniFB93" unicode="&#x6af;" horiz-adv-x="1012" arabic-form="final" 
d="M919 157h113v-157h-665c-220 0 -321 111 -321 315v179h157v-163c0 -122 75 -174 198 -174h359v104c0 76 -44 115 -114 115h-246c-25 35 -48 89 -49 156l146 280h192l-162 -279h100c193 0 292 -95 292 -299v-77zM433 812l-157 -287l-127 -1l158 288h126z" />
    <glyph glyph-name="uniFB95" unicode="&#x6af;" horiz-adv-x="883" arabic-form="medial" 
d="M270 812l-157 -287l-127 -1l158 288h126zM790 157h113v-157h-903v157h632v104c0 76 -44 115 -114 115h-280c-25 35 -48 89 -50 156l147 279h191l-161 -278h134c193 0 291 -95 291 -299v-77z" />
    <glyph glyph-name="uniFB94" unicode="&#x6af;" horiz-adv-x="843" arabic-form="initial" 
d="M270 812l-157 -287l-127 -1l158 288h126zM499 533c193 0 291 -95 291 -299v-234h-790v157h632v104c0 76 -44 115 -114 115h-280c-25 35 -48 89 -50 156l147 279h191l-161 -278h134z" />
    <glyph glyph-name="uniFEDE" unicode="&#x644;" horiz-adv-x="715" arabic-form="final" 
d="M735 157v-157h-113v-125h-255c-206 0 -321 112 -321 309v321h158v-302c0 -122 75 -171 188 -171h73v779h157v-654h113z" />
    <glyph glyph-name="uniFEE0" unicode="&#x644;" horiz-adv-x="351" arabic-form="medial" 
d="M258 157h113v-157h-371v157h101v654h157v-654z" />
    <glyph glyph-name="uniFEDF" unicode="&#x644;" horiz-adv-x="380" arabic-form="initial" 
d="M145 811h157v-811h-310v157h153v654z" />
    <glyph glyph-name="uniFEE2" unicode="&#x645;" horiz-adv-x="936" arabic-form="final" 
d="M955 157v-157h-138c-51 -70 -132 -111 -233 -111h-1c-146 0 -251 84 -282 217c-69 -10 -98 -70 -98 -157v-169h-156v193c0 177 92 281 251 290c26 148 133 242 285 242h1c173 0 289 -125 289 -313v-1c0 -12 0 -23 -1 -34h83zM716 195v1c0 92 -52 153 -132 153h-1
c-81 0 -135 -61 -135 -153v-1c0 -90 54 -150 135 -150h1c80 0 132 60 132 150z" />
    <glyph glyph-name="uniFEE4" unicode="&#x645;" horiz-adv-x="730" arabic-form="medial" 
d="M749 157v-157h-151c-51 -70 -132 -111 -233 -111h-1c-102 0 -184 41 -234 111h-130v157h74c-1 11 -1 22 -1 34v1c0 188 116 313 291 313h1c173 0 289 -125 289 -313v-1c0 -12 0 -23 -1 -34h96zM497 195v1c0 92 -52 153 -132 153h-1c-81 0 -135 -61 -135 -153v-1
c0 -90 54 -150 135 -150h1c80 0 132 60 132 150z" />
    <glyph glyph-name="uniFEE3" unicode="&#x645;" horiz-adv-x="690" arabic-form="initial" 
d="M365 505c173 0 289 -125 289 -313v-1c0 -181 -116 -302 -289 -302h-1c-102 0 -184 41 -234 111h-130v157h74c-1 11 -1 22 -1 34v1c0 188 116 313 291 313h1zM497 195v1c0 92 -52 153 -132 153h-1c-81 0 -135 -61 -135 -153v-1c0 -90 54 -150 135 -150h1
c80 0 132 60 132 150z" />
    <glyph glyph-name="uniFEE6" unicode="&#x646;" horiz-adv-x="715" arabic-form="final" 
d="M337 599c-48 0 -91 27 -91 82c0 49 40 81 91 81s91 -32 91 -81c0 -55 -43 -82 -91 -82zM735 157v-157h-113v-125h-255c-206 0 -321 112 -321 309v321h158v-302c0 -122 75 -171 188 -171h73v473h157v-348h113z" />
    <glyph glyph-name="uniFEE8" unicode="&#x646;" horiz-adv-x="343" arabic-form="medial" 
d="M172 668c-48 0 -91 27 -91 82c0 49 40 81 91 81s91 -32 91 -81c0 -55 -43 -82 -91 -82zM250 157h113v-157h-363v157h93v417h157v-417z" />
    <glyph glyph-name="uniFEE7" unicode="&#x646;" horiz-adv-x="313" arabic-form="initial" 
d="M174 668c-48 0 -91 27 -91 82c0 49 40 81 91 81s91 -32 91 -81c0 -55 -43 -82 -91 -82zM0 0v157h93v417h157v-574h-250z" />
    <glyph glyph-name="uniFB9F" unicode="&#x6ba;" horiz-adv-x="715" arabic-form="final" 
d="M735 157v-157h-113v-125h-255c-206 0 -321 112 -321 309v321h158v-302c0 -122 75 -171 188 -171h73v473h157v-348h113z" />
    <glyph glyph-name="uniFEE9" unicode="&#x647;" horiz-adv-x="855" arabic-form="isolated" 
d="M419 690c231 0 421 -144 421 -415c0 -68 -11 -162 -32 -275h-786l30 157h109c-4 25 -5 50 -5 73c0 136 96 226 225 226c128 0 224 -88 224 -221c0 -24 -2 -52 -5 -78h75c5 44 7 68 7 106c0 182 -121 270 -288 270c-77 0 -148 -19 -221 -59l-55 141c98 48 211 75 301 75z
M312 212c0 -19 1 -38 3 -55h131c2 17 3 36 3 55c0 52 -28 87 -71 87c-40 0 -66 -35 -66 -87z" />
    <glyph glyph-name="uniFEEA" unicode="&#x647;" horiz-adv-x="645" arabic-form="final" 
d="M552 157h113v-157h-270h-35c-187 0 -312 114 -312 285v1c0 173 132 288 333 288h14v50h157v-467zM395 157v261h-49c-85 0 -151 -48 -151 -132v-1c0 -80 66 -128 151 -128h49z" />
    <glyph glyph-name="uniFEEC" unicode="&#x647;" horiz-adv-x="901" arabic-form="medial" 
d="M780 157h141v-157h-921v157h109c-4 25 -5 50 -5 73c0 136 96 226 225 226c128 0 224 -88 224 -221c0 -24 -2 -52 -5 -78h75c5 44 7 68 7 106c0 182 -121 270 -288 270c-77 0 -148 -19 -221 -59l-55 141c98 48 211 75 301 75c231 0 421 -144 421 -415
c0 -33 -3 -73 -8 -118zM260 212c0 -19 1 -38 3 -55h131c2 17 3 36 3 55c0 52 -28 87 -71 87c-40 0 -66 -35 -66 -87z" />
    <glyph glyph-name="uniFEEB" unicode="&#x647;" horiz-adv-x="834" arabic-form="initial" 
d="M367 690c231 0 421 -144 421 -415c0 -68 -11 -162 -32 -275h-756v157h109c-4 25 -5 50 -5 73c0 136 96 226 225 226c128 0 224 -88 224 -221c0 -24 -2 -52 -5 -78h75c5 44 7 68 7 106c0 182 -121 270 -288 270c-77 0 -148 -19 -221 -59l-55 141c98 48 211 75 301 75z
M260 212c0 -19 1 -38 3 -55h131c2 17 3 36 3 55c0 52 -28 87 -71 87c-40 0 -66 -35 -66 -87z" />
    <glyph glyph-name="uniFBA5" unicode="&#x6c0;" horiz-adv-x="645" arabic-form="final" 
d="M567 798v-120h-234v130c0 72 47 120 118 120h81v-90h-71c-17 0 -28 -10 -28 -26v-14h134zM552 157h113v-157h-270h-35c-187 0 -312 114 -312 285v1c0 173 132 288 333 288h14v50h157v-467zM395 157v261h-49c-85 0 -151 -48 -151 -132v-1c0 -80 66 -128 151 -128h49z" />
    <glyph glyph-name="uniFBA7" unicode="&#x6c1;" horiz-adv-x="624" arabic-form="final" 
d="M530 157h113v-157h-269v426h-56c-76 0 -111 -43 -111 -115v-171h-157v142c0 198 101 292 296 292h184v-417z" />
    <glyph glyph-name="uniFBA9" unicode="&#x6c1;" horiz-adv-x="901" arabic-form="medial" 
d="M357 -220c-136 0 -241 66 -254 205v15h-103v157h96v287h157v-453c0 -76 42 -113 104 -113h56v279h508v-157h-351v-220h-213zM748 -221l-117 1l53 175l165 -1z" />
    <glyph glyph-name="uniFBA8" unicode="&#x6c1;" horiz-adv-x="416" arabic-form="initial" 
d="M0 0v157h197v417h157v-574h-354zM202 -221l-116 1l52 175l166 -1z" />
    <glyph glyph-name="uni06C2.fina" unicode="&#x6c2;" horiz-adv-x="624" 
d="M453 758v-120h-234v130c0 72 47 120 118 120h81v-90h-71c-17 0 -28 -10 -28 -26v-14h134zM530 157h113v-157h-269v426h-56c-76 0 -111 -43 -111 -115v-171h-157v142c0 198 101 292 296 292h184v-417z" />
    <glyph glyph-name="uniFBAB" unicode="&#x6be;" horiz-adv-x="953" arabic-form="final" 
d="M832 157h141v-157h-951l30 157h109c-4 25 -5 50 -5 73c0 136 96 226 225 226c128 0 224 -88 224 -221c0 -24 -2 -52 -5 -78h75c5 44 7 68 7 106c0 182 -121 270 -288 270c-77 0 -148 -19 -221 -59l-55 141c98 48 211 75 301 75c231 0 421 -144 421 -415
c0 -33 -3 -73 -8 -118zM312 212c0 -19 1 -38 3 -55h131c2 17 3 36 3 55c0 52 -28 87 -71 87c-40 0 -66 -35 -66 -87z" />
    <glyph glyph-name="uniFBAD" unicode="&#x6be;" horiz-adv-x="901" arabic-form="medial" 
d="M780 157h141v-157h-921v157h109c-4 25 -5 50 -5 73c0 136 96 226 225 226c128 0 224 -88 224 -221c0 -24 -2 -52 -5 -78h75c5 44 7 68 7 106c0 182 -121 270 -288 270c-77 0 -148 -19 -221 -59l-55 141c98 48 211 75 301 75c231 0 421 -144 421 -415
c0 -33 -3 -73 -8 -118zM260 212c0 -19 1 -38 3 -55h131c2 17 3 36 3 55c0 52 -28 87 -71 87c-40 0 -66 -35 -66 -87z" />
    <glyph glyph-name="uniFBAC" unicode="&#x6be;" horiz-adv-x="834" arabic-form="initial" 
d="M367 690c231 0 421 -144 421 -415c0 -68 -11 -162 -32 -275h-756v157h109c-4 25 -5 50 -5 73c0 136 96 226 225 226c128 0 224 -88 224 -221c0 -24 -2 -52 -5 -78h75c5 44 7 68 7 106c0 182 -121 270 -288 270c-77 0 -148 -19 -221 -59l-55 141c98 48 211 75 301 75z
M260 212c0 -19 1 -38 3 -55h131c2 17 3 36 3 55c0 52 -28 87 -71 87c-40 0 -66 -35 -66 -87z" />
    <glyph glyph-name="uniFE94" unicode="&#x629;" horiz-adv-x="645" arabic-form="final" 
d="M253 695c-48 0 -90 27 -90 81c0 49 39 81 90 81s90 -32 90 -81c0 -54 -43 -81 -90 -81zM468 695c-48 0 -90 27 -90 81c0 49 39 81 90 81s90 -32 90 -81c0 -54 -43 -81 -90 -81zM552 157h113v-157h-270h-35c-187 0 -312 114 -312 285v1c0 173 132 288 333 288h14v50h157
v-467zM395 157v261h-49c-85 0 -151 -48 -151 -132v-1c0 -80 66 -128 151 -128h49z" />
    <glyph glyph-name="uni06C3.fina" unicode="&#x6c3;" horiz-adv-x="624" 
d="M228 665c-48 0 -90 27 -90 81c0 49 39 81 90 81s90 -32 90 -81c0 -54 -43 -81 -90 -81zM443 665c-48 0 -90 27 -90 81c0 49 39 81 90 81s90 -32 90 -81c0 -54 -43 -81 -90 -81zM530 157h113v-157h-269v426h-56c-76 0 -111 -43 -111 -115v-171h-157v142
c0 198 101 292 296 292h184v-417z" />
    <glyph glyph-name="uniFEEE" unicode="&#x648;" horiz-adv-x="645" arabic-form="final" 
d="M665 157v-157h-115c-15 -168 -100 -220 -261 -220c-48 0 -94 4 -136 13l-34 167c53 -15 109 -23 163 -23c58 0 101 13 111 63h-33c-187 0 -312 114 -312 285v1c0 173 132 288 333 288h171v-417h113zM346 157h49v261h-49c-85 0 -151 -48 -151 -132v-1
c0 -80 66 -128 151 -128z" />
    <glyph glyph-name="uniFE86" unicode="&#x624;" horiz-adv-x="645" arabic-form="final" 
d="M509 757v-120h-234v130c0 72 47 120 118 120h81v-90h-71c-17 0 -28 -10 -28 -26v-14h134zM665 157v-157h-115c-15 -168 -100 -220 -261 -220c-48 0 -94 4 -136 13l-34 167c53 -15 109 -23 163 -23c58 0 101 13 111 63h-33c-187 0 -312 114 -312 285v1
c0 173 132 288 333 288h171v-417h113zM346 157h49v261h-49c-85 0 -151 -48 -151 -132v-1c0 -80 66 -128 151 -128z" />
    <glyph glyph-name="uniFEF0" unicode="&#x649;" horiz-adv-x="1102" arabic-form="final" 
d="M1009 157h113v-157h-270v426h-62c-75 0 -110 -43 -110 -115v-436h-313c-216 0 -321 106 -321 315v204h157v-188c0 -126 81 -174 198 -174h122v250c0 198 100 292 296 292h190v-417z" />
    <glyph glyph-name="uniFEF2" unicode="&#x64a;" horiz-adv-x="1102" arabic-form="final" 
d="M1009 157h113v-157h-270v426h-62c-75 0 -110 -43 -110 -115v-436h-313c-216 0 -321 106 -321 315v204h157v-188c0 -126 81 -174 198 -174h122v250c0 198 100 292 296 292h190v-417zM350 -216c51 0 90 -32 90 -81c0 -54 -43 -81 -90 -81c-48 0 -90 27 -90 81
c0 49 39 81 90 81zM565 -216c51 0 90 -32 90 -81c0 -54 -43 -81 -90 -81c-48 0 -90 27 -90 81c0 49 39 81 90 81z" />
    <glyph glyph-name="uniFEF4" unicode="&#x64a;" horiz-adv-x="468" arabic-form="medial" 
d="M488 157v-157h-488v157h156v417h157v-417h175zM133 -91c51 0 90 -32 90 -81c0 -54 -43 -81 -90 -81c-48 0 -90 27 -90 81c0 49 39 81 90 81zM348 -91c51 0 90 -32 90 -81c0 -54 -43 -81 -90 -81c-48 0 -90 27 -90 81c0 49 39 81 90 81z" />
    <glyph glyph-name="uniFEF3" unicode="&#x64a;" horiz-adv-x="416" arabic-form="initial" 
d="M0 0v157h197v417h157v-574h-354zM79 -253c-48 0 -90 27 -90 81c0 49 39 81 90 81s90 -32 90 -81c0 -54 -43 -81 -90 -81zM294 -253c-48 0 -90 27 -90 81c0 49 39 81 90 81s90 -32 90 -81c0 -54 -43 -81 -90 -81z" />
    <glyph glyph-name="uniFE8A" unicode="&#x626;" horiz-adv-x="1102" arabic-form="final" 
d="M940 761v-120h-234v130c0 72 47 120 118 120h81v-90h-71c-17 0 -28 -10 -28 -26v-14h134zM1009 157h113v-157h-270v426h-62c-75 0 -110 -43 -110 -115v-436h-313c-216 0 -321 106 -321 315v204h157v-188c0 -126 81 -174 198 -174h122v250c0 198 100 292 296 292h190v-417
z" />
    <glyph glyph-name="uniFE8C" unicode="&#x626;" horiz-adv-x="343" arabic-form="medial" 
d="M261 718v-76h-178v73c0 71 48 108 117 108h35v-67h-39c-16 0 -27 -11 -27 -28v-10h92zM250 157h113v-157h-363v157h93v417h157v-417z" />
    <glyph glyph-name="uniFE8B" unicode="&#x626;" horiz-adv-x="313" arabic-form="initial" 
d="M77 642v73c0 71 48 108 117 108h35v-67h-39c-16 0 -27 -11 -27 -28v-10h92v-76h-178zM0 0v157h93v417h157v-574h-250z" />
    <glyph glyph-name="uniFBFD" unicode="&#x6cc;" horiz-adv-x="1102" arabic-form="final" 
d="M1009 157h113v-157h-270v426h-62c-75 0 -110 -43 -110 -115v-436h-313c-216 0 -321 106 -321 315v204h157v-188c0 -126 81 -174 198 -174h122v250c0 198 100 292 296 292h190v-417z" />
    <glyph glyph-name="uniFBFF" unicode="&#x6cc;" horiz-adv-x="468" arabic-form="medial" 
d="M488 157v-157h-488v157h156v417h157v-417h175zM133 -91c51 0 90 -32 90 -81c0 -54 -43 -81 -90 -81c-48 0 -90 27 -90 81c0 49 39 81 90 81zM348 -91c51 0 90 -32 90 -81c0 -54 -43 -81 -90 -81c-48 0 -90 27 -90 81c0 49 39 81 90 81z" />
    <glyph glyph-name="uniFBFE" unicode="&#x6cc;" horiz-adv-x="416" arabic-form="initial" 
d="M0 0v157h197v417h157v-574h-354zM79 -253c-48 0 -90 27 -90 81c0 49 39 81 90 81s90 -32 90 -81c0 -54 -43 -81 -90 -81zM294 -253c-48 0 -90 27 -90 81c0 49 39 81 90 81s90 -32 90 -81c0 -54 -43 -81 -90 -81z" />
    <glyph glyph-name="uniFBAF" unicode="&#x6d2;" horiz-adv-x="791" arabic-form="final" 
d="M285 -220c-180 0 -262 69 -262 220v157h788v-157h-630v-11c0 -36 20 -52 64 -52h306v-157h-266z" />
    <glyph glyph-name="uniFBB1" unicode="&#x6d3;" horiz-adv-x="791" arabic-form="final" 
d="M264 260v130c0 72 47 120 118 120h81v-90h-71c-17 0 -28 -10 -28 -26v-14h134v-120h-234zM285 -220c-180 0 -262 69 -262 220v157h788v-157h-630v-11c0 -36 20 -52 64 -52h306v-157h-266z" />
    <glyph glyph-name="uni06D5.fina" unicode="&#x6d5;" horiz-adv-x="645" 
d="M552 157h113v-157h-270h-35c-187 0 -312 114 -312 285v1c0 173 132 288 333 288h14v50h157v-467zM395 157v261h-49c-85 0 -151 -48 -151 -132v-1c0 -80 66 -128 151 -128h49z" />
    <glyph glyph-name="uniFC6A" unicode="&#xfc6a;" horiz-adv-x="790" arabic-form="final" 
d="M787 157h23v-157h-23c-186 0 -284 103 -284 300v117h-195v-366c0 -212 -76 -271 -227 -271c-29 0 -58 3 -84 9l-16 136c34 -2 57 -3 84 -3c50 0 86 26 86 102v550h352v120h157v-404c0 -87 44 -133 127 -133zM455 -91c51 0 91 -32 91 -81c0 -55 -43 -82 -91 -82
s-91 27 -91 82c0 49 40 81 91 81z" />
    <glyph glyph-name="uniFC6B" unicode="&#xfc6b;" horiz-adv-x="790" arabic-form="final" 
d="M231 668c-48 0 -91 27 -91 82c0 49 40 81 91 81s91 -32 91 -81c0 -55 -43 -82 -91 -82zM787 157h23v-157h-23c-186 0 -284 103 -284 300v117h-195v-366c0 -212 -76 -271 -227 -271c-29 0 -58 3 -84 9l-16 136c34 -2 57 -3 84 -3c50 0 86 26 86 102v550h352v120h157v-404
c0 -87 44 -133 127 -133zM455 -91c51 0 91 -32 91 -81c0 -55 -43 -82 -91 -82s-91 27 -91 82c0 49 40 81 91 81z" />
    <glyph glyph-name="uniFC6D" unicode="&#xfc6d;" horiz-adv-x="1128" arabic-form="final" 
d="M337 599c-48 0 -91 27 -91 82c0 49 40 81 91 81s91 -32 91 -81c0 -55 -43 -82 -91 -82zM1124 157h24v-157h-24c-186 0 -284 103 -284 300v48h-218v-473h-255c-206 0 -321 112 -321 309v321h158v-302c0 -122 75 -171 188 -171h73v473h375v120h157v-335
c0 -87 44 -133 127 -133zM816 -91c51 0 91 -32 91 -81c0 -55 -43 -82 -91 -82s-91 27 -91 82c0 49 40 81 91 81z" />
    <glyph glyph-name="uniFC6E" unicode="&#xfc6e;" horiz-adv-x="1214" arabic-form="final" 
d="M1211 157h23v-157h-23c-187 0 -284 103 -284 300v126h-108c-94 0 -139 -54 -139 -144v-407h-313c-216 0 -321 106 -321 315v204h157v-188c0 -126 81 -174 198 -174h122v250c0 198 100 292 296 292h108v120h157v-404c0 -87 43 -133 127 -133zM886 -91c51 0 91 -32 91 -81
c0 -55 -43 -82 -91 -82s-91 27 -91 82c0 49 40 81 91 81z" />
    <glyph glyph-name="uniFC6F" unicode="&#xfc6f;" horiz-adv-x="1214" arabic-form="final" 
d="M1211 157h23v-157h-23c-187 0 -284 103 -284 300v126h-108c-94 0 -139 -54 -139 -144v-407h-313c-216 0 -321 106 -321 315v204h157v-188c0 -126 81 -174 198 -174h122v250c0 198 100 292 296 292h108v120h157v-404c0 -87 43 -133 127 -133zM886 -91c51 0 91 -32 91 -81
c0 -55 -43 -82 -91 -82s-91 27 -91 82c0 49 40 81 91 81zM350 -216c51 0 90 -32 90 -81c0 -54 -43 -81 -90 -81c-48 0 -90 27 -90 81c0 49 39 81 90 81zM565 -216c51 0 90 -32 90 -81c0 -54 -43 -81 -90 -81c-48 0 -90 27 -90 81c0 49 39 81 90 81z" />
    <glyph glyph-name="uniFC70" unicode="&#xfc70;" horiz-adv-x="790" arabic-form="final" 
d="M475 784c-48 0 -90 27 -90 81c0 49 39 81 90 81s90 -32 90 -81c0 -54 -43 -81 -90 -81zM690 784c-48 0 -90 27 -90 81c0 49 39 81 90 81s90 -32 90 -81c0 -54 -43 -81 -90 -81zM787 157h23v-157h-23c-186 0 -284 103 -284 300v117h-195v-366c0 -212 -76 -271 -227 -271
c-29 0 -58 3 -84 9l-16 136c34 -2 57 -3 84 -3c50 0 86 26 86 102v550h352v120h157v-404c0 -87 44 -133 127 -133z" />
    <glyph glyph-name="uniFC71" unicode="&#xfc71;" horiz-adv-x="790" arabic-form="final" 
d="M475 784c-48 0 -90 27 -90 81c0 49 39 81 90 81s90 -32 90 -81c0 -54 -43 -81 -90 -81zM690 784c-48 0 -90 27 -90 81c0 49 39 81 90 81s90 -32 90 -81c0 -54 -43 -81 -90 -81zM219 668c-48 0 -91 27 -91 82c0 49 40 81 91 81s91 -32 91 -81c0 -55 -43 -82 -91 -82z
M787 157h23v-157h-23c-186 0 -284 103 -284 300v117h-195v-366c0 -212 -76 -271 -227 -271c-29 0 -58 3 -84 9l-16 136c34 -2 57 -3 84 -3c50 0 86 26 86 102v550h352v120h157v-404c0 -87 44 -133 127 -133z" />
    <glyph glyph-name="uniFC73" unicode="&#xfc73;" horiz-adv-x="1128" arabic-form="final" 
d="M813 715c-48 0 -90 27 -90 81c0 49 39 81 90 81s90 -32 90 -81c0 -54 -43 -81 -90 -81zM1028 715c-48 0 -90 27 -90 81c0 49 39 81 90 81s90 -32 90 -81c0 -54 -43 -81 -90 -81zM337 599c-48 0 -91 27 -91 82c0 49 40 81 91 81s91 -32 91 -81c0 -55 -43 -82 -91 -82z
M1124 157h24v-157h-24c-186 0 -284 103 -284 300v48h-218v-473h-255c-206 0 -321 112 -321 309v321h158v-302c0 -122 75 -171 188 -171h73v473h375v120h157v-335c0 -87 44 -133 127 -133z" />
    <glyph glyph-name="uniFC74" unicode="&#xfc74;" horiz-adv-x="1214" arabic-form="final" 
d="M898 784c-48 0 -90 27 -90 81c0 49 39 81 90 81s90 -32 90 -81c0 -54 -43 -81 -90 -81zM1113 784c-48 0 -90 27 -90 81c0 49 39 81 90 81s90 -32 90 -81c0 -54 -43 -81 -90 -81zM1211 157h23v-157h-23c-187 0 -284 103 -284 300v126h-108c-94 0 -139 -54 -139 -144v-407
h-313c-216 0 -321 106 -321 315v204h157v-188c0 -126 81 -174 198 -174h122v250c0 198 100 292 296 292h108v120h157v-404c0 -87 43 -133 127 -133z" />
    <glyph glyph-name="uniFC75" unicode="&#xfc75;" horiz-adv-x="1214" arabic-form="final" 
d="M898 784c-48 0 -90 27 -90 81c0 49 39 81 90 81s90 -32 90 -81c0 -54 -43 -81 -90 -81zM1113 784c-48 0 -90 27 -90 81c0 49 39 81 90 81s90 -32 90 -81c0 -54 -43 -81 -90 -81zM1211 157h23v-157h-23c-187 0 -284 103 -284 300v126h-108c-94 0 -139 -54 -139 -144v-407
h-313c-216 0 -321 106 -321 315v204h157v-188c0 -126 81 -174 198 -174h122v250c0 198 100 292 296 292h108v120h157v-404c0 -87 43 -133 127 -133zM350 -216c51 0 90 -32 90 -81c0 -54 -43 -81 -90 -81c-48 0 -90 27 -90 81c0 49 39 81 90 81zM565 -216c51 0 90 -32 90 -81
c0 -54 -43 -81 -90 -81c-48 0 -90 27 -90 81c0 49 39 81 90 81z" />
    <glyph glyph-name="uniFC76" unicode="&#xfc76;" horiz-adv-x="790" arabic-form="final" 
d="M583 941c-38 0 -75 22 -75 68c0 39 32 66 75 66s75 -27 75 -66c0 -46 -36 -68 -75 -68zM478 784c-45 0 -86 26 -86 79c0 47 37 77 86 77c50 0 87 -30 87 -77c0 -53 -41 -79 -87 -79zM600 863c0 47 37 77 87 77c49 0 86 -30 86 -77c0 -53 -40 -79 -86 -79s-87 26 -87 79z
M787 157h23v-157h-23c-186 0 -284 103 -284 300v117h-195v-366c0 -212 -76 -271 -227 -271c-29 0 -58 3 -84 9l-16 136c34 -2 57 -3 84 -3c50 0 86 26 86 102v550h352v120h157v-404c0 -87 44 -133 127 -133z" />
    <glyph glyph-name="uniFC77" unicode="&#xfc77;" horiz-adv-x="790" arabic-form="final" 
d="M583 941c-38 0 -75 22 -75 68c0 39 32 66 75 66s75 -27 75 -66c0 -46 -36 -68 -75 -68zM478 784c-45 0 -86 26 -86 79c0 47 37 77 86 77c50 0 87 -30 87 -77c0 -53 -41 -79 -87 -79zM600 863c0 47 37 77 87 77c49 0 86 -30 86 -77c0 -53 -40 -79 -86 -79s-87 26 -87 79z
M219 668c-48 0 -91 27 -91 82c0 49 40 81 91 81s91 -32 91 -81c0 -55 -43 -82 -91 -82zM787 157h23v-157h-23c-186 0 -284 103 -284 300v117h-195v-366c0 -212 -76 -271 -227 -271c-29 0 -58 3 -84 9l-16 136c34 -2 57 -3 84 -3c50 0 86 26 86 102v550h352v120h157v-404
c0 -87 44 -133 127 -133z" />
    <glyph glyph-name="uniFC79" unicode="&#xfc79;" horiz-adv-x="1128" arabic-form="final" 
d="M921 872c-38 0 -75 22 -75 68c0 39 32 66 75 66s75 -27 75 -66c0 -46 -36 -68 -75 -68zM816 715c-45 0 -86 26 -86 79c0 47 37 77 86 77c50 0 87 -30 87 -77c0 -53 -41 -79 -87 -79zM938 794c0 47 37 77 87 77c49 0 86 -30 86 -77c0 -53 -40 -79 -86 -79s-87 26 -87 79z
M337 599c-48 0 -91 27 -91 82c0 49 40 81 91 81s91 -32 91 -81c0 -55 -43 -82 -91 -82zM1124 157h24v-157h-24c-186 0 -284 103 -284 300v48h-218v-473h-255c-206 0 -321 112 -321 309v321h158v-302c0 -122 75 -171 188 -171h73v473h375v120h157v-335
c0 -87 44 -133 127 -133z" />
    <glyph glyph-name="uniFC7A" unicode="&#xfc7a;" horiz-adv-x="1214" arabic-form="final" 
d="M1006 941c-38 0 -75 22 -75 68c0 39 32 66 75 66s75 -27 75 -66c0 -46 -36 -68 -75 -68zM901 784c-45 0 -86 26 -86 79c0 47 37 77 86 77c50 0 87 -30 87 -77c0 -53 -41 -79 -87 -79zM1023 863c0 47 37 77 87 77c49 0 86 -30 86 -77c0 -53 -40 -79 -86 -79s-87 26 -87 79
zM1211 157h23v-157h-23c-187 0 -284 103 -284 300v126h-108c-94 0 -139 -54 -139 -144v-407h-313c-216 0 -321 106 -321 315v204h157v-188c0 -126 81 -174 198 -174h122v250c0 198 100 292 296 292h108v120h157v-404c0 -87 43 -133 127 -133z" />
    <glyph glyph-name="uniFC7B" unicode="&#xfc7b;" horiz-adv-x="1214" arabic-form="final" 
d="M1006 941c-38 0 -75 22 -75 68c0 39 32 66 75 66s75 -27 75 -66c0 -46 -36 -68 -75 -68zM901 784c-45 0 -86 26 -86 79c0 47 37 77 86 77c50 0 87 -30 87 -77c0 -53 -41 -79 -87 -79zM1023 863c0 47 37 77 87 77c49 0 86 -30 86 -77c0 -53 -40 -79 -86 -79s-87 26 -87 79
zM1211 157h23v-157h-23c-187 0 -284 103 -284 300v126h-108c-94 0 -139 -54 -139 -144v-407h-313c-216 0 -321 106 -321 315v204h157v-188c0 -126 81 -174 198 -174h122v250c0 198 100 292 296 292h108v120h157v-404c0 -87 43 -133 127 -133zM350 -216c51 0 90 -32 90 -81
c0 -54 -43 -81 -90 -81c-48 0 -90 27 -90 81c0 49 39 81 90 81zM565 -216c51 0 90 -32 90 -81c0 -54 -43 -81 -90 -81c-48 0 -90 27 -90 81c0 49 39 81 90 81z" />
    <glyph glyph-name="uniFD0E" unicode="&#xfd0e;" horiz-adv-x="1494" arabic-form="isolated" 
d="M1284 578h157v-288c0 -205 -91 -300 -274 -300c-86 0 -148 30 -189 84c-38 -56 -102 -84 -203 -84c-179 0 -273 103 -273 300v58h-194v-297c0 -212 -76 -271 -227 -271c-29 0 -58 3 -84 9l-16 136c34 -2 57 -3 84 -3c50 0 86 26 86 102v600h157v-119h351v-231
c0 -84 42 -127 116 -127s118 44 118 127v231h157v-231c0 -84 42 -127 117 -127c73 0 117 44 117 127v304z" />
    <glyph glyph-name="uniFD2A" unicode="&#xfd2a;" horiz-adv-x="1564" arabic-form="final" 
d="M1441 306c0 -103 48 -149 143 -149v-157c-89 0 -161 31 -195 84c-45 -64 -119 -94 -222 -94c-86 0 -148 30 -189 84c-38 -56 -102 -84 -203 -84c-179 0 -273 103 -273 300v58h-194v-297c0 -212 -76 -271 -227 -271c-29 0 -58 3 -84 9l-16 136c34 -2 57 -3 84 -3
c50 0 86 26 86 102v600h157v-119h351v-231c0 -84 42 -127 116 -127s118 44 118 127v231h157v-231c0 -84 42 -127 117 -127c73 0 117 44 117 127v304h157v-272z" />
    <glyph glyph-name="uniFCFB" unicode="&#xfcfb;" horiz-adv-x="1877" arabic-form="isolated" 
d="M1668 578h157v-288c0 -205 -91 -300 -259 -300c-93 0 -159 35 -200 97c-39 -65 -110 -97 -226 -97c-179 0 -292 103 -292 300v256h-58c-75 0 -110 -43 -110 -115v-556h-313c-216 0 -321 106 -321 315v204h157v-188c0 -126 81 -174 198 -174h122v370
c0 198 100 292 296 292h186v-407c0 -88 50 -140 135 -140c84 0 137 50 137 140v218h157v-231c0 -83 40 -127 117 -127c74 0 117 42 117 127v304z" />
    <glyph glyph-name="uniFD17" unicode="&#xfd17;" horiz-adv-x="1948" arabic-form="final" 
d="M1825 306c0 -103 48 -149 143 -149v-157c-89 0 -160 30 -194 83c-44 -63 -114 -93 -208 -93c-93 0 -159 35 -200 97c-39 -65 -110 -97 -226 -97c-179 0 -292 103 -292 300v256h-58c-75 0 -110 -43 -110 -115v-556h-313c-216 0 -321 106 -321 315v204h157v-188
c0 -126 81 -174 198 -174h122v370c0 198 100 292 296 292h186v-407c0 -88 50 -140 135 -140c84 0 137 50 137 140v218h157v-231c0 -83 40 -127 117 -127c74 0 117 42 117 127v304h157v-272z" />
    <glyph glyph-name="uniFCFC" unicode="&#xfcfc;" horiz-adv-x="1877" arabic-form="isolated" 
d="M1668 578h157v-288c0 -205 -91 -300 -259 -300c-93 0 -159 35 -200 97c-39 -65 -110 -97 -226 -97c-179 0 -292 103 -292 300v256h-58c-75 0 -110 -43 -110 -115v-556h-313c-216 0 -321 106 -321 315v204h157v-188c0 -126 81 -174 198 -174h122v370
c0 198 100 292 296 292h186v-407c0 -88 50 -140 135 -140c84 0 137 50 137 140v218h157v-231c0 -83 40 -127 117 -127c74 0 117 42 117 127v304zM350 -216c51 0 90 -32 90 -81c0 -54 -43 -81 -90 -81c-48 0 -90 27 -90 81c0 49 39 81 90 81zM565 -216c51 0 90 -32 90 -81
c0 -54 -43 -81 -90 -81c-48 0 -90 27 -90 81c0 49 39 81 90 81z" />
    <glyph glyph-name="uniFD18" unicode="&#xfd18;" horiz-adv-x="1948" arabic-form="final" 
d="M1825 306c0 -103 48 -149 143 -149v-157c-89 0 -160 30 -194 83c-44 -63 -114 -93 -208 -93c-93 0 -159 35 -200 97c-39 -65 -110 -97 -226 -97c-179 0 -292 103 -292 300v256h-58c-75 0 -110 -43 -110 -115v-556h-313c-216 0 -321 106 -321 315v204h157v-188
c0 -126 81 -174 198 -174h122v370c0 198 100 292 296 292h186v-407c0 -88 50 -140 135 -140c84 0 137 50 137 140v218h157v-231c0 -83 40 -127 117 -127c74 0 117 42 117 127v304h157v-272zM350 -216c51 0 90 -32 90 -81c0 -54 -43 -81 -90 -81c-48 0 -90 27 -90 81
c0 49 39 81 90 81zM565 -216c51 0 90 -32 90 -81c0 -54 -43 -81 -90 -81c-48 0 -90 27 -90 81c0 49 39 81 90 81z" />
    <glyph glyph-name="uniFD0D" unicode="&#xfd0d;" horiz-adv-x="1494" arabic-form="isolated" 
d="M973 752c-38 0 -75 22 -75 68c0 39 32 66 75 66s75 -27 75 -66c0 -46 -36 -68 -75 -68zM868 595c-45 0 -86 26 -86 79c0 47 37 77 86 77c50 0 87 -30 87 -77c0 -53 -41 -79 -87 -79zM990 674c0 47 37 77 87 77c49 0 86 -30 86 -77c0 -53 -40 -79 -86 -79s-87 26 -87 79z
M1284 578h157v-288c0 -205 -91 -300 -274 -300c-86 0 -148 30 -189 84c-38 -56 -102 -84 -203 -84c-179 0 -273 103 -273 300v58h-194v-297c0 -212 -76 -271 -227 -271c-29 0 -58 3 -84 9l-16 136c34 -2 57 -3 84 -3c50 0 86 26 86 102v600h157v-119h351v-231
c0 -84 42 -127 116 -127s118 44 118 127v231h157v-231c0 -84 42 -127 117 -127c73 0 117 44 117 127v304z" />
    <glyph glyph-name="uniFD29" unicode="&#xfd29;" horiz-adv-x="1564" arabic-form="final" 
d="M973 752c-38 0 -75 22 -75 68c0 39 32 66 75 66s75 -27 75 -66c0 -46 -36 -68 -75 -68zM868 595c-45 0 -86 26 -86 79c0 47 37 77 86 77c50 0 87 -30 87 -77c0 -53 -41 -79 -87 -79zM990 674c0 47 37 77 87 77c49 0 86 -30 86 -77c0 -53 -40 -79 -86 -79s-87 26 -87 79z
M1441 306c0 -103 48 -149 143 -149v-157c-89 0 -161 31 -195 84c-45 -64 -119 -94 -222 -94c-86 0 -148 30 -189 84c-38 -56 -102 -84 -203 -84c-179 0 -273 103 -273 300v58h-194v-297c0 -212 -76 -271 -227 -271c-29 0 -58 3 -84 9l-16 136c34 -2 57 -3 84 -3
c50 0 86 26 86 102v600h157v-119h351v-231c0 -84 42 -127 116 -127s118 44 118 127v231h157v-231c0 -84 42 -127 117 -127c73 0 117 44 117 127v304h157v-272z" />
    <glyph glyph-name="uniFCFD" unicode="&#xfcfd;" horiz-adv-x="1877" arabic-form="isolated" 
d="M1356 752c-38 0 -75 22 -75 68c0 39 32 66 75 66s75 -27 75 -66c0 -46 -36 -68 -75 -68zM1251 595c-45 0 -86 26 -86 79c0 47 37 77 86 77c50 0 87 -30 87 -77c0 -53 -41 -79 -87 -79zM1373 674c0 47 37 77 87 77c49 0 86 -30 86 -77c0 -53 -40 -79 -86 -79
s-87 26 -87 79zM1668 578h157v-288c0 -205 -91 -300 -259 -300c-93 0 -159 35 -200 97c-39 -65 -110 -97 -226 -97c-179 0 -292 103 -292 300v256h-58c-75 0 -110 -43 -110 -115v-556h-313c-216 0 -321 106 -321 315v204h157v-188c0 -126 81 -174 198 -174h122v370
c0 198 100 292 296 292h186v-407c0 -88 50 -140 135 -140c84 0 137 50 137 140v218h157v-231c0 -83 40 -127 117 -127c74 0 117 42 117 127v304z" />
    <glyph glyph-name="uniFD19" unicode="&#xfd19;" horiz-adv-x="1948" arabic-form="final" 
d="M1356 752c-38 0 -75 22 -75 68c0 39 32 66 75 66s75 -27 75 -66c0 -46 -36 -68 -75 -68zM1251 595c-45 0 -86 26 -86 79c0 47 37 77 86 77c50 0 87 -30 87 -77c0 -53 -41 -79 -87 -79zM1373 674c0 47 37 77 87 77c49 0 86 -30 86 -77c0 -53 -40 -79 -86 -79
s-87 26 -87 79zM1825 306c0 -103 48 -149 143 -149v-157c-89 0 -160 30 -194 83c-44 -63 -114 -93 -208 -93c-93 0 -159 35 -200 97c-39 -65 -110 -97 -226 -97c-179 0 -292 103 -292 300v256h-58c-75 0 -110 -43 -110 -115v-556h-313c-216 0 -321 106 -321 315v204h157
v-188c0 -126 81 -174 198 -174h122v370c0 198 100 292 296 292h186v-407c0 -88 50 -140 135 -140c84 0 137 50 137 140v218h157v-231c0 -83 40 -127 117 -127c74 0 117 42 117 127v304h157v-272z" />
    <glyph glyph-name="uniFCFE" unicode="&#xfcfe;" horiz-adv-x="1877" arabic-form="isolated" 
d="M1356 752c-38 0 -75 22 -75 68c0 39 32 66 75 66s75 -27 75 -66c0 -46 -36 -68 -75 -68zM1251 595c-45 0 -86 26 -86 79c0 47 37 77 86 77c50 0 87 -30 87 -77c0 -53 -41 -79 -87 -79zM1373 674c0 47 37 77 87 77c49 0 86 -30 86 -77c0 -53 -40 -79 -86 -79
s-87 26 -87 79zM1668 578h157v-288c0 -205 -91 -300 -259 -300c-93 0 -159 35 -200 97c-39 -65 -110 -97 -226 -97c-179 0 -292 103 -292 300v256h-58c-75 0 -110 -43 -110 -115v-556h-313c-216 0 -321 106 -321 315v204h157v-188c0 -126 81 -174 198 -174h122v370
c0 198 100 292 296 292h186v-407c0 -88 50 -140 135 -140c84 0 137 50 137 140v218h157v-231c0 -83 40 -127 117 -127c74 0 117 42 117 127v304zM350 -216c51 0 90 -32 90 -81c0 -54 -43 -81 -90 -81c-48 0 -90 27 -90 81c0 49 39 81 90 81zM565 -216c51 0 90 -32 90 -81
c0 -54 -43 -81 -90 -81c-48 0 -90 27 -90 81c0 49 39 81 90 81z" />
    <glyph glyph-name="uniFD1A" unicode="&#xfd1a;" horiz-adv-x="1948" arabic-form="final" 
d="M1356 752c-38 0 -75 22 -75 68c0 39 32 66 75 66s75 -27 75 -66c0 -46 -36 -68 -75 -68zM1251 595c-45 0 -86 26 -86 79c0 47 37 77 86 77c50 0 87 -30 87 -77c0 -53 -41 -79 -87 -79zM1373 674c0 47 37 77 87 77c49 0 86 -30 86 -77c0 -53 -40 -79 -86 -79
s-87 26 -87 79zM1825 306c0 -103 48 -149 143 -149v-157c-89 0 -160 30 -194 83c-44 -63 -114 -93 -208 -93c-93 0 -159 35 -200 97c-39 -65 -110 -97 -226 -97c-179 0 -292 103 -292 300v256h-58c-75 0 -110 -43 -110 -115v-556h-313c-216 0 -321 106 -321 315v204h157
v-188c0 -126 81 -174 198 -174h122v370c0 198 100 292 296 292h186v-407c0 -88 50 -140 135 -140c84 0 137 50 137 140v218h157v-231c0 -83 40 -127 117 -127c74 0 117 42 117 127v304h157v-272zM350 -216c51 0 90 -32 90 -81c0 -54 -43 -81 -90 -81c-48 0 -90 27 -90 81
c0 49 39 81 90 81zM565 -216c51 0 90 -32 90 -81c0 -54 -43 -81 -90 -81c-48 0 -90 27 -90 81c0 49 39 81 90 81z" />
    <glyph glyph-name="uniFD05" unicode="&#xfd05;" horiz-adv-x="1743" arabic-form="isolated" 
d="M1372 574c221 0 319 -107 318 -315v-259h-569c-179 0 -273 103 -273 300v246h-58c-75 0 -110 -43 -110 -115v-556h-313c-216 0 -321 106 -321 315v204h157v-188c0 -126 81 -174 198 -174h122v370c0 198 100 292 296 292h186v-120h367zM1542 157l1 130
c0 86 -57 130 -147 130h-391v-133c0 -84 42 -127 116 -127h421z" />
    <glyph glyph-name="uniFD21" unicode="&#xfd21;" horiz-adv-x="1783" arabic-form="final" 
d="M1690 157h113v-157h-682c-179 0 -273 103 -273 300v246h-58c-75 0 -110 -43 -110 -115v-556h-313c-216 0 -321 106 -321 315v204h157v-188c0 -126 81 -174 198 -174h122v370c0 198 100 292 296 292h186v-120h367c221 0 319 -107 318 -315v-102zM1542 157l1 130
c0 86 -57 130 -147 130h-391v-133c0 -84 42 -127 116 -127h421z" />
    <glyph glyph-name="uniFD06" unicode="&#xfd06;" horiz-adv-x="1743" arabic-form="isolated" 
d="M1372 574c221 0 319 -107 318 -315v-259h-569c-179 0 -273 103 -273 300v246h-58c-75 0 -110 -43 -110 -115v-556h-313c-216 0 -321 106 -321 315v204h157v-188c0 -126 81 -174 198 -174h122v370c0 198 100 292 296 292h186v-120h367zM1542 157l1 130
c0 86 -57 130 -147 130h-391v-133c0 -84 42 -127 116 -127h421zM350 -216c51 0 90 -32 90 -81c0 -54 -43 -81 -90 -81c-48 0 -90 27 -90 81c0 49 39 81 90 81zM565 -216c51 0 90 -32 90 -81c0 -54 -43 -81 -90 -81c-48 0 -90 27 -90 81c0 49 39 81 90 81z" />
    <glyph glyph-name="uniFD22" unicode="&#xfd22;" horiz-adv-x="1783" arabic-form="final" 
d="M1690 157h113v-157h-682c-179 0 -273 103 -273 300v246h-58c-75 0 -110 -43 -110 -115v-556h-313c-216 0 -321 106 -321 315v204h157v-188c0 -126 81 -174 198 -174h122v370c0 198 100 292 296 292h186v-120h367c221 0 319 -107 318 -315v-102zM1542 157l1 130
c0 86 -57 130 -147 130h-391v-133c0 -84 42 -127 116 -127h421zM350 -216c51 0 90 -32 90 -81c0 -54 -43 -81 -90 -81c-48 0 -90 27 -90 81c0 49 39 81 90 81zM565 -216c51 0 90 -32 90 -81c0 -54 -43 -81 -90 -81c-48 0 -90 27 -90 81c0 49 39 81 90 81z" />
    <glyph glyph-name="uniFD07" unicode="&#xfd07;" horiz-adv-x="1743" arabic-form="isolated" 
d="M1316 668c-48 0 -91 27 -91 82c0 49 40 81 91 81s91 -32 91 -81c0 -55 -43 -82 -91 -82zM1372 574c221 0 319 -107 318 -315v-259h-569c-179 0 -273 103 -273 300v246h-58c-75 0 -110 -43 -110 -115v-556h-313c-216 0 -321 106 -321 315v204h157v-188
c0 -126 81 -174 198 -174h122v370c0 198 100 292 296 292h186v-120h367zM1542 157l1 130c0 86 -57 130 -147 130h-391v-133c0 -84 42 -127 116 -127h421z" />
    <glyph glyph-name="uniFD23" unicode="&#xfd23;" horiz-adv-x="1783" arabic-form="final" 
d="M1316 668c-48 0 -91 27 -91 82c0 49 40 81 91 81s91 -32 91 -81c0 -55 -43 -82 -91 -82zM1690 157h113v-157h-682c-179 0 -273 103 -273 300v246h-58c-75 0 -110 -43 -110 -115v-556h-313c-216 0 -321 106 -321 315v204h157v-188c0 -126 81 -174 198 -174h122v370
c0 198 100 292 296 292h186v-120h367c221 0 319 -107 318 -315v-102zM1542 157l1 130c0 86 -57 130 -147 130h-391v-133c0 -84 42 -127 116 -127h421z" />
    <glyph glyph-name="uniFD08" unicode="&#xfd08;" horiz-adv-x="1743" arabic-form="isolated" 
d="M1316 668c-48 0 -91 27 -91 82c0 49 40 81 91 81s91 -32 91 -81c0 -55 -43 -82 -91 -82zM1372 574c221 0 319 -107 318 -315v-259h-569c-179 0 -273 103 -273 300v246h-58c-75 0 -110 -43 -110 -115v-556h-313c-216 0 -321 106 -321 315v204h157v-188
c0 -126 81 -174 198 -174h122v370c0 198 100 292 296 292h186v-120h367zM1542 157l1 130c0 86 -57 130 -147 130h-391v-133c0 -84 42 -127 116 -127h421zM350 -216c51 0 90 -32 90 -81c0 -54 -43 -81 -90 -81c-48 0 -90 27 -90 81c0 49 39 81 90 81zM565 -216
c51 0 90 -32 90 -81c0 -54 -43 -81 -90 -81c-48 0 -90 27 -90 81c0 49 39 81 90 81z" />
    <glyph glyph-name="uniFD24" unicode="&#xfd24;" horiz-adv-x="1783" arabic-form="final" 
d="M1316 668c-48 0 -91 27 -91 82c0 49 40 81 91 81s91 -32 91 -81c0 -55 -43 -82 -91 -82zM1690 157h113v-157h-682c-179 0 -273 103 -273 300v246h-58c-75 0 -110 -43 -110 -115v-556h-313c-216 0 -321 106 -321 315v204h157v-188c0 -126 81 -174 198 -174h122v370
c0 198 100 292 296 292h186v-120h367c221 0 319 -107 318 -315v-102zM1542 157l1 130c0 86 -57 130 -147 130h-391v-133c0 -84 42 -127 116 -127h421zM350 -216c51 0 90 -32 90 -81c0 -54 -43 -81 -90 -81c-48 0 -90 27 -90 81c0 49 39 81 90 81zM565 -216
c51 0 90 -32 90 -81c0 -54 -43 -81 -90 -81c-48 0 -90 27 -90 81c0 49 39 81 90 81z" />
    <glyph glyph-name="uniFC8A" unicode="&#xfc8a;" horiz-adv-x="790" arabic-form="final" 
d="M583 788c-48 0 -91 27 -91 82c0 49 40 81 91 81s91 -32 91 -81c0 -55 -43 -82 -91 -82zM787 157h23v-157h-23c-186 0 -284 103 -284 300v117h-195v-366c0 -212 -76 -271 -227 -271c-29 0 -58 3 -84 9l-16 136c34 -2 57 -3 84 -3c50 0 86 26 86 102v550h352v120h157v-404
c0 -87 44 -133 127 -133z" />
    <glyph glyph-name="uniFC8B" unicode="&#xfc8b;" horiz-adv-x="790" arabic-form="final" 
d="M583 788c-48 0 -91 27 -91 82c0 49 40 81 91 81s91 -32 91 -81c0 -55 -43 -82 -91 -82zM219 668c-48 0 -91 27 -91 82c0 49 40 81 91 81s91 -32 91 -81c0 -55 -43 -82 -91 -82zM787 157h23v-157h-23c-186 0 -284 103 -284 300v117h-195v-366c0 -212 -76 -271 -227 -271
c-29 0 -58 3 -84 9l-16 136c34 -2 57 -3 84 -3c50 0 86 26 86 102v550h352v120h157v-404c0 -87 44 -133 127 -133z" />
    <glyph glyph-name="uniFC8D" unicode="&#xfc8d;" horiz-adv-x="1128" arabic-form="final" 
d="M921 719c-48 0 -91 27 -91 82c0 49 40 81 91 81s91 -32 91 -81c0 -55 -43 -82 -91 -82zM337 599c-48 0 -91 27 -91 82c0 49 40 81 91 81s91 -32 91 -81c0 -55 -43 -82 -91 -82zM1124 157h24v-157h-24c-186 0 -284 103 -284 300v48h-218v-473h-255
c-206 0 -321 112 -321 309v321h158v-302c0 -122 75 -171 188 -171h73v473h375v120h157v-335c0 -87 44 -133 127 -133z" />
    <glyph glyph-name="uniFC8E" unicode="&#xfc8e;" horiz-adv-x="1214" arabic-form="final" 
d="M1006 788c-48 0 -91 27 -91 82c0 49 40 81 91 81s91 -32 91 -81c0 -55 -43 -82 -91 -82zM1211 157h23v-157h-23c-187 0 -284 103 -284 300v126h-108c-94 0 -139 -54 -139 -144v-407h-313c-216 0 -321 106 -321 315v204h157v-188c0 -126 81 -174 198 -174h122v250
c0 198 100 292 296 292h108v120h157v-404c0 -87 43 -133 127 -133z" />
    <glyph glyph-name="uniFC8F" unicode="&#xfc8f;" horiz-adv-x="1214" arabic-form="final" 
d="M1006 788c-48 0 -91 27 -91 82c0 49 40 81 91 81s91 -32 91 -81c0 -55 -43 -82 -91 -82zM1211 157h23v-157h-23c-187 0 -284 103 -284 300v126h-108c-94 0 -139 -54 -139 -144v-407h-313c-216 0 -321 106 -321 315v204h157v-188c0 -126 81 -174 198 -174h122v250
c0 198 100 292 296 292h108v120h157v-404c0 -87 43 -133 127 -133zM350 -216c51 0 90 -32 90 -81c0 -54 -43 -81 -90 -81c-48 0 -90 27 -90 81c0 49 39 81 90 81zM565 -216c51 0 90 -32 90 -81c0 -54 -43 -81 -90 -81c-48 0 -90 27 -90 81c0 49 39 81 90 81z" />
    <glyph glyph-name="uniFC91" unicode="&#xfc91;" horiz-adv-x="790" arabic-form="final" 
d="M787 157h23v-157h-23c-186 0 -284 103 -284 300v117h-195v-366c0 -212 -76 -271 -227 -271c-29 0 -58 3 -84 9l-16 136c34 -2 57 -3 84 -3c50 0 86 26 86 102v550h352v120h157v-404c0 -87 44 -133 127 -133zM413 -91c51 0 90 -32 90 -81c0 -54 -43 -81 -90 -81
c-48 0 -90 27 -90 81c0 49 39 81 90 81zM628 -91c51 0 90 -32 90 -81c0 -54 -43 -81 -90 -81c-48 0 -90 27 -90 81c0 49 39 81 90 81z" />
    <glyph glyph-name="uniFC92" unicode="&#xfc92;" horiz-adv-x="790" arabic-form="final" 
d="M219 668c-48 0 -91 27 -91 82c0 49 40 81 91 81s91 -32 91 -81c0 -55 -43 -82 -91 -82zM787 157h23v-157h-23c-186 0 -284 103 -284 300v117h-195v-366c0 -212 -76 -271 -227 -271c-29 0 -58 3 -84 9l-16 136c34 -2 57 -3 84 -3c50 0 86 26 86 102v550h352v120h157v-404
c0 -87 44 -133 127 -133zM413 -91c51 0 90 -32 90 -81c0 -54 -43 -81 -90 -81c-48 0 -90 27 -90 81c0 49 39 81 90 81zM628 -91c51 0 90 -32 90 -81c0 -54 -43 -81 -90 -81c-48 0 -90 27 -90 81c0 49 39 81 90 81z" />
    <glyph glyph-name="uniFC94" unicode="&#xfc94;" horiz-adv-x="1128" arabic-form="final" 
d="M337 599c-48 0 -91 27 -91 82c0 49 40 81 91 81s91 -32 91 -81c0 -55 -43 -82 -91 -82zM1124 157h24v-157h-24c-186 0 -284 103 -284 300v48h-218v-473h-255c-206 0 -321 112 -321 309v321h158v-302c0 -122 75 -171 188 -171h73v473h375v120h157v-335
c0 -87 44 -133 127 -133zM761 -91c51 0 90 -32 90 -81c0 -54 -43 -81 -90 -81c-48 0 -90 27 -90 81c0 49 39 81 90 81zM976 -91c51 0 90 -32 90 -81c0 -54 -43 -81 -90 -81c-48 0 -90 27 -90 81c0 49 39 81 90 81z" />
    <glyph glyph-name="uniFC64" unicode="&#xfc64;" horiz-adv-x="790" arabic-form="final" 
d="M672 838v-76h-178v73c0 71 48 108 117 108h35v-67h-39c-16 0 -27 -11 -27 -28v-10h92zM787 157h23v-157h-23c-186 0 -284 103 -284 300v117h-195v-366c0 -212 -76 -271 -227 -271c-29 0 -58 3 -84 9l-16 136c34 -2 57 -3 84 -3c50 0 86 26 86 102v550h352v120h157v-404
c0 -87 44 -133 127 -133z" />
    <glyph glyph-name="uniFC65" unicode="&#xfc65;" horiz-adv-x="790" arabic-form="final" 
d="M672 838v-76h-178v73c0 71 48 108 117 108h35v-67h-39c-16 0 -27 -11 -27 -28v-10h92zM219 668c-48 0 -91 27 -91 82c0 49 40 81 91 81s91 -32 91 -81c0 -55 -43 -82 -91 -82zM787 157h23v-157h-23c-186 0 -284 103 -284 300v117h-195v-366c0 -212 -76 -271 -227 -271
c-29 0 -58 3 -84 9l-16 136c34 -2 57 -3 84 -3c50 0 86 26 86 102v550h352v120h157v-404c0 -87 44 -133 127 -133z" />
    <glyph glyph-name="uniFC67" unicode="&#xfc67;" horiz-adv-x="1128" arabic-form="final" 
d="M1010 769v-76h-178v73c0 71 48 108 117 108h35v-67h-39c-16 0 -27 -11 -27 -28v-10h92zM337 599c-48 0 -91 27 -91 82c0 49 40 81 91 81s91 -32 91 -81c0 -55 -43 -82 -91 -82zM1124 157h24v-157h-24c-186 0 -284 103 -284 300v48h-218v-473h-255
c-206 0 -321 112 -321 309v321h158v-302c0 -122 75 -171 188 -171h73v473h375v120h157v-335c0 -87 44 -133 127 -133z" />
    <glyph glyph-name="uniFC68" unicode="&#xfc68;" horiz-adv-x="1214" arabic-form="final" 
d="M1095 838v-76h-178v73c0 71 48 108 117 108h35v-67h-39c-16 0 -27 -11 -27 -28v-10h92zM1211 157h23v-157h-23c-187 0 -284 103 -284 300v126h-108c-94 0 -139 -54 -139 -144v-407h-313c-216 0 -321 106 -321 315v204h157v-188c0 -126 81 -174 198 -174h122v250
c0 198 100 292 296 292h108v120h157v-404c0 -87 43 -133 127 -133z" />
    <glyph glyph-name="uniFC69" unicode="&#xfc69;" horiz-adv-x="1214" arabic-form="final" 
d="M1095 838v-76h-178v73c0 71 48 108 117 108h35v-67h-39c-16 0 -27 -11 -27 -28v-10h92zM1211 157h23v-157h-23c-187 0 -284 103 -284 300v126h-108c-94 0 -139 -54 -139 -144v-407h-313c-216 0 -321 106 -321 315v204h157v-188c0 -126 81 -174 198 -174h122v250
c0 198 100 292 296 292h108v120h157v-404c0 -87 43 -133 127 -133zM350 -216c51 0 90 -32 90 -81c0 -54 -43 -81 -90 -81c-48 0 -90 27 -90 81c0 49 39 81 90 81zM565 -216c51 0 90 -32 90 -81c0 -54 -43 -81 -90 -81c-48 0 -90 27 -90 81c0 49 39 81 90 81z" />
    <glyph glyph-name=".notdef" horiz-adv-x="500" 
 />
    <glyph glyph-name="A" unicode="A" horiz-adv-x="821" 
d="M640 0l-70 198h-320l-69 -198h-163l296 811h190l298 -811h-162zM406 647l-109 -308h225l-110 308l-3 10z" />
    <glyph glyph-name="Aacute" unicode="&#xc1;" horiz-adv-x="821" 
d="M640 1016l-173 -140h-156l144 140h185zM640 0l-70 198h-320l-69 -198h-163l296 811h190l298 -811h-162zM406 647l-109 -308h225l-110 308l-3 10z" />
    <glyph glyph-name="Abreve" unicode="&#x102;" horiz-adv-x="821" 
d="M413 867c-104 0 -184 38 -194 152h108c7 -47 28 -75 86 -75s79 28 87 75h108c-10 -114 -90 -152 -195 -152zM640 0l-70 198h-320l-69 -198h-163l296 811h190l298 -811h-162zM406 647l-109 -308h225l-110 308l-3 10z" />
    <glyph glyph-name="uni01CD" unicode="&#x1cd;" horiz-adv-x="821" 
d="M489 870h-157l-162 152h154l86 -87l86 87h154zM640 0l-70 198h-320l-69 -198h-163l296 811h190l298 -811h-162zM406 647l-109 -308h225l-110 308l-3 10z" />
    <glyph glyph-name="Acircumflex" unicode="&#xc2;" horiz-adv-x="821" 
d="M411 932l-54 -60h-158l138 140h149l135 -140h-158zM640 0l-70 198h-320l-69 -198h-163l296 811h190l298 -811h-162zM406 647l-109 -308h225l-110 308l-3 10z" />
    <glyph glyph-name="Adieresis" unicode="&#xc4;" horiz-adv-x="821" 
d="M301 870c-44 0 -85 25 -85 76c0 45 38 75 85 75s84 -30 84 -75c0 -51 -40 -76 -84 -76zM518 870c-44 0 -85 25 -85 76c1 45 38 75 85 75s84 -30 84 -75c0 -51 -40 -76 -84 -76zM640 0l-70 198h-320l-69 -198h-163l296 811h190l298 -811h-162zM406 647l-109 -308h225
l-110 308l-3 10z" />
    <glyph glyph-name="Agrave" unicode="&#xc0;" horiz-adv-x="821" 
d="M497 870h-104l-166 152h188zM640 0l-70 198h-320l-69 -198h-163l296 811h190l298 -811h-162zM406 647l-109 -308h225l-110 308l-3 10z" />
    <glyph glyph-name="Amacron" unicode="&#x100;" horiz-adv-x="821" 
d="M571 967v-97h-322v97h322zM640 0l-70 198h-320l-69 -198h-163l296 811h190l298 -811h-162zM406 647l-109 -308h225l-110 308l-3 10z" />
    <glyph glyph-name="Aogonek" unicode="&#x104;" horiz-adv-x="821" 
d="M765 -156c17 0 38 3 50 5v-70c-17 -3 -52 -8 -84 -8c-84 0 -172 28 -174 110c-1 45 21 85 82 121l-69 196h-320l-69 -198h-163l296 811h190l298 -811c-84 -35 -108 -67 -110 -101c2 -37 32 -55 73 -55zM406 647l-109 -308h225l-110 308l-3 10z" />
    <glyph glyph-name="Aring" unicode="&#xc5;" horiz-adv-x="821" 
d="M412 867c-66 0 -121 53 -121 120s53 119 121 119c67 0 121 -54 121 -120c0 -68 -53 -119 -121 -119zM412 1033c-27 0 -48 -21 -47 -46c-1 -27 20 -46 47 -46c28 0 47 19 47 46c0 25 -19 46 -47 46zM640 0l-70 198h-320l-69 -198h-163l296 811h190l298 -811h-162zM406 647
l-109 -308h225l-110 308l-3 10z" />
    <glyph glyph-name="Atilde" unicode="&#xc3;" horiz-adv-x="821" 
d="M352 905c-23 0 -32 -11 -37 -39h-106c3 86 26 143 111 143c61 0 103 -40 151 -40c22 0 30 12 36 39h106c-3 -86 -24 -142 -110 -142c-60 0 -105 39 -151 39zM640 0l-70 198h-320l-69 -198h-163l296 811h190l298 -811h-162zM406 647l-109 -308h225l-110 308l-3 10z" />
    <glyph glyph-name="AE" unicode="&#xc6;" horiz-adv-x="1088" 
d="M698 147h353v-147h-510v173h-257l-109 -173h-176l539 811h511v-146h-351v-177h317v-146h-317v-195zM541 590l-184 -276h184v276z" />
    <glyph glyph-name="B" unicode="B" horiz-adv-x="740" 
d="M537 432c96 -22 141 -94 141 -193v-1c0 -189 -140 -238 -304 -238h-281v811h283c180 0 271 -73 271 -203v-1c0 -78 -41 -153 -110 -175zM364 662h-114v-183h115c101 0 126 40 126 93v1c0 69 -51 89 -127 89zM519 253v1c0 76 -53 101 -132 101h-137v-205h133
c109 0 136 46 136 103z" />
    <glyph glyph-name="C" unicode="C" horiz-adv-x="779" 
d="M468 -13c-251 0 -424 168 -425 417v2c0 249 173 419 425 419h1c107 0 193 -30 267 -77l-61 -135c-69 42 -133 59 -198 59h-1c-140 0 -262 -83 -262 -266v-2c1 -182 122 -264 261 -264h1c66 0 130 16 199 58l61 -135c-72 -45 -156 -76 -267 -76h-1z" />
    <glyph glyph-name="Cacute" unicode="&#x106;" horiz-adv-x="779" 
d="M369 876l144 140h185l-173 -140h-156zM468 -13c-251 0 -424 168 -425 417v2c0 249 173 419 425 419h1c107 0 193 -30 267 -77l-61 -135c-69 42 -133 59 -198 59h-1c-140 0 -262 -83 -262 -266v-2c1 -182 122 -264 261 -264h1c66 0 130 16 199 58l61 -135
c-72 -45 -156 -76 -267 -76h-1z" />
    <glyph glyph-name="Ccaron" unicode="&#x10c;" horiz-adv-x="779" 
d="M390 870l-162 152h154l86 -87l86 87h154l-161 -152h-157zM468 -13c-251 0 -424 168 -425 417v2c0 249 173 419 425 419h1c107 0 193 -30 267 -77l-61 -135c-69 42 -133 59 -198 59h-1c-140 0 -262 -83 -262 -266v-2c1 -182 122 -264 261 -264h1c66 0 130 16 199 58
l61 -135c-72 -45 -156 -76 -267 -76h-1z" />
    <glyph glyph-name="Ccedilla" unicode="&#xc7;" horiz-adv-x="779" 
d="M736 63c-67 -42 -145 -72 -245 -76l-27 -36h9c48 0 109 -19 109 -78c-1 -66 -61 -93 -133 -93c-32 0 -58 3 -88 13l-5 60c20 -6 62 -16 89 -16c36 0 66 8 66 33c1 25 -29 33 -67 33c-26 0 -57 -5 -75 -10l-3 4l62 91c-229 17 -384 180 -385 416v2c0 249 173 419 425 419
h1c107 0 193 -30 267 -77l-61 -135c-69 42 -133 59 -198 59h-1c-140 0 -262 -83 -262 -266v-2c1 -182 122 -264 261 -264h1c66 0 130 16 199 58z" />
    <glyph glyph-name="Ccircumflex" unicode="&#x108;" horiz-adv-x="779" 
d="M257 872l138 140h149l135 -140h-158l-52 60l-54 -60h-158zM468 -13c-251 0 -424 168 -425 417v2c0 249 173 419 425 419h1c107 0 193 -30 267 -77l-61 -135c-69 42 -133 59 -198 59h-1c-140 0 -262 -83 -262 -266v-2c1 -182 122 -264 261 -264h1c66 0 130 16 199 58
l61 -135c-72 -45 -156 -76 -267 -76h-1z" />
    <glyph glyph-name="Cdotaccent" unicode="&#x10a;" horiz-adv-x="779" 
d="M468 870c-47 0 -89 27 -89 81c0 48 39 79 89 79s89 -31 89 -79c0 -54 -43 -81 -89 -81zM468 -13c-251 0 -424 168 -425 417v2c0 249 173 419 425 419h1c107 0 193 -30 267 -77l-61 -135c-69 42 -133 59 -198 59h-1c-140 0 -262 -83 -262 -266v-2
c1 -182 122 -264 261 -264h1c66 0 130 16 199 58l61 -135c-72 -45 -156 -76 -267 -76h-1z" />
    <glyph glyph-name="D" unicode="D" horiz-adv-x="844" 
d="M340 811c282 0 455 -153 455 -400v-1c-1 -254 -174 -410 -455 -410h-247v811h247zM624 410v1c0 164 -92 253 -264 253h-110v-517h110c172 0 264 92 264 263z" />
    <glyph glyph-name="Eth" unicode="&#xd0;" horiz-adv-x="844" 
d="M340 811c282 0 455 -153 455 -400v-1c-1 -254 -174 -410 -455 -410h-247v361h-99v124h99v326h247zM624 410v1c0 164 -92 253 -264 253h-110v-179h104v-124h-104v-214h110c172 0 264 92 264 263z" />
    <glyph glyph-name="Dcaron" unicode="&#x10e;" horiz-adv-x="844" 
d="M501 870h-157l-162 152h154l86 -87l86 87h154zM340 811c282 0 455 -153 455 -400v-1c-1 -254 -174 -410 -455 -410h-247v811h247zM624 410v1c0 164 -92 253 -264 253h-110v-517h110c172 0 264 92 264 263z" />
    <glyph glyph-name="Dcroat" unicode="&#x110;" horiz-adv-x="844" 
d="M340 811c282 0 455 -153 455 -400v-1c-1 -254 -174 -410 -455 -410h-247v361h-99v124h99v326h247zM624 410v1c0 164 -92 253 -264 253h-110v-179h104v-124h-104v-214h110c172 0 264 92 264 263z" />
    <glyph glyph-name="E" unicode="E" horiz-adv-x="613" 
d="M66 0v811h508v-146h-351v-177h317v-146h-317v-195h353v-147h-510z" />
    <glyph glyph-name="Eacute" unicode="&#xc9;" horiz-adv-x="613" 
d="M223 876l144 140h185l-173 -140h-156zM66 0v811h508v-146h-351v-177h317v-146h-317v-195h353v-147h-510z" />
    <glyph glyph-name="Ebreve" unicode="&#x114;" horiz-adv-x="613" 
d="M325 867c-104 0 -184 38 -194 152h108c7 -47 28 -75 86 -75s79 28 87 75h108c-10 -114 -90 -152 -195 -152zM66 0v811h508v-146h-351v-177h317v-146h-317v-195h353v-147h-510z" />
    <glyph glyph-name="Ecaron" unicode="&#x11a;" horiz-adv-x="613" 
d="M244 870l-162 152h154l86 -87l86 87h154l-161 -152h-157zM66 0v811h508v-146h-351v-177h317v-146h-317v-195h353v-147h-510z" />
    <glyph glyph-name="Ecircumflex" unicode="&#xca;" horiz-adv-x="613" 
d="M111 872l138 140h149l135 -140h-158l-52 60l-54 -60h-158zM66 0v811h508v-146h-351v-177h317v-146h-317v-195h353v-147h-510z" />
    <glyph glyph-name="Edieresis" unicode="&#xcb;" horiz-adv-x="613" 
d="M213 870c-44 0 -85 25 -85 76c0 45 38 75 85 75s84 -30 84 -75c0 -51 -40 -76 -84 -76zM430 870c-44 0 -85 25 -85 76c1 45 38 75 85 75s84 -30 84 -75c0 -51 -40 -76 -84 -76zM66 0v811h508v-146h-351v-177h317v-146h-317v-195h353v-147h-510z" />
    <glyph glyph-name="Edotaccent" unicode="&#x116;" horiz-adv-x="613" 
d="M322 870c-47 0 -89 27 -89 81c0 48 39 79 89 79s89 -31 89 -79c0 -54 -43 -81 -89 -81zM66 0v811h508v-146h-351v-177h317v-146h-317v-195h353v-147h-510z" />
    <glyph glyph-name="Egrave" unicode="&#xc8;" horiz-adv-x="613" 
d="M305 870l-166 152h188l82 -152h-104zM66 0v811h508v-146h-351v-177h317v-146h-317v-195h353v-147h-510z" />
    <glyph glyph-name="Emacron" unicode="&#x112;" horiz-adv-x="613" 
d="M161 870v97h322v-97h-322zM66 0v811h508v-146h-351v-177h317v-146h-317v-195h353v-147h-510z" />
    <glyph glyph-name="Eogonek" unicode="&#x118;" horiz-adv-x="613" 
d="M539 -144c17 0 33 3 45 6v-71c-17 -3 -52 -8 -83 -8c-86 0 -175 23 -174 103c1 45 37 84 89 114h-350v811h508v-146h-351v-177h317v-146h-317v-195h353v-147c-70 -33 -112 -57 -113 -96c-1 -35 35 -48 76 -48z" />
    <glyph glyph-name="uni1EBC" unicode="&#x1ebc;" horiz-adv-x="613" 
d="M121 866c3 86 26 143 111 143c61 0 103 -40 151 -40c22 0 30 12 36 39h106c-3 -86 -24 -142 -110 -142c-60 0 -105 39 -151 39c-23 0 -32 -11 -37 -39h-106zM66 0v811h508v-146h-351v-177h317v-146h-317v-195h353v-147h-510z" />
    <glyph glyph-name="F" unicode="F" horiz-adv-x="681" 
d="M93 0v811h520v-147h-363v-176h328v-147h-328v-341h-157z" />
    <glyph glyph-name="G" unicode="G" horiz-adv-x="818" 
d="M405 446h369v-379c-79 -51 -204 -80 -306 -80c-252 0 -424 172 -425 419v1c0 248 173 418 426 418c104 0 194 -24 292 -77l-61 -143c-60 42 -137 67 -224 67c-140 0 -263 -83 -263 -265v-1c1 -181 123 -266 263 -266c55 0 104 12 150 38v123h-221v145z" />
    <glyph glyph-name="Gbreve" unicode="&#x11e;" horiz-adv-x="818" 
d="M453 867c-104 0 -184 38 -194 152h108c7 -47 28 -75 86 -75s79 28 87 75h108c-10 -114 -90 -152 -195 -152zM405 446h369v-379c-79 -51 -204 -80 -306 -80c-252 0 -424 172 -425 419v1c0 248 173 418 426 418c104 0 194 -24 292 -77l-61 -143c-60 42 -137 67 -224 67
c-140 0 -263 -83 -263 -265v-1c1 -181 123 -266 263 -266c55 0 104 12 150 38v123h-221v145z" />
    <glyph glyph-name="Gcircumflex" unicode="&#x11c;" horiz-adv-x="818" 
d="M451 932l-54 -60h-158l138 140h149l135 -140h-158zM405 446h369v-379c-79 -51 -204 -80 -306 -80c-252 0 -424 172 -425 419v1c0 248 173 418 426 418c104 0 194 -24 292 -77l-61 -143c-60 42 -137 67 -224 67c-140 0 -263 -83 -263 -265v-1c1 -181 123 -266 263 -266
c55 0 104 12 150 38v123h-221v145z" />
    <glyph glyph-name="Gcommaaccent" unicode="&#x122;" horiz-adv-x="818" 
d="M405 446h369v-379c-79 -51 -204 -80 -306 -80c-252 0 -424 172 -425 419v1c0 248 173 418 426 418c104 0 194 -24 292 -77l-61 -143c-60 42 -137 67 -224 67c-140 0 -263 -83 -263 -265v-1c1 -181 123 -266 263 -266c55 0 104 12 150 38v123h-221v145zM338 -220l62 175
h144l-99 -175h-107z" />
    <glyph glyph-name="Gdotaccent" unicode="&#x120;" horiz-adv-x="818" 
d="M450 870c-47 0 -89 27 -89 81c0 48 39 79 89 79s89 -31 89 -79c0 -54 -43 -81 -89 -81zM405 446h369v-379c-79 -51 -204 -80 -306 -80c-252 0 -424 172 -425 419v1c0 248 173 418 426 418c104 0 194 -24 292 -77l-61 -143c-60 42 -137 67 -224 67
c-140 0 -263 -83 -263 -265v-1c1 -181 123 -266 263 -266c55 0 104 12 150 38v123h-221v145z" />
    <glyph glyph-name="H" unicode="H" horiz-adv-x="852" 
d="M93 0v811h157v-323h352v323h157v-811h-157v340h-352v-340h-157z" />
    <glyph glyph-name="Hbar" unicode="&#x126;" horiz-adv-x="852" 
d="M823 724v-135h-64v-589h-157v340h-352v-340h-157v589h-64v135h64v87h157v-87h352v87h157v-87h64zM602 488v101h-352v-101h352z" />
    <glyph glyph-name="Hcircumflex" unicode="&#x124;" horiz-adv-x="852" 
d="M215 872l138 140h149l135 -140h-158l-52 60l-54 -60h-158zM93 0v811h157v-323h352v323h157v-811h-157v340h-352v-340h-157z" />
    <glyph glyph-name="I" unicode="I" horiz-adv-x="342" 
d="M93 0v811h157v-811h-157z" />
    <glyph glyph-name="IJ" unicode="&#x132;" horiz-adv-x="875" 
d="M93 0v811h157v-811h-157zM558 -13c-90 0 -166 23 -210 48l57 135c37 -18 76 -29 118 -29c63 0 103 33 103 122v548h157v-566c0 -172 -78 -258 -225 -258z" />
    <glyph glyph-name="Iacute" unicode="&#xcd;" horiz-adv-x="342" 
d="M73 876l144 140h185l-173 -140h-156zM93 0v811h157v-811h-157z" />
    <glyph glyph-name="Ibreve" unicode="&#x12c;" horiz-adv-x="342" 
d="M175 867c-104 0 -184 38 -194 152h108c7 -47 28 -75 86 -75s79 28 87 75h108c-10 -114 -90 -152 -195 -152zM93 0v811h157v-811h-157z" />
    <glyph glyph-name="uni01CF" unicode="&#x1cf;" horiz-adv-x="342" 
d="M94 870l-162 152h154l86 -87l86 87h154l-161 -152h-157zM93 0v811h157v-811h-157z" />
    <glyph glyph-name="Icircumflex" unicode="&#xce;" horiz-adv-x="342" 
d="M-39 872l138 140h149l135 -140h-158l-52 60l-54 -60h-158zM93 0v811h157v-811h-157z" />
    <glyph glyph-name="Idieresis" unicode="&#xcf;" horiz-adv-x="342" 
d="M63 870c-44 0 -85 25 -85 76c0 45 38 75 85 75s84 -30 84 -75c0 -51 -40 -76 -84 -76zM280 870c-44 0 -85 25 -85 76c1 45 38 75 85 75s84 -30 84 -75c0 -51 -40 -76 -84 -76zM93 0v811h157v-811h-157z" />
    <glyph glyph-name="Idotaccent" unicode="&#x130;" horiz-adv-x="342" 
d="M172 870c-47 0 -89 27 -89 81c0 48 39 79 89 79s89 -31 89 -79c0 -54 -43 -81 -89 -81zM93 0v811h157v-811h-157z" />
    <glyph glyph-name="uni1ECA" unicode="&#x1eca;" horiz-adv-x="342" 
d="M93 0v811h157v-811h-157zM174 -204c-49 0 -92 27 -92 82c0 49 40 81 92 81c50 0 91 -32 91 -81c0 -55 -44 -82 -91 -82z" />
    <glyph glyph-name="Igrave" unicode="&#xcc;" horiz-adv-x="342" 
d="M155 870l-166 152h188l82 -152h-104zM93 0v811h157v-811h-157z" />
    <glyph glyph-name="Imacron" unicode="&#x12a;" horiz-adv-x="342" 
d="M11 870v97h322v-97h-322zM93 0v811h157v-811h-157z" />
    <glyph glyph-name="Iogonek" unicode="&#x12e;" horiz-adv-x="342" 
d="M216 -156c16 0 32 3 44 5v-70c-17 -3 -52 -8 -83 -8c-89 0 -175 26 -174 108c0 59 35 93 90 123v809h157v-811c-71 -33 -112 -60 -112 -103c0 -38 33 -53 78 -53z" />
    <glyph glyph-name="Itilde" unicode="&#x128;" horiz-adv-x="342" 
d="M-29 866c3 86 26 143 111 143c61 0 103 -40 151 -40c22 0 30 12 36 39h106c-3 -86 -24 -142 -110 -142c-60 0 -105 39 -151 39c-23 0 -32 -11 -37 -39h-106zM93 0v811h157v-811h-157z" />
    <glyph glyph-name="J" unicode="J" horiz-adv-x="533" 
d="M216 -13c-90 0 -166 23 -210 48l57 135c37 -18 76 -29 118 -29c63 0 103 33 103 122v548h157v-566c0 -172 -78 -258 -225 -258z" />
    <glyph glyph-name="Jcircumflex" unicode="&#x134;" horiz-adv-x="533" 
d="M156 872l138 140h149l135 -140h-158l-52 60l-54 -60h-158zM216 -13c-90 0 -166 23 -210 48l57 135c37 -18 76 -29 118 -29c63 0 103 33 103 122v548h157v-566c0 -172 -78 -258 -225 -258z" />
    <glyph glyph-name="K" unicode="K" horiz-adv-x="771" 
d="M414 408l336 -408h-186l-314 392v-392h-157v811h157v-394l303 394h181z" />
    <glyph glyph-name="Kcommaaccent" unicode="&#x136;" horiz-adv-x="771" 
d="M414 408l336 -408h-186l-314 392v-392h-157v811h157v-394l303 394h181zM247 -220l62 175h144l-99 -175h-107z" />
    <glyph glyph-name="L" unicode="L" horiz-adv-x="678" 
d="M93 0v811h157v-664h356v-147h-513z" />
    <glyph glyph-name="Lacute" unicode="&#x139;" horiz-adv-x="678" 
d="M76 876l144 140h185l-173 -140h-156zM93 0v811h157v-664h356v-147h-513z" />
    <glyph glyph-name="Lcaron" unicode="&#x13d;" horiz-adv-x="678" 
d="M93 0v811h157v-664h356v-147h-513zM307 569l41 242h130l-80 -242h-91z" />
    <glyph glyph-name="Lcommaaccent" unicode="&#x13b;" horiz-adv-x="678" 
d="M93 0v811h157v-664h356v-147h-513zM220 -220l62 175h144l-99 -175h-107z" />
    <glyph glyph-name="Ldot" unicode="&#x13f;" horiz-adv-x="678" 
d="M93 0v811h157v-664h356v-147h-513zM447 371c-49 0 -92 27 -92 82c0 49 40 81 92 81c50 0 91 -32 91 -81c0 -55 -44 -82 -91 -82z" />
    <glyph glyph-name="uni1E36" unicode="&#x1e36;" horiz-adv-x="678" 
d="M93 0v811h157v-664h356v-147h-513zM359 -204c-49 0 -92 27 -92 82c0 49 40 81 92 81c50 0 91 -32 91 -81c0 -55 -44 -82 -91 -82z" />
    <glyph glyph-name="Lslash" unicode="&#x141;" horiz-adv-x="678" 
d="M250 147h356v-147h-513v344l-76 -42l-42 92l118 65v352h157v-266l81 45l43 -91l-124 -68v-284z" />
    <glyph glyph-name="M" unicode="M" horiz-adv-x="1009" 
d="M717 811h199v-811h-156v547l-7 -25l-175 -522h-147l-177 522l-5 19v-541h-156v811h198l194 -559l20 -83l19 83z" />
    <glyph glyph-name="N" unicode="N" horiz-adv-x="873" 
d="M623 811h157v-811h-180l-351 573v-573h-156v811h179l351 -573v573z" />
    <glyph glyph-name="Nacute" unicode="&#x143;" horiz-adv-x="873" 
d="M647 1016l-173 -140h-156l144 140h185zM623 811h157v-811h-180l-351 573v-573h-156v811h179l351 -573v573z" />
    <glyph glyph-name="Ncaron" unicode="&#x147;" horiz-adv-x="873" 
d="M496 870h-157l-162 152h154l86 -87l86 87h154zM623 811h157v-811h-180l-351 573v-573h-156v811h179l351 -573v573z" />
    <glyph glyph-name="Ncommaaccent" unicode="&#x145;" horiz-adv-x="873" 
d="M623 811h157v-811h-180l-351 573v-573h-156v811h179l351 -573v573zM298 -220l62 175h144l-99 -175h-107z" />
    <glyph glyph-name="Eng" unicode="&#x14a;" horiz-adv-x="833" 
d="M584 811h156v-751c0 -227 -52 -291 -232 -291c-15 0 -29 2 -44 4l-25 146c28 -8 45 -9 66 -9c55 0 79 32 79 123v11l-335 613v-657h-156v811h209l282 -516v516z" />
    <glyph glyph-name="Ntilde" unicode="&#xd1;" horiz-adv-x="873" 
d="M359 905c-23 0 -32 -11 -37 -39h-106c3 86 26 143 111 143c61 0 103 -40 151 -40c22 0 30 12 36 39h106c-3 -86 -24 -142 -110 -142c-60 0 -105 39 -151 39zM623 811h157v-811h-180l-351 573v-573h-156v811h179l351 -573v573z" />
    <glyph glyph-name="O" unicode="O" horiz-adv-x="912" 
d="M456 -13c-252 0 -412 190 -413 420v1c0 231 160 417 413 417h1c252 0 412 -186 412 -417v-1c-1 -230 -161 -420 -412 -420h-1zM456 140h1c150 0 253 117 254 267v2c0 152 -103 263 -254 263h-1c-153 0 -255 -111 -255 -263v-2c1 -150 104 -267 255 -267z" />
    <glyph glyph-name="Oacute" unicode="&#xd3;" horiz-adv-x="912" 
d="M352 876l144 140h185l-173 -140h-156zM456 -13c-252 0 -412 190 -413 420v1c0 231 160 417 413 417h1c252 0 412 -186 412 -417v-1c-1 -230 -161 -420 -412 -420h-1zM456 140h1c150 0 253 117 254 267v2c0 152 -103 263 -254 263h-1c-153 0 -255 -111 -255 -263v-2
c1 -150 104 -267 255 -267z" />
    <glyph glyph-name="Obreve" unicode="&#x14e;" horiz-adv-x="912" 
d="M454 867c-104 0 -184 38 -194 152h108c7 -47 28 -75 86 -75s79 28 87 75h108c-10 -114 -90 -152 -195 -152zM456 -13c-252 0 -412 190 -413 420v1c0 231 160 417 413 417h1c252 0 412 -186 412 -417v-1c-1 -230 -161 -420 -412 -420h-1zM456 140h1c150 0 253 117 254 267
v2c0 152 -103 263 -254 263h-1c-153 0 -255 -111 -255 -263v-2c1 -150 104 -267 255 -267z" />
    <glyph glyph-name="uni01D1" unicode="&#x1d1;" horiz-adv-x="912" 
d="M373 870l-162 152h154l86 -87l86 87h154l-161 -152h-157zM456 -13c-252 0 -412 190 -413 420v1c0 231 160 417 413 417h1c252 0 412 -186 412 -417v-1c-1 -230 -161 -420 -412 -420h-1zM456 140h1c150 0 253 117 254 267v2c0 152 -103 263 -254 263h-1
c-153 0 -255 -111 -255 -263v-2c1 -150 104 -267 255 -267z" />
    <glyph glyph-name="Ocircumflex" unicode="&#xd4;" horiz-adv-x="912" 
d="M240 872l138 140h149l135 -140h-158l-52 60l-54 -60h-158zM456 -13c-252 0 -412 190 -413 420v1c0 231 160 417 413 417h1c252 0 412 -186 412 -417v-1c-1 -230 -161 -420 -412 -420h-1zM456 140h1c150 0 253 117 254 267v2c0 152 -103 263 -254 263h-1
c-153 0 -255 -111 -255 -263v-2c1 -150 104 -267 255 -267z" />
    <glyph glyph-name="Odieresis" unicode="&#xd6;" horiz-adv-x="912" 
d="M342 870c-44 0 -85 25 -85 76c0 45 38 75 85 75s84 -30 84 -75c0 -51 -40 -76 -84 -76zM559 870c-44 0 -85 25 -85 76c1 45 38 75 85 75s84 -30 84 -75c0 -51 -40 -76 -84 -76zM456 -13c-252 0 -412 190 -413 420v1c0 231 160 417 413 417h1c252 0 412 -186 412 -417v-1
c-1 -230 -161 -420 -412 -420h-1zM456 140h1c150 0 253 117 254 267v2c0 152 -103 263 -254 263h-1c-153 0 -255 -111 -255 -263v-2c1 -150 104 -267 255 -267z" />
    <glyph glyph-name="uni1ECC" unicode="&#x1ecc;" horiz-adv-x="912" 
d="M456 -13c-252 0 -412 190 -413 420v1c0 231 160 417 413 417h1c252 0 412 -186 412 -417v-1c-1 -230 -161 -420 -412 -420h-1zM456 140h1c150 0 253 117 254 267v2c0 152 -103 263 -254 263h-1c-153 0 -255 -111 -255 -263v-2c1 -150 104 -267 255 -267zM456 -227
c-49 0 -92 27 -92 82c0 49 40 81 92 81c50 0 91 -32 91 -81c0 -55 -44 -82 -91 -82z" />
    <glyph glyph-name="Ograve" unicode="&#xd2;" horiz-adv-x="912" 
d="M434 870l-166 152h188l82 -152h-104zM456 -13c-252 0 -412 190 -413 420v1c0 231 160 417 413 417h1c252 0 412 -186 412 -417v-1c-1 -230 -161 -420 -412 -420h-1zM456 140h1c150 0 253 117 254 267v2c0 152 -103 263 -254 263h-1c-153 0 -255 -111 -255 -263v-2
c1 -150 104 -267 255 -267z" />
    <glyph glyph-name="Ohungarumlaut" unicode="&#x150;" horiz-adv-x="912" 
d="M275 880l115 140h185l-144 -140h-156zM515 880l115 140h185l-144 -140h-156zM456 -13c-252 0 -412 190 -413 420v1c0 231 160 417 413 417h1c252 0 412 -186 412 -417v-1c-1 -230 -161 -420 -412 -420h-1zM456 140h1c150 0 253 117 254 267v2c0 152 -103 263 -254 263h-1
c-153 0 -255 -111 -255 -263v-2c1 -150 104 -267 255 -267z" />
    <glyph glyph-name="Omacron" unicode="&#x14c;" horiz-adv-x="912" 
d="M290 870v97h322v-97h-322zM456 -13c-252 0 -412 190 -413 420v1c0 231 160 417 413 417h1c252 0 412 -186 412 -417v-1c-1 -230 -161 -420 -412 -420h-1zM456 140h1c150 0 253 117 254 267v2c0 152 -103 263 -254 263h-1c-153 0 -255 -111 -255 -263v-2
c1 -150 104 -267 255 -267z" />
    <glyph glyph-name="Oslash" unicode="&#xd8;" horiz-adv-x="912" 
d="M879 815l-107 -128c62 -74 97 -172 97 -279v-1c-1 -230 -161 -420 -412 -420h-1c-84 0 -157 21 -218 57l-75 -90l-142 54l110 132c-56 72 -88 166 -88 267v1c0 231 160 417 413 417h1c78 0 147 -18 206 -49l75 90zM201 407c0 -52 13 -100 36 -141l323 387
c-31 12 -66 19 -103 19h-1c-153 0 -255 -111 -255 -263v-2zM711 409c0 58 -15 111 -42 153l-329 -395c34 -17 73 -27 116 -27h1c150 0 253 117 254 267v2z" />
    <glyph glyph-name="Otilde" unicode="&#xd5;" horiz-adv-x="912" 
d="M250 866c3 86 26 143 111 143c61 0 103 -40 151 -40c22 0 30 12 36 39h106c-3 -86 -24 -142 -110 -142c-60 0 -105 39 -151 39c-23 0 -32 -11 -37 -39h-106zM456 -13c-252 0 -412 190 -413 420v1c0 231 160 417 413 417h1c252 0 412 -186 412 -417v-1
c-1 -230 -161 -420 -412 -420h-1zM456 140h1c150 0 253 117 254 267v2c0 152 -103 263 -254 263h-1c-153 0 -255 -111 -255 -263v-2c1 -150 104 -267 255 -267z" />
    <glyph glyph-name="OE" unicode="&#x152;" horiz-adv-x="1258" 
d="M868 147h353v-147h-510v69c-67 -51 -153 -82 -254 -82h-1c-252 0 -412 190 -413 420v1c0 231 160 417 413 417h1c101 0 187 -30 254 -80v66h508v-146h-351v-177h317v-146h-317v-195zM457 140c150 0 253 117 254 267v2c0 152 -103 263 -254 263h-1
c-153 0 -255 -111 -255 -263v-2c1 -150 104 -267 255 -267h1z" />
    <glyph glyph-name="P" unicode="P" horiz-adv-x="729" 
d="M397 811c213 0 289 -122 289 -255v-1c-1 -155 -97 -267 -288 -267h-148v-288h-157v811h304zM528 551v1c0 82 -50 112 -142 112h-136v-229h136c103 0 142 41 142 116z" />
    <glyph glyph-name="Thorn" unicode="&#xde;" horiz-adv-x="709" 
d="M377 665c213 0 289 -122 289 -255c-1 -156 -97 -268 -288 -268h-143v-142h-158v811h158v-146h142zM366 289c103 0 142 41 142 117c0 82 -50 112 -142 112h-131v-229h131z" />
    <glyph glyph-name="Q" unicode="Q" horiz-adv-x="912" 
d="M869 408v-1c0 -112 -38 -214 -106 -289l105 -105l-105 -105l-120 120c-54 -26 -117 -41 -186 -41h-1c-252 0 -412 190 -413 420v1c0 231 160 417 413 417h1c252 0 412 -186 412 -417zM538 342l113 -112c38 46 60 108 60 177v2c0 152 -103 263 -254 263h-1
c-153 0 -255 -111 -255 -263v-2c1 -150 104 -267 255 -267h1c23 0 45 3 65 8l-89 89z" />
    <glyph glyph-name="R" unicode="R" horiz-adv-x="769" 
d="M553 0l-189 318h-114v-318h-157v811h320c212 0 289 -104 289 -240v-1c0 -114 -59 -205 -178 -238l202 -332h-173zM250 665v-209h173c76 0 121 37 121 108v1c0 69 -45 100 -121 100h-173z" />
    <glyph glyph-name="Racute" unicode="&#x154;" horiz-adv-x="769" 
d="M610 1016l-173 -140h-156l144 140h185zM553 0l-189 318h-114v-318h-157v811h320c212 0 289 -104 289 -240v-1c0 -114 -59 -205 -178 -238l202 -332h-173zM250 665v-209h173c76 0 121 37 121 108v1c0 69 -45 100 -121 100h-173z" />
    <glyph glyph-name="Rcaron" unicode="&#x158;" horiz-adv-x="769" 
d="M459 870h-157l-162 152h154l86 -87l86 87h154zM553 0l-189 318h-114v-318h-157v811h320c212 0 289 -104 289 -240v-1c0 -114 -59 -205 -178 -238l202 -332h-173zM250 665v-209h173c76 0 121 37 121 108v1c0 69 -45 100 -121 100h-173z" />
    <glyph glyph-name="Rcommaaccent" unicode="&#x156;" horiz-adv-x="769" 
d="M524 332l202 -332h-173l-189 318h-114v-318h-157v811h320c212 0 289 -104 289 -240v-1c0 -114 -59 -205 -178 -238zM250 665v-209h173c76 0 121 37 121 108v1c0 69 -45 100 -121 100h-173zM260 -220l62 175h144l-99 -175h-107z" />
    <glyph glyph-name="S" unicode="S" horiz-adv-x="727" 
d="M354 -13c-116 0 -227 27 -299 75l60 131c60 -41 145 -65 233 -65c107 0 163 38 163 97v2c0 52 -40 77 -146 109c-24 7 -48 13 -72 20c-147 41 -212 115 -212 241v2c1 135 110 226 294 226c105 0 210 -26 279 -71l-60 -131c-59 39 -139 61 -218 61
c-94 0 -137 -34 -137 -82v-2c0 -58 36 -81 111 -104c22 -6 53 -15 76 -21c174 -48 244 -122 244 -246v-2c-1 -152 -121 -240 -316 -240z" />
    <glyph glyph-name="Sacute" unicode="&#x15a;" horiz-adv-x="727" 
d="M265 876l144 140h185l-173 -140h-156zM354 -13c-116 0 -227 27 -299 75l60 131c60 -41 145 -65 233 -65c107 0 163 38 163 97v2c0 52 -40 77 -146 109c-24 7 -48 13 -72 20c-147 41 -212 115 -212 241v2c1 135 110 226 294 226c105 0 210 -26 279 -71l-60 -131
c-59 39 -139 61 -218 61c-94 0 -137 -34 -137 -82v-2c0 -58 36 -81 111 -104c22 -6 53 -15 76 -21c174 -48 244 -122 244 -246v-2c-1 -152 -121 -240 -316 -240z" />
    <glyph glyph-name="Scaron" unicode="&#x160;" horiz-adv-x="727" 
d="M286 870l-162 152h154l86 -87l86 87h154l-161 -152h-157zM354 -13c-116 0 -227 27 -299 75l60 131c60 -41 145 -65 233 -65c107 0 163 38 163 97v2c0 52 -40 77 -146 109c-24 7 -48 13 -72 20c-147 41 -212 115 -212 241v2c1 135 110 226 294 226c105 0 210 -26 279 -71
l-60 -131c-59 39 -139 61 -218 61c-94 0 -137 -34 -137 -82v-2c0 -58 36 -81 111 -104c22 -6 53 -15 76 -21c174 -48 244 -122 244 -246v-2c-1 -152 -121 -240 -316 -240z" />
    <glyph glyph-name="Scedilla" unicode="&#x15e;" horiz-adv-x="727" 
d="M426 475c174 -48 244 -122 244 -246v-2c-1 -142 -106 -228 -279 -239l-27 -37h9c48 0 109 -19 109 -78c-1 -66 -61 -93 -133 -93c-32 0 -58 3 -88 13l-5 60c20 -6 62 -16 89 -16c36 0 66 8 66 33c1 25 -29 33 -67 33c-26 0 -57 -5 -75 -10l-3 4l61 90
c-106 4 -206 31 -272 75l60 131c60 -41 145 -65 233 -65c107 0 163 38 163 97v2c0 52 -40 77 -146 109c-24 7 -48 13 -72 20c-147 41 -212 115 -212 241v2c1 135 110 226 294 226c105 0 210 -26 279 -71l-60 -131c-59 39 -139 61 -218 61c-94 0 -137 -34 -137 -82v-2
c0 -58 36 -81 111 -104c22 -6 53 -15 76 -21z" />
    <glyph glyph-name="Scircumflex" unicode="&#x15c;" horiz-adv-x="727" 
d="M153 872l138 140h149l135 -140h-158l-52 60l-54 -60h-158zM354 -13c-116 0 -227 27 -299 75l60 131c60 -41 145 -65 233 -65c107 0 163 38 163 97v2c0 52 -40 77 -146 109c-24 7 -48 13 -72 20c-147 41 -212 115 -212 241v2c1 135 110 226 294 226c105 0 210 -26 279 -71
l-60 -131c-59 39 -139 61 -218 61c-94 0 -137 -34 -137 -82v-2c0 -58 36 -81 111 -104c22 -6 53 -15 76 -21c174 -48 244 -122 244 -246v-2c-1 -152 -121 -240 -316 -240z" />
    <glyph glyph-name="Scommaaccent" unicode="&#x218;" horiz-adv-x="727" 
d="M354 -13c-116 0 -227 27 -299 75l60 131c60 -41 145 -65 233 -65c107 0 163 38 163 97v2c0 52 -40 77 -146 109c-24 7 -48 13 -72 20c-147 41 -212 115 -212 241v2c1 135 110 226 294 226c105 0 210 -26 279 -71l-60 -131c-59 39 -139 61 -218 61
c-94 0 -137 -34 -137 -82v-2c0 -58 36 -81 111 -104c22 -6 53 -15 76 -21c174 -48 244 -122 244 -246v-2c-1 -152 -121 -240 -316 -240zM230 -220l62 175h144l-99 -175h-107z" />
    <glyph glyph-name="uni018F" unicode="&#x18f;" horiz-adv-x="854" 
d="M415 827c238 0 379 -155 379 -418v-1c-1 -264 -135 -421 -361 -421h-1c-233 0 -372 142 -372 383v89h573c-15 137 -97 216 -226 216h-1c-76 0 -163 -22 -232 -59l-60 134c85 49 198 77 300 77h1zM434 140c102 0 168 59 192 166h-402c22 -105 97 -166 209 -166h1z" />
    <glyph glyph-name="T" unicode="T" horiz-adv-x="721" 
d="M282 0v664h-257v147h672v-147h-258v-664h-157z" />
    <glyph glyph-name="Tbar" unicode="&#x166;" horiz-adv-x="721" 
d="M697 664h-258v-124h102v-124h-102v-416h-157v416h-101v124h101v124h-257v147h672v-147z" />
    <glyph glyph-name="Tcaron" unicode="&#x164;" horiz-adv-x="721" 
d="M283 870l-162 152h154l86 -87l86 87h154l-161 -152h-157zM282 0v664h-257v147h672v-147h-258v-664h-157z" />
    <glyph glyph-name="uni0162" unicode="&#x162;" horiz-adv-x="721" 
d="M439 0h-46l-36 -49h9c48 0 109 -19 109 -78c-1 -66 -61 -93 -133 -93c-32 0 -58 3 -88 13l-5 60c20 -6 62 -16 89 -16c36 0 66 8 66 33c1 25 -29 33 -67 33c-26 0 -57 -5 -75 -10l-3 4l70 103h-47v664h-257v147h672v-147h-258v-664z" />
    <glyph glyph-name="uni021A" unicode="&#x21a;" horiz-adv-x="721" 
d="M282 0v664h-257v147h672v-147h-258v-664h-157zM223 -220l62 175h144l-99 -175h-107z" />
    <glyph glyph-name="U" unicode="U" horiz-adv-x="880" 
d="M440 -13c-244 0 -347 125 -347 329v495h157v-455c0 -147 51 -216 190 -216c140 0 191 69 191 216v455h157v-495c0 -204 -103 -329 -348 -329z" />
    <glyph glyph-name="Uacute" unicode="&#xda;" horiz-adv-x="880" 
d="M341 876l144 140h185l-173 -140h-156zM440 -13c-244 0 -347 125 -347 329v495h157v-455c0 -147 51 -216 190 -216c140 0 191 69 191 216v455h157v-495c0 -204 -103 -329 -348 -329z" />
    <glyph glyph-name="Ubreve" unicode="&#x16c;" horiz-adv-x="880" 
d="M443 867c-104 0 -184 38 -194 152h108c7 -47 28 -75 86 -75s79 28 87 75h108c-10 -114 -90 -152 -195 -152zM440 -13c-244 0 -347 125 -347 329v495h157v-455c0 -147 51 -216 190 -216c140 0 191 69 191 216v455h157v-495c0 -204 -103 -329 -348 -329z" />
    <glyph glyph-name="uni01D3" unicode="&#x1d3;" horiz-adv-x="880" 
d="M362 870l-162 152h154l86 -87l86 87h154l-161 -152h-157zM440 -13c-244 0 -347 125 -347 329v495h157v-455c0 -147 51 -216 190 -216c140 0 191 69 191 216v455h157v-495c0 -204 -103 -329 -348 -329z" />
    <glyph glyph-name="Ucircumflex" unicode="&#xdb;" horiz-adv-x="880" 
d="M229 872l138 140h149l135 -140h-158l-52 60l-54 -60h-158zM440 -13c-244 0 -347 125 -347 329v495h157v-455c0 -147 51 -216 190 -216c140 0 191 69 191 216v455h157v-495c0 -204 -103 -329 -348 -329z" />
    <glyph glyph-name="Udieresis" unicode="&#xdc;" horiz-adv-x="880" 
d="M331 870c-44 0 -85 25 -85 76c0 45 38 75 85 75s84 -30 84 -75c0 -51 -40 -76 -84 -76zM548 870c-44 0 -85 25 -85 76c1 45 38 75 85 75s84 -30 84 -75c0 -51 -40 -76 -84 -76zM440 -13c-244 0 -347 125 -347 329v495h157v-455c0 -147 51 -216 190 -216
c140 0 191 69 191 216v455h157v-495c0 -204 -103 -329 -348 -329z" />
    <glyph glyph-name="uni1EE4" unicode="&#x1ee4;" horiz-adv-x="880" 
d="M440 -13c-244 0 -347 125 -347 329v495h157v-455c0 -147 51 -216 190 -216c140 0 191 69 191 216v455h157v-495c0 -204 -103 -329 -348 -329zM440 -223c-49 0 -92 27 -92 82c0 49 40 81 92 81c50 0 91 -32 91 -81c0 -55 -44 -82 -91 -82z" />
    <glyph glyph-name="Ugrave" unicode="&#xd9;" horiz-adv-x="880" 
d="M423 870l-166 152h188l82 -152h-104zM440 -13c-244 0 -347 125 -347 329v495h157v-455c0 -147 51 -216 190 -216c140 0 191 69 191 216v455h157v-495c0 -204 -103 -329 -348 -329z" />
    <glyph glyph-name="Uhungarumlaut" unicode="&#x170;" horiz-adv-x="880" 
d="M264 880l115 140h185l-144 -140h-156zM504 880l115 140h185l-144 -140h-156zM440 -13c-244 0 -347 125 -347 329v495h157v-455c0 -147 51 -216 190 -216c140 0 191 69 191 216v455h157v-495c0 -204 -103 -329 -348 -329z" />
    <glyph glyph-name="Umacron" unicode="&#x16a;" horiz-adv-x="880" 
d="M279 870v97h322v-97h-322zM440 -13c-244 0 -347 125 -347 329v495h157v-455c0 -147 51 -216 190 -216c140 0 191 69 191 216v455h157v-495c0 -204 -103 -329 -348 -329z" />
    <glyph glyph-name="Uogonek" unicode="&#x172;" horiz-adv-x="880" 
d="M631 811h157v-495c0 -175 -76 -292 -251 -321c-66 -32 -105 -55 -106 -93c-1 -35 35 -48 76 -48c17 0 33 3 45 6v-71c-17 -3 -52 -8 -83 -8c-86 0 -175 23 -174 103c1 42 31 78 76 107c-194 22 -278 141 -278 325v495h157v-455c0 -147 51 -216 190 -216
c140 0 191 69 191 216v455z" />
    <glyph glyph-name="Uring" unicode="&#x16e;" horiz-adv-x="880" 
d="M442 867c-66 0 -121 53 -121 120s53 119 121 119c67 0 121 -54 121 -120c0 -68 -53 -119 -121 -119zM442 941c28 0 47 19 47 46c0 25 -19 46 -47 46c-27 0 -48 -21 -47 -46c-1 -27 20 -46 47 -46zM440 -13c-244 0 -347 125 -347 329v495h157v-455
c0 -147 51 -216 190 -216c140 0 191 69 191 216v455h157v-495c0 -204 -103 -329 -348 -329z" />
    <glyph glyph-name="Utilde" unicode="&#x168;" horiz-adv-x="880" 
d="M239 866c3 86 26 143 111 143c61 0 103 -40 151 -40c22 0 30 12 36 39h106c-3 -86 -24 -142 -110 -142c-60 0 -105 39 -151 39c-23 0 -32 -11 -37 -39h-106zM440 -13c-244 0 -347 125 -347 329v495h157v-455c0 -147 51 -216 190 -216c140 0 191 69 191 216v455h157v-495
c0 -204 -103 -329 -348 -329z" />
    <glyph glyph-name="V" unicode="V" horiz-adv-x="783" 
d="M592 811h169l-257 -811h-227l-255 811h169l200 -659z" />
    <glyph glyph-name="W" unicode="W" horiz-adv-x="1071" 
d="M880 811h163l-182 -811h-217l-108 619l-108 -619h-218l-182 811h164l132 -643l109 643h206l109 -643z" />
    <glyph glyph-name="Wacute" unicode="&#x1e82;" horiz-adv-x="1071" 
d="M766 1016l-173 -140h-156l144 140h185zM880 811h163l-182 -811h-217l-108 619l-108 -619h-218l-182 811h164l132 -643l109 643h206l109 -643z" />
    <glyph glyph-name="Wcircumflex" unicode="&#x174;" horiz-adv-x="1071" 
d="M537 932l-54 -60h-158l138 140h149l135 -140h-158zM880 811h163l-182 -811h-217l-108 619l-108 -619h-218l-182 811h164l132 -643l109 643h206l109 -643z" />
    <glyph glyph-name="Wdieresis" unicode="&#x1e84;" horiz-adv-x="1071" 
d="M427 870c-44 0 -85 25 -85 76c0 45 38 75 85 75s84 -30 84 -75c0 -51 -40 -76 -84 -76zM644 870c-44 0 -85 25 -85 76c1 45 38 75 85 75s84 -30 84 -75c0 -51 -40 -76 -84 -76zM880 811h163l-182 -811h-217l-108 619l-108 -619h-218l-182 811h164l132 -643l109 643h206
l109 -643z" />
    <glyph glyph-name="Wgrave" unicode="&#x1e80;" horiz-adv-x="1071" 
d="M623 870h-104l-166 152h188zM880 811h163l-182 -811h-217l-108 619l-108 -619h-218l-182 811h164l132 -643l109 643h206l109 -643z" />
    <glyph glyph-name="X" unicode="X" horiz-adv-x="806" 
d="M21 0l290 410l-281 401h185l190 -276l193 276h178l-281 -396l289 -415h-184l-201 291l-204 -291h-174z" />
    <glyph glyph-name="Y" unicode="Y" horiz-adv-x="788" 
d="M596 811h177l-300 -506v-305h-158v305l-300 506h177l202 -359z" />
    <glyph glyph-name="Yacute" unicode="&#xdd;" horiz-adv-x="788" 
d="M624 1016l-173 -140h-156l144 140h185zM596 811h177l-300 -506v-305h-158v305l-300 506h177l202 -359z" />
    <glyph glyph-name="Ycircumflex" unicode="&#x176;" horiz-adv-x="788" 
d="M395 932l-54 -60h-158l138 140h149l135 -140h-158zM596 811h177l-300 -506v-305h-158v305l-300 506h177l202 -359z" />
    <glyph glyph-name="Ydieresis" unicode="&#x178;" horiz-adv-x="788" 
d="M285 870c-44 0 -85 25 -85 76c0 45 38 75 85 75s84 -30 84 -75c0 -51 -40 -76 -84 -76zM502 870c-44 0 -85 25 -85 76c1 45 38 75 85 75s84 -30 84 -75c0 -51 -40 -76 -84 -76zM596 811h177l-300 -506v-305h-158v305l-300 506h177l202 -359z" />
    <glyph glyph-name="Ygrave" unicode="&#x1ef2;" horiz-adv-x="788" 
d="M481 870h-104l-166 152h188zM596 811h177l-300 -506v-305h-158v305l-300 506h177l202 -359z" />
    <glyph glyph-name="uni0232" unicode="&#x232;" horiz-adv-x="788" 
d="M555 967v-97h-322v97h322zM596 811h177l-300 -506v-305h-158v305l-300 506h177l202 -359z" />
    <glyph glyph-name="uni1EF8" unicode="&#x1ef8;" horiz-adv-x="788" 
d="M336 905c-23 0 -32 -11 -37 -39h-106c3 86 26 143 111 143c61 0 103 -40 151 -40c22 0 30 12 36 39h106c-3 -86 -24 -142 -110 -142c-60 0 -105 39 -151 39zM596 811h177l-300 -506v-305h-158v305l-300 506h177l202 -359z" />
    <glyph glyph-name="Z" unicode="Z" horiz-adv-x="730" 
d="M243 147h435v-147h-629v147l431 517h-405v147h600v-146z" />
    <glyph glyph-name="Zacute" unicode="&#x179;" horiz-adv-x="730" 
d="M605 1016l-173 -140h-156l144 140h185zM243 147h435v-147h-629v147l431 517h-405v147h600v-146z" />
    <glyph glyph-name="Zcaron" unicode="&#x17d;" horiz-adv-x="730" 
d="M454 870h-157l-162 152h154l86 -87l86 87h154zM243 147h435v-147h-629v147l431 517h-405v147h600v-146z" />
    <glyph glyph-name="Zdotaccent" unicode="&#x17b;" horiz-adv-x="730" 
d="M375 870c-47 0 -89 27 -89 81c0 48 39 79 89 79s89 -31 89 -79c0 -54 -43 -81 -89 -81zM243 147h435v-147h-629v147l431 517h-405v147h600v-146z" />
    <glyph glyph-name="a" unicode="a" horiz-adv-x="635" 
d="M307 593c147 0 262 -63 262 -228v-341c-70 -18 -176 -34 -267 -34c-179 0 -273 68 -273 199c0 124 88 188 256 188c39 0 82 -3 128 -8c-3 55 -54 85 -141 85c-52 0 -133 -10 -197 -36l38 145c41 16 121 30 194 30zM188 192c0 -43 36 -64 116 -64c29 0 87 4 109 10v105
c-24 4 -73 9 -109 9c-80 0 -116 -19 -116 -60z" />
    <glyph glyph-name="aacute" unicode="&#xe1;" horiz-adv-x="635" 
d="M543 796l-173 -140h-156l144 140h185zM307 593c147 0 262 -63 262 -228v-341c-70 -18 -176 -34 -267 -34c-179 0 -273 68 -273 199c0 124 88 188 256 188c39 0 82 -3 128 -8c-3 55 -54 85 -141 85c-52 0 -133 -10 -197 -36l38 145c41 16 121 30 194 30zM188 192
c0 -43 36 -64 116 -64c29 0 87 4 109 10v105c-24 4 -73 9 -109 9c-80 0 -116 -19 -116 -60z" />
    <glyph glyph-name="abreve" unicode="&#x103;" horiz-adv-x="635" 
d="M316 647c-104 0 -184 38 -194 152h108c7 -47 28 -75 86 -75s79 28 87 75h108c-10 -114 -90 -152 -195 -152zM307 593c147 0 262 -63 262 -228v-341c-70 -18 -176 -34 -267 -34c-179 0 -273 68 -273 199c0 124 88 188 256 188c39 0 82 -3 128 -8c-3 55 -54 85 -141 85
c-52 0 -133 -10 -197 -36l38 145c41 16 121 30 194 30zM188 192c0 -43 36 -64 116 -64c29 0 87 4 109 10v105c-24 4 -73 9 -109 9c-80 0 -116 -19 -116 -60z" />
    <glyph glyph-name="uni01CE" unicode="&#x1ce;" horiz-adv-x="635" 
d="M392 650h-157l-162 152h154l86 -87l86 87h154zM307 593c147 0 262 -63 262 -228v-341c-70 -18 -176 -34 -267 -34c-179 0 -273 68 -273 199c0 124 88 188 256 188c39 0 82 -3 128 -8c-3 55 -54 85 -141 85c-52 0 -133 -10 -197 -36l38 145c41 16 121 30 194 30zM188 192
c0 -43 36 -64 116 -64c29 0 87 4 109 10v105c-24 4 -73 9 -109 9c-80 0 -116 -19 -116 -60z" />
    <glyph glyph-name="acircumflex" unicode="&#xe2;" horiz-adv-x="635" 
d="M314 712l-54 -60h-158l138 140h149l135 -140h-158zM307 593c147 0 262 -63 262 -228v-341c-70 -18 -176 -34 -267 -34c-179 0 -273 68 -273 199c0 124 88 188 256 188c39 0 82 -3 128 -8c-3 55 -54 85 -141 85c-52 0 -133 -10 -197 -36l38 145c41 16 121 30 194 30z
M188 192c0 -43 36 -64 116 -64c29 0 87 4 109 10v105c-24 4 -73 9 -109 9c-80 0 -116 -19 -116 -60z" />
    <glyph glyph-name="adieresis" unicode="&#xe4;" horiz-adv-x="635" 
d="M204 650c-44 0 -85 25 -85 76c0 45 38 75 85 75s84 -30 84 -75c0 -51 -40 -76 -84 -76zM421 650c-44 0 -85 25 -85 76c1 45 38 75 85 75s84 -30 84 -75c0 -51 -40 -76 -84 -76zM307 593c147 0 262 -63 262 -228v-341c-70 -18 -176 -34 -267 -34c-179 0 -273 68 -273 199
c0 124 88 188 256 188c39 0 82 -3 128 -8c-3 55 -54 85 -141 85c-52 0 -133 -10 -197 -36l38 145c41 16 121 30 194 30zM188 192c0 -43 36 -64 116 -64c29 0 87 4 109 10v105c-24 4 -73 9 -109 9c-80 0 -116 -19 -116 -60z" />
    <glyph glyph-name="agrave" unicode="&#xe0;" horiz-adv-x="635" 
d="M400 650h-104l-166 152h188zM307 593c147 0 262 -63 262 -228v-341c-70 -18 -176 -34 -267 -34c-179 0 -273 68 -273 199c0 124 88 188 256 188c39 0 82 -3 128 -8c-3 55 -54 85 -141 85c-52 0 -133 -10 -197 -36l38 145c41 16 121 30 194 30zM188 192
c0 -43 36 -64 116 -64c29 0 87 4 109 10v105c-24 4 -73 9 -109 9c-80 0 -116 -19 -116 -60z" />
    <glyph glyph-name="amacron" unicode="&#x101;" horiz-adv-x="635" 
d="M474 747v-97h-322v97h322zM307 593c147 0 262 -63 262 -228v-341c-70 -18 -176 -34 -267 -34c-179 0 -273 68 -273 199c0 124 88 188 256 188c39 0 82 -3 128 -8c-3 55 -54 85 -141 85c-52 0 -133 -10 -197 -36l38 145c41 16 121 30 194 30zM188 192
c0 -43 36 -64 116 -64c29 0 87 4 109 10v105c-24 4 -73 9 -109 9c-80 0 -116 -19 -116 -60z" />
    <glyph glyph-name="aogonek" unicode="&#x105;" horiz-adv-x="635" 
d="M532 -119c17 0 33 3 45 6v-71c-17 -3 -52 -8 -83 -8c-86 0 -175 23 -174 103c1 30 17 57 42 81c-20 -1 -40 -2 -60 -2c-179 0 -273 68 -273 199c0 124 88 188 256 188c39 0 82 -3 128 -8c-3 55 -54 85 -141 85c-52 0 -133 -10 -197 -36l38 145c41 16 121 30 194 30
c147 0 262 -63 262 -228v-341c-2 0 -3 -1 -5 -1c-67 -32 -107 -56 -108 -94c-1 -35 35 -48 76 -48zM188 192c0 -43 36 -64 116 -64c29 0 87 4 109 10v105c-24 4 -73 9 -109 9c-80 0 -116 -19 -116 -60z" />
    <glyph glyph-name="aring" unicode="&#xe5;" horiz-adv-x="635" 
d="M315 647c-66 0 -121 53 -121 120s53 119 121 119c67 0 121 -54 121 -120c0 -68 -53 -119 -121 -119zM315 813c-27 0 -48 -21 -47 -46c-1 -27 20 -46 47 -46c28 0 47 19 47 46c0 25 -19 46 -47 46zM307 593c147 0 262 -63 262 -228v-341c-70 -18 -176 -34 -267 -34
c-179 0 -273 68 -273 199c0 124 88 188 256 188c39 0 82 -3 128 -8c-3 55 -54 85 -141 85c-52 0 -133 -10 -197 -36l38 145c41 16 121 30 194 30zM188 192c0 -43 36 -64 116 -64c29 0 87 4 109 10v105c-24 4 -73 9 -109 9c-80 0 -116 -19 -116 -60z" />
    <glyph glyph-name="atilde" unicode="&#xe3;" horiz-adv-x="635" 
d="M255 685c-23 0 -32 -11 -37 -39h-106c3 86 26 143 111 143c61 0 103 -40 151 -40c22 0 30 12 36 39h106c-3 -86 -24 -142 -110 -142c-60 0 -105 39 -151 39zM307 593c147 0 262 -63 262 -228v-341c-70 -18 -176 -34 -267 -34c-179 0 -273 68 -273 199
c0 124 88 188 256 188c39 0 82 -3 128 -8c-3 55 -54 85 -141 85c-52 0 -133 -10 -197 -36l38 145c41 16 121 30 194 30zM188 192c0 -43 36 -64 116 -64c29 0 87 4 109 10v105c-24 4 -73 9 -109 9c-80 0 -116 -19 -116 -60z" />
    <glyph glyph-name="ae" unicode="&#xe6;" horiz-adv-x="1023" 
d="M991 305c0 -17 0 -58 -1 -74h-412c21 -67 73 -105 152 -105c65 0 131 17 171 41l66 -122c-59 -32 -143 -57 -248 -57c-58 0 -111 12 -154 35c-70 -18 -174 -33 -263 -33c-179 0 -273 68 -273 199c0 124 88 188 256 188c39 0 82 -3 128 -8c-3 55 -54 85 -141 85
c-52 0 -133 -10 -197 -36l38 145c41 16 121 30 194 30c82 0 155 -20 202 -66c51 45 120 70 201 70c169 0 281 -117 281 -292zM707 459c-72 0 -114 -34 -130 -94h260c-10 59 -57 94 -130 94zM188 192c0 -43 36 -64 116 -64c29 0 87 4 109 10v105c-24 4 -73 9 -109 9
c-80 0 -116 -19 -116 -60z" />
    <glyph glyph-name="b" unicode="b" horiz-adv-x="670" 
d="M325 586c192 0 317 -111 317 -303v-1c0 -189 -120 -305 -317 -305c-80 0 -174 19 -248 44v790h158v-231c32 4 62 6 90 6zM490 281v2c0 93 -57 160 -160 160c-29 0 -60 -4 -95 -11v-306c31 -5 68 -6 94 -6c100 0 161 64 161 161z" />
    <glyph glyph-name="c" unicode="c" horiz-adv-x="563" 
d="M346 -13c-192 0 -311 117 -312 305v1c1 182 126 303 312 303c72 0 143 -15 200 -43l-62 -133c-42 19 -85 29 -136 29c-95 0 -153 -60 -155 -156v-2c1 -97 60 -157 156 -157c52 0 101 11 136 31l61 -134c-57 -28 -129 -44 -200 -44z" />
    <glyph glyph-name="cacute" unicode="&#x107;" horiz-adv-x="563" 
d="M246 654l144 140h185l-173 -140h-156zM346 -13c-192 0 -311 117 -312 305v1c1 182 126 303 312 303c72 0 143 -15 200 -43l-62 -133c-42 19 -85 29 -136 29c-95 0 -153 -60 -155 -156v-2c1 -97 60 -157 156 -157c52 0 101 11 136 31l61 -134c-57 -28 -129 -44 -200 -44z
" />
    <glyph glyph-name="ccaron" unicode="&#x10d;" horiz-adv-x="563" 
d="M267 648l-162 152h154l86 -87l86 87h154l-161 -152h-157zM346 -13c-192 0 -311 117 -312 305v1c1 182 126 303 312 303c72 0 143 -15 200 -43l-62 -133c-42 19 -85 29 -136 29c-95 0 -153 -60 -155 -156v-2c1 -97 60 -157 156 -157c52 0 101 11 136 31l61 -134
c-57 -28 -129 -44 -200 -44z" />
    <glyph glyph-name="ccedilla" unicode="&#xe7;" horiz-adv-x="563" 
d="M546 31c-48 -23 -106 -39 -166 -43l-27 -37h9c48 0 109 -19 109 -78c-1 -66 -61 -93 -133 -93c-32 0 -58 3 -88 13l-5 60c20 -6 62 -16 89 -16c36 0 66 8 66 33c1 25 -29 33 -67 33c-26 0 -57 -5 -75 -10l-3 4l62 91c-175 11 -282 126 -283 304v1c1 182 126 303 312 303
c72 0 143 -15 200 -43l-62 -133c-42 19 -85 29 -136 29c-95 0 -153 -60 -155 -156v-2c1 -97 60 -157 156 -157c52 0 101 11 136 31z" />
    <glyph glyph-name="ccircumflex" unicode="&#x109;" horiz-adv-x="563" 
d="M134 650l138 140h149l135 -140h-158l-52 60l-54 -60h-158zM346 -13c-192 0 -311 117 -312 305v1c1 182 126 303 312 303c72 0 143 -15 200 -43l-62 -133c-42 19 -85 29 -136 29c-95 0 -153 -60 -155 -156v-2c1 -97 60 -157 156 -157c52 0 101 11 136 31l61 -134
c-57 -28 -129 -44 -200 -44z" />
    <glyph glyph-name="cdotaccent" unicode="&#x10b;" horiz-adv-x="563" 
d="M345 648c-47 0 -89 27 -89 81c0 48 39 79 89 79s89 -31 89 -79c0 -54 -43 -81 -89 -81zM346 -13c-192 0 -311 117 -312 305v1c1 182 126 303 312 303c72 0 143 -15 200 -43l-62 -133c-42 19 -85 29 -136 29c-95 0 -153 -60 -155 -156v-2c1 -97 60 -157 156 -157
c52 0 101 11 136 31l61 -134c-57 -28 -129 -44 -200 -44z" />
    <glyph glyph-name="d" unicode="d" horiz-adv-x="670" 
d="M435 811h158v-790c-74 -25 -168 -44 -248 -44c-197 0 -317 116 -317 305v1c0 192 125 303 317 303c28 0 58 -2 90 -6v231zM341 120c26 0 63 1 94 6v306c-35 7 -66 11 -95 11c-103 0 -160 -67 -160 -160v-2c0 -97 61 -161 161 -161z" />
    <glyph glyph-name="eth" unicode="&#xf0;" horiz-adv-x="695" 
d="M589 496c48 -53 77 -124 77 -206v-1c0 -177 -136 -302 -320 -303h-1c-179 0 -315 126 -316 303v1c0 174 131 301 304 307l-29 38l-106 -35l-50 87l92 31l-69 90h177l33 -43l93 31l51 -88l-80 -26zM507 289v1c0 90 -63 159 -159 160h-1c-96 0 -159 -70 -159 -160v-1
c0 -88 63 -157 159 -157h1c96 0 159 69 159 157z" />
    <glyph glyph-name="dcaron" unicode="&#x10f;" horiz-adv-x="800" 
d="M435 580v231h158v-790c-74 -25 -168 -44 -248 -44c-197 0 -317 116 -317 305v1c0 192 125 303 317 303c28 0 58 -2 90 -6zM689 811h130l-80 -173h-91zM341 120c26 0 63 1 94 6v306c-35 7 -66 11 -95 11c-103 0 -160 -67 -160 -160v-2c0 -97 61 -161 161 -161z" />
    <glyph glyph-name="dcroat" unicode="&#x111;" horiz-adv-x="670" 
d="M693 779v-124h-100v-634c-74 -25 -168 -44 -248 -44c-197 0 -317 116 -317 305v1c0 192 125 303 317 303c28 0 58 -2 90 -6v75h-102v124h102v32h158v-32h100zM341 120c26 0 63 1 94 6v306c-35 7 -66 11 -95 11c-103 0 -160 -67 -160 -160v-2c0 -97 61 -161 161 -161z" />
    <glyph glyph-name="e" unicode="e" horiz-adv-x="640" 
d="M608 305c0 -17 0 -58 -1 -74h-412c21 -67 73 -105 152 -105c65 0 131 17 171 41l66 -122c-59 -32 -143 -57 -248 -57c-184 0 -306 122 -306 304c0 183 119 305 297 305c169 0 281 -117 281 -292zM324 459c-72 0 -114 -34 -130 -94h260c-10 59 -57 94 -130 94z" />
    <glyph glyph-name="eacute" unicode="&#xe9;" horiz-adv-x="640" 
d="M557 805l-173 -140h-156l144 140h185zM608 305c0 -17 0 -58 -1 -74h-412c21 -67 73 -105 152 -105c65 0 131 17 171 41l66 -122c-59 -32 -143 -57 -248 -57c-184 0 -306 122 -306 304c0 183 119 305 297 305c169 0 281 -117 281 -292zM324 459c-72 0 -114 -34 -130 -94
h260c-10 59 -57 94 -130 94z" />
    <glyph glyph-name="ebreve" unicode="&#x115;" horiz-adv-x="640" 
d="M330 656c-104 0 -184 38 -194 152h108c7 -47 28 -75 86 -75s79 28 87 75h108c-10 -114 -90 -152 -195 -152zM608 305c0 -17 0 -58 -1 -74h-412c21 -67 73 -105 152 -105c65 0 131 17 171 41l66 -122c-59 -32 -143 -57 -248 -57c-184 0 -306 122 -306 304
c0 183 119 305 297 305c169 0 281 -117 281 -292zM324 459c-72 0 -114 -34 -130 -94h260c-10 59 -57 94 -130 94z" />
    <glyph glyph-name="ecaron" unicode="&#x11b;" horiz-adv-x="640" 
d="M406 659h-157l-162 152h154l86 -87l86 87h154zM608 305c0 -17 0 -58 -1 -74h-412c21 -67 73 -105 152 -105c65 0 131 17 171 41l66 -122c-59 -32 -143 -57 -248 -57c-184 0 -306 122 -306 304c0 183 119 305 297 305c169 0 281 -117 281 -292zM324 459
c-72 0 -114 -34 -130 -94h260c-10 59 -57 94 -130 94z" />
    <glyph glyph-name="ecircumflex" unicode="&#xea;" horiz-adv-x="640" 
d="M328 721l-54 -60h-158l138 140h149l135 -140h-158zM608 305c0 -17 0 -58 -1 -74h-412c21 -67 73 -105 152 -105c65 0 131 17 171 41l66 -122c-59 -32 -143 -57 -248 -57c-184 0 -306 122 -306 304c0 183 119 305 297 305c169 0 281 -117 281 -292zM324 459
c-72 0 -114 -34 -130 -94h260c-10 59 -57 94 -130 94z" />
    <glyph glyph-name="edieresis" unicode="&#xeb;" horiz-adv-x="640" 
d="M218 659c-44 0 -85 25 -85 76c0 45 38 75 85 75s84 -30 84 -75c0 -51 -40 -76 -84 -76zM435 659c-44 0 -85 25 -85 76c1 45 38 75 85 75s84 -30 84 -75c0 -51 -40 -76 -84 -76zM608 305c0 -17 0 -58 -1 -74h-412c21 -67 73 -105 152 -105c65 0 131 17 171 41l66 -122
c-59 -32 -143 -57 -248 -57c-184 0 -306 122 -306 304c0 183 119 305 297 305c169 0 281 -117 281 -292zM324 459c-72 0 -114 -34 -130 -94h260c-10 59 -57 94 -130 94z" />
    <glyph glyph-name="edotaccent" unicode="&#x117;" horiz-adv-x="640" 
d="M327 659c-47 0 -89 27 -89 81c0 48 39 79 89 79s89 -31 89 -79c0 -54 -43 -81 -89 -81zM608 305c0 -17 0 -58 -1 -74h-412c21 -67 73 -105 152 -105c65 0 131 17 171 41l66 -122c-59 -32 -143 -57 -248 -57c-184 0 -306 122 -306 304c0 183 119 305 297 305
c169 0 281 -117 281 -292zM324 459c-72 0 -114 -34 -130 -94h260c-10 59 -57 94 -130 94z" />
    <glyph glyph-name="egrave" unicode="&#xe8;" horiz-adv-x="640" 
d="M414 659h-104l-166 152h188zM608 305c0 -17 0 -58 -1 -74h-412c21 -67 73 -105 152 -105c65 0 131 17 171 41l66 -122c-59 -32 -143 -57 -248 -57c-184 0 -306 122 -306 304c0 183 119 305 297 305c169 0 281 -117 281 -292zM324 459c-72 0 -114 -34 -130 -94h260
c-10 59 -57 94 -130 94z" />
    <glyph glyph-name="emacron" unicode="&#x113;" horiz-adv-x="640" 
d="M488 756v-97h-322v97h322zM608 305c0 -17 0 -58 -1 -74h-412c21 -67 73 -105 152 -105c65 0 131 17 171 41l66 -122c-59 -32 -143 -57 -248 -57c-184 0 -306 122 -306 304c0 183 119 305 297 305c169 0 281 -117 281 -292zM324 459c-72 0 -114 -34 -130 -94h260
c-10 59 -57 94 -130 94z" />
    <glyph glyph-name="eogonek" unicode="&#x119;" horiz-adv-x="640" 
d="M608 305c0 -17 0 -58 -1 -74h-412c21 -67 73 -105 152 -105c65 0 131 17 171 41l66 -122c-10 -5 -20 -10 -32 -15c-50 -26 -80 -48 -81 -81c-1 -35 35 -48 76 -48c17 0 33 3 45 6v-71c-17 -3 -52 -8 -83 -8c-86 0 -175 23 -174 103c0 21 8 40 21 57h-20
c-184 0 -306 122 -306 304c0 183 119 305 297 305c169 0 281 -117 281 -292zM324 459c-72 0 -114 -34 -130 -94h260c-10 59 -57 94 -130 94z" />
    <glyph glyph-name="uni1EBD" unicode="&#x1ebd;" horiz-adv-x="640" 
d="M269 694c-23 0 -32 -11 -37 -39h-106c3 86 26 143 111 143c61 0 103 -40 151 -40c22 0 30 12 36 39h106c-3 -86 -24 -142 -110 -142c-60 0 -105 39 -151 39zM608 305c0 -17 0 -58 -1 -74h-412c21 -67 73 -105 152 -105c65 0 131 17 171 41l66 -122
c-59 -32 -143 -57 -248 -57c-184 0 -306 122 -306 304c0 183 119 305 297 305c169 0 281 -117 281 -292zM324 459c-72 0 -114 -34 -130 -94h260c-10 59 -57 94 -130 94z" />
    <glyph glyph-name="uni0259" unicode="&#x259;" horiz-adv-x="650" 
d="M312 595c184 0 306 -122 306 -304c0 -183 -119 -305 -297 -305c-169 0 -281 117 -281 292c0 17 0 58 1 74h412c-21 67 -73 105 -152 105c-65 0 -131 -17 -171 -41l-66 122c59 32 143 57 248 57zM324 124c72 0 114 34 130 94h-260c10 -59 57 -94 130 -94z" />
    <glyph glyph-name="f" unicode="f" horiz-adv-x="537" 
d="M123 0v427h-101v147h101v55c0 141 64 182 236 182h134v-133h-112c-72 0 -100 -19 -100 -76v-28h210v-147h-210v-427h-158z" />
    <glyph glyph-name="g" unicode="g" horiz-adv-x="664" 
d="M348 591c58 0 157 -10 258 -31v-569c0 -149 -67 -219 -266 -219c-65 0 -149 12 -205 26l-37 145c70 -20 159 -33 221 -33c102 0 134 19 134 98v17c-33 -3 -65 -4 -93 -4h-3c-219 0 -328 111 -328 290v1c0 170 127 279 318 279h1zM447 183v242c-32 9 -60 13 -88 13h-1
c-99 0 -167 -37 -167 -132v-1c0 -89 67 -130 170 -130h3c24 0 58 2 83 8z" />
    <glyph glyph-name="gbreve" unicode="&#x11f;" horiz-adv-x="664" 
d="M377 645c-104 0 -184 38 -194 152h108c7 -47 28 -75 86 -75s79 28 87 75h108c-10 -114 -90 -152 -195 -152zM348 591c58 0 157 -10 258 -31v-569c0 -149 -67 -219 -266 -219c-65 0 -149 12 -205 26l-37 145c70 -20 159 -33 221 -33c102 0 134 19 134 98v17
c-33 -3 -65 -4 -93 -4h-3c-219 0 -328 111 -328 290v1c0 170 127 279 318 279h1zM447 183v242c-32 9 -60 13 -88 13h-1c-99 0 -167 -37 -167 -132v-1c0 -89 67 -130 170 -130h3c24 0 58 2 83 8z" />
    <glyph glyph-name="gcircumflex" unicode="&#x11d;" horiz-adv-x="664" 
d="M375 710l-54 -60h-158l138 140h149l135 -140h-158zM348 591c58 0 157 -10 258 -31v-569c0 -149 -67 -219 -266 -219c-65 0 -149 12 -205 26l-37 145c70 -20 159 -33 221 -33c102 0 134 19 134 98v17c-33 -3 -65 -4 -93 -4h-3c-219 0 -328 111 -328 290v1
c0 170 127 279 318 279h1zM447 183v242c-32 9 -60 13 -88 13h-1c-99 0 -167 -37 -167 -132v-1c0 -89 67 -130 170 -130h3c24 0 58 2 83 8z" />
    <glyph glyph-name="gcommaaccent" unicode="&#x123;" horiz-adv-x="664" 
d="M348 591c58 0 157 -10 258 -31v-569c0 -149 -67 -219 -266 -219c-65 0 -149 12 -205 26l-37 145c70 -20 159 -33 221 -33c102 0 134 19 134 98v17c-33 -3 -65 -4 -93 -4h-3c-219 0 -328 111 -328 290v1c0 170 127 279 318 279h1zM447 183v242c-32 9 -60 13 -88 13h-1
c-99 0 -167 -37 -167 -132v-1c0 -89 67 -130 170 -130h3c24 0 58 2 83 8zM223 -452l62 175h144l-99 -175h-107z" />
    <glyph glyph-name="gdotaccent" unicode="&#x121;" horiz-adv-x="664" 
d="M374 648c-47 0 -89 27 -89 81c0 48 39 79 89 79s89 -31 89 -79c0 -54 -43 -81 -89 -81zM348 591c58 0 157 -10 258 -31v-569c0 -149 -67 -219 -266 -219c-65 0 -149 12 -205 26l-37 145c70 -20 159 -33 221 -33c102 0 134 19 134 98v17c-33 -3 -65 -4 -93 -4h-3
c-219 0 -328 111 -328 290v1c0 170 127 279 318 279h1zM447 183v242c-32 9 -60 13 -88 13h-1c-99 0 -167 -37 -167 -132v-1c0 -89 67 -130 170 -130h3c24 0 58 2 83 8z" />
    <glyph glyph-name="h" unicode="h" horiz-adv-x="686" 
d="M343 591c142 0 266 -49 266 -222v-369h-158v338c0 73 -40 99 -115 99c-27 0 -64 -3 -101 -10v-427h-158v811h158v-227c43 4 81 7 108 7z" />
    <glyph glyph-name="hbar" unicode="&#x127;" horiz-adv-x="686" 
d="M343 591c142 0 266 -49 266 -222v-369h-158v338c0 73 -40 99 -115 99c-27 0 -64 -3 -101 -10v-427h-158v655h-104v124h104v32h158v-32h98v-124h-98v-71c43 4 81 7 108 7z" />
    <glyph glyph-name="hcircumflex" unicode="&#x125;" horiz-adv-x="686" 
d="M158 948l-54 -60h-158l138 140h149l135 -140h-158zM343 591c142 0 266 -49 266 -222v-369h-158v338c0 73 -40 99 -115 99c-27 0 -64 -3 -101 -10v-427h-158v811h158v-227c43 4 81 7 108 7z" />
    <glyph glyph-name="i" unicode="i" horiz-adv-x="312" 
d="M156 648c-47 0 -89 27 -89 81c0 48 39 79 89 79s89 -31 89 -79c0 -54 -43 -81 -89 -81zM77 0v574h158v-574h-158z" />
    <glyph glyph-name="dotlessi" unicode="&#x131;" horiz-adv-x="312" 
d="M77 0v574h158v-574h-158z" />
    <glyph glyph-name="iacute" unicode="&#xed;" horiz-adv-x="312" 
d="M57 654l144 140h185l-173 -140h-156zM77 0v574h158v-574h-158z" />
    <glyph glyph-name="ibreve" unicode="&#x12d;" horiz-adv-x="312" 
d="M159 645c-104 0 -184 38 -194 152h108c7 -47 28 -75 86 -75s79 28 87 75h108c-10 -114 -90 -152 -195 -152zM77 0v574h158v-574h-158z" />
    <glyph glyph-name="uni01D0" unicode="&#x1d0;" horiz-adv-x="312" 
d="M78 648l-162 152h154l86 -87l86 87h154l-161 -152h-157zM77 0v574h158v-574h-158z" />
    <glyph glyph-name="icircumflex" unicode="&#xee;" horiz-adv-x="312" 
d="M-55 650l138 140h149l135 -140h-158l-52 60l-54 -60h-158zM77 0v574h158v-574h-158z" />
    <glyph glyph-name="idieresis" unicode="&#xef;" horiz-adv-x="312" 
d="M47 648c-44 0 -85 25 -85 76c0 45 38 75 85 75s84 -30 84 -75c0 -51 -40 -76 -84 -76zM264 648c-44 0 -85 25 -85 76c1 45 38 75 85 75s84 -30 84 -75c0 -51 -40 -76 -84 -76zM77 0v574h158v-574h-158z" />
    <glyph glyph-name="i.loclTRK" horiz-adv-x="312" 
d="M156 648c-47 0 -89 27 -89 81c0 48 39 79 89 79s89 -31 89 -79c0 -54 -43 -81 -89 -81zM77 0v574h158v-574h-158z" />
    <glyph glyph-name="uni1ECB" unicode="&#x1ecb;" horiz-adv-x="312" 
d="M156 648c-47 0 -89 27 -89 81c0 48 39 79 89 79s89 -31 89 -79c0 -54 -43 -81 -89 -81zM77 0v574h158v-574h-158zM160 -223c-49 0 -92 27 -92 82c0 49 40 81 92 81c50 0 91 -32 91 -81c0 -55 -44 -82 -91 -82z" />
    <glyph glyph-name="igrave" unicode="&#xec;" horiz-adv-x="312" 
d="M139 648l-166 152h188l82 -152h-104zM77 0v574h158v-574h-158z" />
    <glyph glyph-name="ij" unicode="&#x133;" horiz-adv-x="655" 
d="M156 648c-47 0 -89 27 -89 81c0 48 39 79 89 79s89 -31 89 -79c0 -54 -43 -81 -89 -81zM499 647c-47 0 -89 27 -89 81c0 48 39 79 89 79s89 -31 89 -79c0 -54 -43 -81 -89 -81zM77 0v574h158v-574h-158zM369 -231c-22 0 -51 4 -69 9l-25 141c20 -5 48 -9 65 -9
c59 0 79 26 79 105v559h159v-540c0 -204 -49 -265 -209 -265z" />
    <glyph glyph-name="imacron" unicode="&#x12b;" horiz-adv-x="312" 
d="M-5 648v97h322v-97h-322zM77 0v574h158v-574h-158z" />
    <glyph glyph-name="iogonek" unicode="&#x12f;" horiz-adv-x="312" 
d="M156 648c-47 0 -89 27 -89 81c0 48 39 79 89 79s89 -31 89 -79c0 -54 -43 -81 -89 -81zM122 -96c-1 -35 35 -48 76 -48c17 0 33 3 45 6v-71c-17 -3 -52 -8 -83 -8c-86 0 -175 23 -174 103c1 46 38 86 91 115v573h158v-574c-70 -33 -112 -57 -113 -96z" />
    <glyph glyph-name="itilde" unicode="&#x129;" horiz-adv-x="312" 
d="M-45 644c3 86 26 143 111 143c61 0 103 -40 151 -40c22 0 30 12 36 39h106c-3 -86 -24 -142 -110 -142c-60 0 -105 39 -151 39c-23 0 -32 -11 -37 -39h-106zM77 0v574h158v-574h-158z" />
    <glyph glyph-name="j" unicode="j" horiz-adv-x="343" 
d="M186 648c-47 0 -89 27 -89 81c0 48 39 79 89 79s89 -31 89 -79c0 -54 -43 -81 -89 -81zM57 -231c-22 0 -51 4 -69 9l-25 141c20 -5 48 -9 65 -9c59 0 79 26 79 105v559h159v-540c0 -204 -49 -265 -209 -265z" />
    <glyph glyph-name="j.alt" horiz-adv-x="343" 
d="M186 648c-47 0 -89 27 -89 81c0 48 39 79 89 79s89 -31 89 -79c0 -54 -43 -81 -89 -81zM57 -231c-12 0 -26 1 -37 3l-25 141c12 -2 25 -3 33 -3c59 0 79 26 79 104v560h159v-540c0 -204 -49 -265 -209 -265z" />
    <glyph glyph-name="uni0237" unicode="&#x237;" horiz-adv-x="343" 
d="M57 -231c-22 0 -51 4 -69 9l-25 141c20 -5 48 -9 65 -9c59 0 79 26 79 105v559h159v-540c0 -204 -49 -265 -209 -265z" />
    <glyph glyph-name="jcircumflex" unicode="&#x135;" horiz-adv-x="343" 
d="M-25 650l138 140h149l135 -140h-158l-52 60l-54 -60h-158zM57 -231c-22 0 -51 4 -69 9l-25 141c20 -5 48 -9 65 -9c59 0 79 26 79 105v559h159v-540c0 -204 -49 -265 -209 -265z" />
    <glyph glyph-name="k" unicode="k" horiz-adv-x="634" 
d="M413 289l211 -289h-186l-203 288v-288h-158v811h158v-520l193 283h185z" />
    <glyph glyph-name="kcommaaccent" unicode="&#x137;" horiz-adv-x="634" 
d="M413 289l211 -289h-186l-203 288v-288h-158v811h158v-520l193 283h185zM179 -220l62 175h144l-99 -175h-107z" />
    <glyph glyph-name="l" unicode="l" horiz-adv-x="312" 
d="M77 0v811h158v-811h-158z" />
    <glyph glyph-name="lacute" unicode="&#x13a;" horiz-adv-x="312" 
d="M58 892l144 140h185l-173 -140h-156zM77 0v811h158v-811h-158z" />
    <glyph glyph-name="lcaron" unicode="&#x13e;" horiz-adv-x="427" 
d="M77 0v811h158v-811h-158zM275 638l41 173h130l-80 -173h-91z" />
    <glyph glyph-name="lcommaaccent" unicode="&#x13c;" horiz-adv-x="312" 
d="M77 0v811h158v-811h-158zM18 -220l62 175h144l-99 -175h-107z" />
    <glyph glyph-name="ldot" unicode="&#x140;" horiz-adv-x="481" 
d="M77 0v811h158v-811h-158zM382 353c-49 0 -92 27 -92 82c0 49 40 81 92 81c50 0 91 -32 91 -81c0 -55 -44 -82 -91 -82z" />
    <glyph glyph-name="lslash" unicode="&#x142;" horiz-adv-x="487" 
d="M443 484l-121 -67v-417h-158v330l-78 -43l-42 92l120 66v366h158v-279l78 43z" />
    <glyph glyph-name="m" unicode="m" horiz-adv-x="1001" 
d="M925 0h-160v338c0 60 -20 99 -99 99c-25 0 -61 -9 -88 -25c3 -17 4 -35 4 -55v-357h-158c0 113 -1 225 -1 338c0 72 -39 99 -101 99c-25 0 -55 -4 -87 -10v-427h-158v561c98 18 200 30 251 30c66 0 125 -13 169 -44c51 26 111 44 175 44c146 0 252 -58 252 -223
c0 -122 1 -245 1 -368z" />
    <glyph glyph-name="n" unicode="n" horiz-adv-x="686" 
d="M77 0v562c95 16 209 29 266 29c142 0 266 -49 266 -222c0 -123 1 -246 1 -369h-159v338c0 73 -40 99 -114 99c-28 0 -65 -3 -102 -10v-427h-158z" />
    <glyph glyph-name="nacute" unicode="&#x144;" horiz-adv-x="686" 
d="M242 660l144 140h185l-173 -140h-156zM77 0v562c95 16 209 29 266 29c142 0 266 -49 266 -222c0 -123 1 -246 1 -369h-159v338c0 73 -40 99 -114 99c-28 0 -65 -3 -102 -10v-427h-158z" />
    <glyph glyph-name="ncaron" unicode="&#x148;" horiz-adv-x="686" 
d="M263 654l-162 152h154l86 -87l86 87h154l-161 -152h-157zM77 0v562c95 16 209 29 266 29c142 0 266 -49 266 -222c0 -123 1 -246 1 -369h-159v338c0 73 -40 99 -114 99c-28 0 -65 -3 -102 -10v-427h-158z" />
    <glyph glyph-name="ncommaaccent" unicode="&#x146;" horiz-adv-x="686" 
d="M77 0v562c95 16 209 29 266 29c142 0 266 -49 266 -222c0 -123 1 -246 1 -369h-159v338c0 73 -40 99 -114 99c-28 0 -65 -3 -102 -10v-427h-158zM205 -220l62 175h144l-99 -175h-107z" />
    <glyph glyph-name="eng" unicode="&#x14b;" horiz-adv-x="686" 
d="M609 368l1 -386c0 -164 -79 -214 -234 -214c-15 0 -29 1 -44 4l-25 115c18 -6 57 -9 65 -9c61 0 79 25 79 116l-1 343c0 72 -39 99 -113 99c-28 0 -64 -4 -101 -10l-1 1v-427h-158v561c95 16 209 29 266 29c142 0 266 -49 266 -222z" />
    <glyph glyph-name="ntilde" unicode="&#xf1;" horiz-adv-x="686" 
d="M140 650c3 86 26 143 111 143c61 0 103 -40 151 -40c22 0 30 12 36 39h106c-3 -86 -24 -142 -110 -142c-60 0 -105 39 -151 39c-23 0 -32 -11 -37 -39h-106zM77 0v562c95 16 209 29 266 29c142 0 266 -49 266 -222c0 -123 1 -246 1 -369h-159v338c0 73 -40 99 -114 99
c-28 0 -65 -3 -102 -10v-427h-158z" />
    <glyph glyph-name="o" unicode="o" horiz-adv-x="694" 
d="M345 -14c-179 0 -315 126 -316 303v1c0 178 137 307 316 307h1c184 -1 320 -129 320 -307v-1c0 -177 -136 -302 -320 -303h-1zM347 132h1c96 0 159 69 159 157v1c0 90 -63 159 -159 160h-1c-96 0 -159 -70 -159 -160v-1c0 -88 63 -157 159 -157z" />
    <glyph glyph-name="oacute" unicode="&#xf3;" horiz-adv-x="694" 
d="M249 660l144 140h185l-173 -140h-156zM345 -14c-179 0 -315 126 -316 303v1c0 178 137 307 316 307h1c184 -1 320 -129 320 -307v-1c0 -177 -136 -302 -320 -303h-1zM347 132h1c96 0 159 69 159 157v1c0 90 -63 159 -159 160h-1c-96 0 -159 -70 -159 -160v-1
c0 -88 63 -157 159 -157z" />
    <glyph glyph-name="obreve" unicode="&#x14f;" horiz-adv-x="694" 
d="M351 651c-104 0 -184 38 -194 152h108c7 -47 28 -75 86 -75s79 28 87 75h108c-10 -114 -90 -152 -195 -152zM345 -14c-179 0 -315 126 -316 303v1c0 178 137 307 316 307h1c184 -1 320 -129 320 -307v-1c0 -177 -136 -302 -320 -303h-1zM347 132h1c96 0 159 69 159 157v1
c0 90 -63 159 -159 160h-1c-96 0 -159 -70 -159 -160v-1c0 -88 63 -157 159 -157z" />
    <glyph glyph-name="uni01D2" unicode="&#x1d2;" horiz-adv-x="694" 
d="M270 654l-162 152h154l86 -87l86 87h154l-161 -152h-157zM345 -14c-179 0 -315 126 -316 303v1c0 178 137 307 316 307h1c184 -1 320 -129 320 -307v-1c0 -177 -136 -302 -320 -303h-1zM347 132h1c96 0 159 69 159 157v1c0 90 -63 159 -159 160h-1
c-96 0 -159 -70 -159 -160v-1c0 -88 63 -157 159 -157z" />
    <glyph glyph-name="ocircumflex" unicode="&#xf4;" horiz-adv-x="694" 
d="M137 656l138 140h149l135 -140h-158l-52 60l-54 -60h-158zM345 -14c-179 0 -315 126 -316 303v1c0 178 137 307 316 307h1c184 -1 320 -129 320 -307v-1c0 -177 -136 -302 -320 -303h-1zM347 132h1c96 0 159 69 159 157v1c0 90 -63 159 -159 160h-1
c-96 0 -159 -70 -159 -160v-1c0 -88 63 -157 159 -157z" />
    <glyph glyph-name="odieresis" unicode="&#xf6;" horiz-adv-x="694" 
d="M239 654c-44 0 -85 25 -85 76c0 45 38 75 85 75s84 -30 84 -75c0 -51 -40 -76 -84 -76zM456 654c-44 0 -85 25 -85 76c1 45 38 75 85 75s84 -30 84 -75c0 -51 -40 -76 -84 -76zM345 -14c-179 0 -315 126 -316 303v1c0 178 137 307 316 307h1c184 -1 320 -129 320 -307v-1
c0 -177 -136 -302 -320 -303h-1zM347 132h1c96 0 159 69 159 157v1c0 90 -63 159 -159 160h-1c-96 0 -159 -70 -159 -160v-1c0 -88 63 -157 159 -157z" />
    <glyph glyph-name="uni1ECD" unicode="&#x1ecd;" horiz-adv-x="694" 
d="M345 -14c-179 0 -315 126 -316 303v1c0 178 137 307 316 307h1c184 -1 320 -129 320 -307v-1c0 -177 -136 -302 -320 -303h-1zM347 132h1c96 0 159 69 159 157v1c0 90 -63 159 -159 160h-1c-96 0 -159 -70 -159 -160v-1c0 -88 63 -157 159 -157zM349 -227
c-49 0 -92 27 -92 82c0 49 40 81 92 81c50 0 91 -32 91 -81c0 -55 -44 -82 -91 -82z" />
    <glyph glyph-name="ograve" unicode="&#xf2;" horiz-adv-x="694" 
d="M331 654l-166 152h188l82 -152h-104zM345 -14c-179 0 -315 126 -316 303v1c0 178 137 307 316 307h1c184 -1 320 -129 320 -307v-1c0 -177 -136 -302 -320 -303h-1zM347 132h1c96 0 159 69 159 157v1c0 90 -63 159 -159 160h-1c-96 0 -159 -70 -159 -160v-1
c0 -88 63 -157 159 -157z" />
    <glyph glyph-name="ohungarumlaut" unicode="&#x151;" horiz-adv-x="694" 
d="M163 648l108 139h181l-137 -139h-152zM403 648l108 139h181l-137 -139h-152zM345 -14c-179 0 -315 126 -316 303v1c0 178 137 307 316 307h1c184 -1 320 -129 320 -307v-1c0 -177 -136 -302 -320 -303h-1zM347 132h1c96 0 159 69 159 157v1c0 90 -63 159 -159 160h-1
c-96 0 -159 -70 -159 -160v-1c0 -88 63 -157 159 -157z" />
    <glyph glyph-name="omacron" unicode="&#x14d;" horiz-adv-x="694" 
d="M187 654v97h322v-97h-322zM345 -14c-179 0 -315 126 -316 303v1c0 178 137 307 316 307h1c184 -1 320 -129 320 -307v-1c0 -177 -136 -302 -320 -303h-1zM347 132h1c96 0 159 69 159 157v1c0 90 -63 159 -159 160h-1c-96 0 -159 -70 -159 -160v-1c0 -88 63 -157 159 -157
z" />
    <glyph glyph-name="oslash" unicode="&#xf8;" horiz-adv-x="694" 
d="M710 543l-92 -85c31 -47 48 -104 48 -168v-1c0 -177 -136 -302 -320 -303h-1c-69 0 -132 19 -183 52l-82 -75l-94 68l95 87c-33 47 -52 106 -52 171v1c0 178 137 307 316 307h1c74 0 140 -21 193 -58l77 71zM188 289c0 -22 4 -43 11 -62l224 206c-22 11 -47 17 -75 17h-1
c-96 0 -159 -70 -159 -160v-1zM507 290c0 20 -3 40 -9 57l-220 -201c21 -9 44 -14 69 -14h1c96 0 159 69 159 157v1z" />
    <glyph glyph-name="otilde" unicode="&#xf5;" horiz-adv-x="694" 
d="M147 650c3 86 26 143 111 143c61 0 103 -40 151 -40c22 0 30 12 36 39h106c-3 -86 -24 -142 -110 -142c-60 0 -105 39 -151 39c-23 0 -32 -11 -37 -39h-106zM345 -14c-179 0 -315 126 -316 303v1c0 178 137 307 316 307h1c184 -1 320 -129 320 -307v-1
c0 -177 -136 -302 -320 -303h-1zM347 132h1c96 0 159 69 159 157v1c0 90 -63 159 -159 160h-1c-96 0 -159 -70 -159 -160v-1c0 -88 63 -157 159 -157z" />
    <glyph glyph-name="oe" unicode="&#x153;" horiz-adv-x="1120" 
d="M1088 306c0 -17 0 -58 -1 -74h-412c21 -67 73 -105 152 -105c65 0 131 17 171 41l66 -122c-59 -32 -143 -57 -248 -57c-97 0 -177 34 -231 93c-57 -60 -141 -95 -239 -96h-1c-179 0 -315 126 -316 303v1c0 178 137 307 316 307h1c96 -1 178 -35 236 -94
c52 60 130 95 225 95c169 0 281 -117 281 -292zM804 460c-72 0 -114 -34 -130 -94h260c-10 59 -57 94 -130 94zM507 289v1c0 90 -63 159 -159 160h-1c-96 0 -159 -70 -159 -160v-1c0 -88 63 -157 159 -157h1c96 0 159 69 159 157z" />
    <glyph glyph-name="p" unicode="p" horiz-adv-x="670" 
d="M325 586c192 0 317 -111 317 -303v-1c0 -189 -120 -305 -317 -305c-29 0 -59 2 -90 7v-204h-158v778h37c73 18 148 28 211 28zM490 281v2c0 93 -57 160 -160 160c-29 0 -60 -4 -95 -11v-306c31 -5 68 -6 94 -6c100 0 161 64 161 161z" />
    <glyph glyph-name="thorn" unicode="&#xfe;" horiz-adv-x="670" 
d="M325 586c192 0 317 -111 317 -303v-1c0 -189 -120 -305 -317 -305c-29 0 -59 2 -90 7v-203h-158v1030h158v-231c32 4 62 6 90 6zM490 281v2c0 93 -57 160 -160 160c-30 0 -59 -4 -95 -12v-304c32 -6 67 -7 94 -7c100 0 161 64 161 161z" />
    <glyph glyph-name="q" unicode="q" horiz-adv-x="670" 
d="M556 558h37v-778h-158v204c-31 -5 -61 -7 -90 -7c-197 0 -317 116 -317 305v1c0 192 125 303 317 303c63 0 138 -10 211 -28zM341 120c26 0 63 1 94 6v306c-35 7 -66 11 -95 11c-103 0 -160 -67 -160 -160v-2c0 -97 61 -161 161 -161z" />
    <glyph glyph-name="r" unicode="r" horiz-adv-x="449" 
d="M71 0v549c85 20 179 25 238 25h108v-146c-43 0 -43 1 -88 1c-21 0 -85 -2 -100 -9v-420h-158z" />
    <glyph glyph-name="racute" unicode="&#x155;" horiz-adv-x="449" 
d="M141 645l144 140h185l-173 -140h-156zM71 0v549c85 20 179 25 238 25h108v-146c-43 0 -43 1 -88 1c-21 0 -85 -2 -100 -9v-420h-158z" />
    <glyph glyph-name="rcaron" unicode="&#x159;" horiz-adv-x="449" 
d="M162 639l-162 152h154l86 -87l86 87h154l-161 -152h-157zM71 0v549c85 20 179 25 238 25h108v-146c-43 0 -43 1 -88 1c-21 0 -85 -2 -100 -9v-420h-158z" />
    <glyph glyph-name="rcommaaccent" unicode="&#x157;" horiz-adv-x="449" 
d="M71 0v549c85 20 179 25 238 25h108v-146c-43 0 -43 1 -88 1c-21 0 -85 -2 -100 -9v-420h-158zM9 -220l62 175h144l-99 -175h-107z" />
    <glyph glyph-name="s" unicode="s" horiz-adv-x="565" 
d="M279 -13c-90 0 -171 16 -251 51l42 122c68 -28 137 -42 195 -42c68 0 114 8 114 46c0 34 -18 41 -102 62c-18 4 -35 9 -53 13c-121 30 -178 91 -178 187c0 104 85 170 234 170c88 0 176 -19 235 -50l-45 -122c-53 25 -115 41 -170 41c-58 0 -91 -10 -91 -40
c0 -34 30 -40 96 -57l40 -10c131 -34 188 -95 188 -185c0 -124 -83 -186 -254 -186z" />
    <glyph glyph-name="sacute" unicode="&#x15b;" horiz-adv-x="565" 
d="M189 664l144 140h185l-173 -140h-156zM279 -13c-90 0 -171 16 -251 51l42 122c68 -28 137 -42 195 -42c68 0 114 8 114 46c0 34 -18 41 -102 62c-18 4 -35 9 -53 13c-121 30 -178 91 -178 187c0 104 85 170 234 170c88 0 176 -19 235 -50l-45 -122
c-53 25 -115 41 -170 41c-58 0 -91 -10 -91 -40c0 -34 30 -40 96 -57l40 -10c131 -34 188 -95 188 -185c0 -124 -83 -186 -254 -186z" />
    <glyph glyph-name="scaron" unicode="&#x161;" horiz-adv-x="565" 
d="M210 658l-162 152h154l86 -87l86 87h154l-161 -152h-157zM279 -13c-90 0 -171 16 -251 51l42 122c68 -28 137 -42 195 -42c68 0 114 8 114 46c0 34 -18 41 -102 62c-18 4 -35 9 -53 13c-121 30 -178 91 -178 187c0 104 85 170 234 170c88 0 176 -19 235 -50l-45 -122
c-53 25 -115 41 -170 41c-58 0 -91 -10 -91 -40c0 -34 30 -40 96 -57l40 -10c131 -34 188 -95 188 -185c0 -124 -83 -186 -254 -186z" />
    <glyph glyph-name="scedilla" unicode="&#x15f;" horiz-adv-x="565" 
d="M533 173c0 -115 -71 -177 -218 -185l-27 -37h9c48 0 109 -19 109 -78c-1 -66 -61 -93 -133 -93c-32 0 -58 3 -88 13l-5 60c20 -6 62 -16 89 -16c36 0 66 8 66 33c1 25 -29 33 -67 33c-26 0 -57 -5 -75 -10l-3 4l62 91c-80 2 -152 19 -224 50l42 122
c68 -28 137 -42 195 -42c68 0 114 8 114 46c0 34 -18 41 -102 62c-18 4 -35 9 -53 13c-121 30 -178 91 -178 187c0 104 85 170 234 170c88 0 176 -19 235 -50l-45 -122c-53 25 -115 41 -170 41c-58 0 -91 -10 -91 -40c0 -34 30 -40 96 -57l40 -10c131 -34 188 -95 188 -185z
" />
    <glyph glyph-name="scircumflex" unicode="&#x15d;" horiz-adv-x="565" 
d="M77 660l138 140h149l135 -140h-158l-52 60l-54 -60h-158zM279 -13c-90 0 -171 16 -251 51l42 122c68 -28 137 -42 195 -42c68 0 114 8 114 46c0 34 -18 41 -102 62c-18 4 -35 9 -53 13c-121 30 -178 91 -178 187c0 104 85 170 234 170c88 0 176 -19 235 -50l-45 -122
c-53 25 -115 41 -170 41c-58 0 -91 -10 -91 -40c0 -34 30 -40 96 -57l40 -10c131 -34 188 -95 188 -185c0 -124 -83 -186 -254 -186z" />
    <glyph glyph-name="scommaaccent" unicode="&#x219;" horiz-adv-x="565" 
d="M279 -13c-90 0 -171 16 -251 51l42 122c68 -28 137 -42 195 -42c68 0 114 8 114 46c0 34 -18 41 -102 62c-18 4 -35 9 -53 13c-121 30 -178 91 -178 187c0 104 85 170 234 170c88 0 176 -19 235 -50l-45 -122c-53 25 -115 41 -170 41c-58 0 -91 -10 -91 -40
c0 -34 30 -40 96 -57l40 -10c131 -34 188 -95 188 -185c0 -124 -83 -186 -254 -186zM154 -220l62 175h144l-99 -175h-107z" />
    <glyph glyph-name="germandbls" unicode="&#xdf;" horiz-adv-x="785" 
d="M597 446c92 -25 158 -91 158 -203v-4c-2 -161 -117 -251 -298 -251c-36 0 -96 5 -145 13l30 149c27 -5 58 -10 88 -10c93 0 163 36 163 110v4c0 77 -78 94 -198 94h-36l-1 153h33c99 0 145 29 145 82v4c0 60 -59 85 -143 85c-114 0 -158 -46 -158 -164v-508h-158v509
c0 237 127 316 325 316c172 0 298 -75 298 -208v-4c-1 -78 -46 -146 -103 -167z" />
    <glyph glyph-name="t" unicode="t" horiz-adv-x="523" 
d="M316 0c-145 0 -196 58 -196 184v247h-99v143h99v204h156v-204h209v-143h-209v-200c0 -65 31 -86 98 -86h112v-145h-170z" />
    <glyph glyph-name="tbar" unicode="&#x167;" horiz-adv-x="523" 
d="M486 272h-210v-41c0 -65 31 -86 98 -86h112v-145h-170c-145 0 -196 58 -196 184v88h-100v117h100v42h-99v143h99v204h156v-204h209v-143h-209v-42h210v-117z" />
    <glyph glyph-name="tcaron" unicode="&#x165;" horiz-adv-x="523" 
d="M335 638l41 173h130l-80 -173h-91zM316 0c-145 0 -196 58 -196 184v247h-99v143h99v204h156v-204h209v-143h-209v-200c0 -65 31 -86 98 -86h112v-145h-170z" />
    <glyph glyph-name="uni0163" unicode="&#x163;" horiz-adv-x="523" 
d="M486 0h-128l-28 -42h9c48 0 108 -19 109 -78c-1 -66 -61 -93 -133 -93c-32 0 -58 3 -88 13l-5 60c20 -6 62 -16 89 -16c36 0 66 8 66 33c1 25 -29 33 -67 33c-26 0 -57 -5 -75 -10l-3 4l62 96c-128 6 -174 65 -174 184v247h-99v143h99v204h156v-204h209v-143h-209v-200
c0 -65 31 -86 98 -86h112v-145z" />
    <glyph glyph-name="uni021B" unicode="&#x21b;" horiz-adv-x="523" 
d="M316 0c-145 0 -196 58 -196 184v247h-99v143h99v204h156v-204h209v-143h-209v-200c0 -65 31 -86 98 -86h112v-145h-170zM192 -219l62 175h144l-99 -175h-107z" />
    <glyph glyph-name="u" unicode="u" horiz-adv-x="686" 
d="M610 574v-557c-96 -18 -209 -31 -267 -31c-157 0 -266 60 -266 223v365h158c0 -113 1 -221 1 -334c0 -76 39 -99 114 -99c28 0 64 3 101 10v423h159z" />
    <glyph glyph-name="uacute" unicode="&#xfa;" horiz-adv-x="686" 
d="M245 660l144 140h185l-173 -140h-156zM610 574v-557c-96 -18 -209 -31 -267 -31c-157 0 -266 60 -266 223v365h158c0 -113 1 -221 1 -334c0 -76 39 -99 114 -99c28 0 64 3 101 10v423h159z" />
    <glyph glyph-name="ubreve" unicode="&#x16d;" horiz-adv-x="686" 
d="M347 651c-104 0 -184 38 -194 152h108c7 -47 28 -75 86 -75s79 28 87 75h108c-10 -114 -90 -152 -195 -152zM610 574v-557c-96 -18 -209 -31 -267 -31c-157 0 -266 60 -266 223v365h158c0 -113 1 -221 1 -334c0 -76 39 -99 114 -99c28 0 64 3 101 10v423h159z" />
    <glyph glyph-name="uni01D4" unicode="&#x1d4;" horiz-adv-x="686" 
d="M266 654l-162 152h154l86 -87l86 87h154l-161 -152h-157zM610 574v-557c-96 -18 -209 -31 -267 -31c-157 0 -266 60 -266 223v365h158c0 -113 1 -221 1 -334c0 -76 39 -99 114 -99c28 0 64 3 101 10v423h159z" />
    <glyph glyph-name="ucircumflex" unicode="&#xfb;" horiz-adv-x="686" 
d="M133 656l138 140h149l135 -140h-158l-52 60l-54 -60h-158zM610 574v-557c-96 -18 -209 -31 -267 -31c-157 0 -266 60 -266 223v365h158c0 -113 1 -221 1 -334c0 -76 39 -99 114 -99c28 0 64 3 101 10v423h159z" />
    <glyph glyph-name="udieresis" unicode="&#xfc;" horiz-adv-x="686" 
d="M235 654c-44 0 -85 25 -85 76c0 45 38 75 85 75s84 -30 84 -75c0 -51 -40 -76 -84 -76zM452 654c-44 0 -85 25 -85 76c1 45 38 75 85 75s84 -30 84 -75c0 -51 -40 -76 -84 -76zM610 574v-557c-96 -18 -209 -31 -267 -31c-157 0 -266 60 -266 223v365h158
c0 -113 1 -221 1 -334c0 -76 39 -99 114 -99c28 0 64 3 101 10v423h159z" />
    <glyph glyph-name="uni1EE5" unicode="&#x1ee5;" horiz-adv-x="686" 
d="M610 574v-557c-96 -18 -209 -31 -267 -31c-157 0 -266 60 -266 223v365h158c0 -113 1 -221 1 -334c0 -76 39 -99 114 -99c28 0 64 3 101 10v423h159zM345 -227c-49 0 -92 27 -92 82c0 49 40 81 92 81c50 0 91 -32 91 -81c0 -55 -44 -82 -91 -82z" />
    <glyph glyph-name="ugrave" unicode="&#xf9;" horiz-adv-x="686" 
d="M327 654l-166 152h188l82 -152h-104zM610 574v-557c-96 -18 -209 -31 -267 -31c-157 0 -266 60 -266 223v365h158c0 -113 1 -221 1 -334c0 -76 39 -99 114 -99c28 0 64 3 101 10v423h159z" />
    <glyph glyph-name="uhungarumlaut" unicode="&#x171;" horiz-adv-x="686" 
d="M159 648l108 139h181l-137 -139h-152zM399 648l108 139h181l-137 -139h-152zM610 574v-557c-96 -18 -209 -31 -267 -31c-157 0 -266 60 -266 223v365h158c0 -113 1 -221 1 -334c0 -76 39 -99 114 -99c28 0 64 3 101 10v423h159z" />
    <glyph glyph-name="umacron" unicode="&#x16b;" horiz-adv-x="686" 
d="M183 654v97h322v-97h-322zM610 574v-557c-96 -18 -209 -31 -267 -31c-157 0 -266 60 -266 223v365h158c0 -113 1 -221 1 -334c0 -76 39 -99 114 -99c28 0 64 3 101 10v423h159z" />
    <glyph glyph-name="uogonek" unicode="&#x173;" horiz-adv-x="686" 
d="M368 -13c-58 -29 -92 -52 -93 -87s35 -48 76 -48c17 0 33 3 45 6v-71c-17 -3 -52 -8 -83 -8c-86 0 -175 23 -174 103c1 47 39 87 93 117c-95 25 -155 89 -155 210v365h158c0 -113 1 -221 1 -334c0 -76 39 -99 114 -99c28 0 64 3 101 10v423h159v-557
c-83 -16 -180 -28 -242 -30z" />
    <glyph glyph-name="uring" unicode="&#x16f;" horiz-adv-x="686" 
d="M346 651c-66 0 -121 53 -121 120s53 119 121 119c67 0 121 -54 121 -120c0 -68 -53 -119 -121 -119zM346 725c28 0 47 19 47 46c0 25 -19 46 -47 46c-27 0 -48 -21 -47 -46c-1 -27 20 -46 47 -46zM610 574v-557c-96 -18 -209 -31 -267 -31c-157 0 -266 60 -266 223v365
h158c0 -113 1 -221 1 -334c0 -76 39 -99 114 -99c28 0 64 3 101 10v423h159z" />
    <glyph glyph-name="utilde" unicode="&#x169;" horiz-adv-x="686" 
d="M143 650c3 86 26 143 111 143c61 0 103 -40 151 -40c22 0 30 12 36 39h106c-3 -86 -24 -142 -110 -142c-60 0 -105 39 -151 39c-23 0 -32 -11 -37 -39h-106zM610 574v-557c-96 -18 -209 -31 -267 -31c-157 0 -266 60 -266 223v365h158c0 -113 1 -221 1 -334
c0 -76 39 -99 114 -99c28 0 64 3 101 10v423h159z" />
    <glyph glyph-name="v" unicode="v" horiz-adv-x="626" 
d="M437 574h166l-184 -574h-208l-188 574h167l125 -426z" />
    <glyph glyph-name="w" unicode="w" horiz-adv-x="871" 
d="M681 575h166l-116 -575h-209l-87 413l-87 -413h-205l-120 575h167l68 -383l81 383h194l81 -379z" />
    <glyph glyph-name="wacute" unicode="&#x1e83;" horiz-adv-x="871" 
d="M666 802l-173 -140h-156l144 140h185zM681 575h166l-116 -575h-209l-87 413l-87 -413h-205l-120 575h167l68 -383l81 383h194l81 -379z" />
    <glyph glyph-name="wcircumflex" unicode="&#x175;" horiz-adv-x="871" 
d="M437 718l-54 -60h-158l138 140h149l135 -140h-158zM681 575h166l-116 -575h-209l-87 413l-87 -413h-205l-120 575h167l68 -383l81 383h194l81 -379z" />
    <glyph glyph-name="wdieresis" unicode="&#x1e85;" horiz-adv-x="871" 
d="M327 656c-44 0 -85 25 -85 76c0 45 38 75 85 75s84 -30 84 -75c0 -51 -40 -76 -84 -76zM544 656c-44 0 -85 25 -85 76c1 45 38 75 85 75s84 -30 84 -75c0 -51 -40 -76 -84 -76zM681 575h166l-116 -575h-209l-87 413l-87 -413h-205l-120 575h167l68 -383l81 383h194
l81 -379z" />
    <glyph glyph-name="wgrave" unicode="&#x1e81;" horiz-adv-x="871" 
d="M523 656h-104l-166 152h188zM681 575h166l-116 -575h-209l-87 413l-87 -413h-205l-120 575h167l68 -383l81 383h194l81 -379z" />
    <glyph glyph-name="x" unicode="x" horiz-adv-x="626" 
d="M610 0h-180l-116 200l-116 -200h-182l191 295l-182 279h177l110 -191l109 191h180l-182 -281z" />
    <glyph glyph-name="y" unicode="y" horiz-adv-x="650" 
d="M597 72l-5 -2v-79c0 -149 -67 -219 -266 -219c-65 0 -149 12 -205 26l-37 145c70 -20 159 -33 221 -33c102 0 134 19 134 98v21c-32 -5 -67 -8 -109 -8c-157 0 -253 59 -253 223v330h158v-300c0 -73 34 -100 102 -100c49 0 79 4 102 9v391h153v-498z" />
    <glyph glyph-name="yacute" unicode="&#xfd;" horiz-adv-x="650" 
d="M567 794l-173 -140h-156l144 140h185zM597 72l-5 -2v-79c0 -149 -67 -219 -266 -219c-65 0 -149 12 -205 26l-37 145c70 -20 159 -33 221 -33c102 0 134 19 134 98v21c-32 -5 -67 -8 -109 -8c-157 0 -253 59 -253 223v330h158v-300c0 -73 34 -100 102 -100
c49 0 79 4 102 9v391h153v-498z" />
    <glyph glyph-name="ycircumflex" unicode="&#x177;" horiz-adv-x="650" 
d="M338 710l-54 -60h-158l138 140h149l135 -140h-158zM597 72l-5 -2v-79c0 -149 -67 -219 -266 -219c-65 0 -149 12 -205 26l-37 145c70 -20 159 -33 221 -33c102 0 134 19 134 98v21c-32 -5 -67 -8 -109 -8c-157 0 -253 59 -253 223v330h158v-300c0 -73 34 -100 102 -100
c49 0 79 4 102 9v391h153v-498z" />
    <glyph glyph-name="ydieresis" unicode="&#xff;" horiz-adv-x="650" 
d="M228 648c-44 0 -85 25 -85 76c0 45 38 75 85 75s84 -30 84 -75c0 -51 -40 -76 -84 -76zM445 648c-44 0 -85 25 -85 76c1 45 38 75 85 75s84 -30 84 -75c0 -51 -40 -76 -84 -76zM597 72l-5 -2v-79c0 -149 -67 -219 -266 -219c-65 0 -149 12 -205 26l-37 145
c70 -20 159 -33 221 -33c102 0 134 19 134 98v21c-32 -5 -67 -8 -109 -8c-157 0 -253 59 -253 223v330h158v-300c0 -73 34 -100 102 -100c49 0 79 4 102 9v391h153v-498z" />
    <glyph glyph-name="ygrave" unicode="&#x1ef3;" horiz-adv-x="650" 
d="M424 648h-104l-166 152h188zM597 72l-5 -2v-79c0 -149 -67 -219 -266 -219c-65 0 -149 12 -205 26l-37 145c70 -20 159 -33 221 -33c102 0 134 19 134 98v21c-32 -5 -67 -8 -109 -8c-157 0 -253 59 -253 223v330h158v-300c0 -73 34 -100 102 -100c49 0 79 4 102 9v391
h153v-498z" />
    <glyph glyph-name="uni0233" unicode="&#x233;" horiz-adv-x="650" 
d="M498 745v-97h-322v97h322zM597 72l-5 -2v-79c0 -149 -67 -219 -266 -219c-65 0 -149 12 -205 26l-37 145c70 -20 159 -33 221 -33c102 0 134 19 134 98v21c-32 -5 -67 -8 -109 -8c-157 0 -253 59 -253 223v330h158v-300c0 -73 34 -100 102 -100c49 0 79 4 102 9v391h153
v-498z" />
    <glyph glyph-name="z" unicode="z" horiz-adv-x="600" 
d="M250 145h300v-145h-499v136l293 294h-277v144h474v-132z" />
    <glyph glyph-name="zacute" unicode="&#x17a;" horiz-adv-x="600" 
d="M538 805l-173 -140h-156l144 140h185zM250 145h300v-145h-499v136l293 294h-277v144h474v-132z" />
    <glyph glyph-name="zcaron" unicode="&#x17e;" horiz-adv-x="600" 
d="M387 659h-157l-162 152h154l86 -87l86 87h154zM250 145h300v-145h-499v136l293 294h-277v144h474v-132z" />
    <glyph glyph-name="zdotaccent" unicode="&#x17c;" horiz-adv-x="600" 
d="M308 659c-47 0 -89 27 -89 81c0 48 39 79 89 79s89 -31 89 -79c0 -54 -43 -81 -89 -81zM250 145h300v-145h-499v136l293 294h-277v144h474v-132z" />
    <glyph glyph-name="ordfeminine" unicode="&#xaa;" horiz-adv-x="450" 
d="M227 784c121 0 187 -44 187 -157v-238c-45 -14 -119 -24 -181 -24c-121 0 -197 34 -197 129v1c0 83 70 121 177 121c28 -1 57 -2 90 -6v20c0 41 -33 62 -101 62c-37 0 -92 -7 -134 -23l25 94c28 11 83 21 134 21zM302 458v84c-8 2 -44 5 -65 5c-55 0 -87 -8 -87 -47v-1
c1 -39 31 -50 87 -50c19 0 50 3 65 9z" />
    <glyph glyph-name="ordmasculine" unicode="&#xba;" horiz-adv-x="508" 
d="M253 364c-127 0 -217 84 -217 210v1c0 127 90 212 217 212c130 0 219 -85 219 -212v-1c0 -125 -89 -209 -219 -210zM254 480h1c55 0 92 39 92 94v1c0 57 -37 95 -92 95h-1c-56 0 -92 -38 -92 -95v-1c0 -55 36 -94 92 -94z" />
    <glyph glyph-name="uni0394" unicode="&#x394;" horiz-adv-x="872" 
d="M6 -1l347 802h165l347 -802h-859zM234 147h403l-201 472z" />
    <glyph glyph-name="uni03A9" unicode="&#x3a9;" horiz-adv-x="885" 
d="M659 240v-91h136v-149h-294v191v117c109 20 166 85 166 197c0 101 -86 168 -224 168c-137 0 -225 -67 -225 -168c0 -112 67 -177 167 -197v-117v-191h-294v149h135v91c-106 59 -170 162 -170 274c0 198 148 311 386 311c239 0 387 -112 387 -311
c0 -112 -64 -215 -170 -274z" />
    <glyph glyph-name="uni03BC" unicode="&#x3bc;" horiz-adv-x="722" 
d="M701 141v-154c-80 0 -136 12 -175 40c-46 -28 -107 -40 -180 -40c-44 0 -80 5 -111 14v-220h-158v793h158c0 -112 1 -222 1 -334c0 -76 39 -99 110 -99s111 23 111 99v334h159v-331c0 -73 29 -102 85 -102z" />
    <glyph glyph-name="pi" unicode="&#x3c0;" horiz-adv-x="841" 
d="M130 0v427h-74v147h731v-147h-85v-214c0 -54 15 -66 68 -66h21v-147h-44c-159 0 -203 37 -203 163v264h-256v-427h-158z" />
    <glyph glyph-name="uni0621" unicode="&#x621;" horiz-adv-x="514" 
d="M50 0v191c0 206 100 299 292 299h44v-155h-72c-73 0 -116 -34 -116 -117v-61h269v-157h-417z" />
    <glyph glyph-name="uni0627" unicode="&#x627;" horiz-adv-x="313" 
d="M78 0v811h157v-811h-157z" />
    <glyph glyph-name="uni0627.short" horiz-adv-x="313" 
d="M78 665h157v-638h-157v638z" />
    <glyph glyph-name="uniFE8E.short" horiz-adv-x="380" 
d="M235 157h165v-157h-322v692h157v-535z" />
    <glyph glyph-name="uni0623" unicode="&#x623;" horiz-adv-x="313" 
d="M154 836h92v-76h-178v73c0 71 48 108 117 108h35v-67h-39c-16 0 -27 -11 -27 -28v-10zM78 665h157v-638h-157v638z" />
    <glyph glyph-name="uni0625" unicode="&#x625;" horiz-adv-x="313" 
d="M78 0v811h157v-811h-157zM63 -242v73c0 72 48 109 117 109h44v-68h-48c-16 0 -27 -11 -27 -27v-10h101v-77h-187z" />
    <glyph glyph-name="uni0622" unicode="&#x622;" horiz-adv-x="313" 
d="M57 853v85h200v-85h-200zM78 0v811h157v-811h-157z" />
    <glyph glyph-name="uni0671" unicode="&#x671;" horiz-adv-x="313" 
d="M157 920c80 0 122 -38 122 -111v-75h-245v75c0 73 42 111 122 111h1zM189 809v7c0 22 -11 33 -32 33h-1c-21 0 -32 -11 -32 -33v-7h65zM78 665h157v-638h-157v638z" />
    <glyph glyph-name="uni066E" unicode="&#x66e;" horiz-adv-x="861" 
d="M641 574h157v-574h-431c-220 0 -321 111 -321 315v179h157v-163c0 -122 75 -174 198 -174h240v417z" />
    <glyph glyph-name="uni066E.ss01" horiz-adv-x="903" 
d="M683 574h157v-574h-526c-126 0 -215 30 -289 82l66 125c65 -39 127 -50 203 -50h389v417z" />
    <glyph glyph-name="uni066E.fina.ss01" horiz-adv-x="933" 
d="M840 157h113v-157h-639c-126 0 -215 30 -289 82l66 125c65 -39 127 -50 203 -50h389v417h157v-417z" />
    <glyph glyph-name="uni066E.medi.alt" horiz-adv-x="468" 
d="M488 157v-157h-488v157h156v417h157v-417h175z" />
    <glyph glyph-name="uni066E.init.alt" horiz-adv-x="416" 
d="M0 0v157h197v417h157v-574h-354z" />
    <glyph glyph-name="uni0628" unicode="&#x628;" horiz-adv-x="861" 
d="M641 574h157v-574h-431c-220 0 -321 111 -321 315v179h157v-163c0 -122 75 -174 198 -174h240v417zM468 -91c51 0 91 -32 91 -81c0 -55 -43 -82 -91 -82s-91 27 -91 82c0 49 40 81 91 81z" />
    <glyph glyph-name="uni0628.ss01" horiz-adv-x="903" 
d="M683 574h157v-574h-526c-126 0 -215 30 -289 82l66 125c65 -39 127 -50 203 -50h389v417zM503 -91c51 0 91 -32 91 -81c0 -55 -43 -82 -91 -82s-91 27 -91 82c0 49 40 81 91 81z" />
    <glyph glyph-name="uniFE90.ss01" horiz-adv-x="933" 
d="M840 157h113v-157h-639c-126 0 -215 30 -289 82l66 125c65 -39 127 -50 203 -50h389v417h157v-417zM503 -91c51 0 91 -32 91 -81c0 -55 -43 -82 -91 -82s-91 27 -91 82c0 49 40 81 91 81z" />
    <glyph glyph-name="uni067E" unicode="&#x67e;" horiz-adv-x="861" 
d="M641 574h157v-574h-431c-220 0 -321 111 -321 315v179h157v-163c0 -122 75 -174 198 -174h240v417zM451 -173c0 -53 -41 -79 -87 -79c-45 0 -86 26 -86 79c0 47 37 77 86 77c50 0 87 -30 87 -77zM573 -96c49 0 86 -30 86 -77c0 -53 -40 -79 -86 -79s-87 26 -87 79
c0 47 37 77 87 77zM469 -255c43 0 75 -27 75 -66c0 -46 -34 -69 -75 -69c-38 0 -75 23 -75 69c0 39 32 66 75 66z" />
    <glyph glyph-name="uniFB57.ss01" horiz-adv-x="933" 
d="M840 157h113v-157h-639c-126 0 -215 30 -289 82l66 125c65 -39 127 -50 203 -50h389v417h157v-417zM486 -173c0 -53 -41 -79 -87 -79c-45 0 -86 26 -86 79c0 47 37 77 86 77c50 0 87 -30 87 -77zM608 -96c49 0 86 -30 86 -77c0 -53 -40 -79 -86 -79s-87 26 -87 79
c0 47 37 77 87 77zM504 -255c43 0 75 -27 75 -66c0 -46 -34 -69 -75 -69c-38 0 -75 23 -75 69c0 39 32 66 75 66z" />
    <glyph glyph-name="uni067E.ss01" horiz-adv-x="903" 
d="M683 574h157v-574h-526c-126 0 -215 30 -289 82l66 125c65 -39 127 -50 203 -50h389v417zM486 -173c0 -53 -41 -79 -87 -79c-45 0 -86 26 -86 79c0 47 37 77 86 77c50 0 87 -30 87 -77zM608 -96c49 0 86 -30 86 -77c0 -53 -40 -79 -86 -79s-87 26 -87 79
c0 47 37 77 87 77zM504 -255c43 0 75 -27 75 -66c0 -46 -34 -69 -75 -69c-38 0 -75 23 -75 69c0 39 32 66 75 66z" />
    <glyph glyph-name="uni062A" unicode="&#x62a;" horiz-adv-x="861" 
d="M332 638c-48 0 -90 27 -90 81c0 49 39 81 90 81s90 -32 90 -81c0 -54 -43 -81 -90 -81zM547 638c-48 0 -90 27 -90 81c0 49 39 81 90 81s90 -32 90 -81c0 -54 -43 -81 -90 -81zM641 574h157v-574h-431c-220 0 -321 111 -321 315v179h157v-163c0 -122 75 -174 198 -174
h240v417z" />
    <glyph glyph-name="uni062A.ss01" horiz-adv-x="903" 
d="M683 574h157v-574h-526c-126 0 -215 30 -289 82l66 125c65 -39 127 -50 203 -50h389v417zM294 352c-48 0 -90 27 -90 81c0 49 39 81 90 81s90 -32 90 -81c0 -54 -43 -81 -90 -81zM509 352c-48 0 -90 27 -90 81c0 49 39 81 90 81s90 -32 90 -81c0 -54 -43 -81 -90 -81z
" />
    <glyph glyph-name="uniFE96.ss01" horiz-adv-x="933" 
d="M840 157h113v-157h-639c-126 0 -215 30 -289 82l66 125c65 -39 127 -50 203 -50h389v417h157v-417zM294 352c-48 0 -90 27 -90 81c0 49 39 81 90 81s90 -32 90 -81c0 -54 -43 -81 -90 -81zM509 352c-48 0 -90 27 -90 81c0 49 39 81 90 81s90 -32 90 -81
c0 -54 -43 -81 -90 -81z" />
    <glyph glyph-name="uni062B" unicode="&#x62b;" horiz-adv-x="861" 
d="M440 795c-38 0 -75 22 -75 68c0 39 32 66 75 66s75 -27 75 -66c0 -46 -36 -68 -75 -68zM335 638c-45 0 -86 26 -86 79c0 47 37 77 86 77c50 0 87 -30 87 -77c0 -53 -41 -79 -87 -79zM457 717c0 47 37 77 87 77c49 0 86 -30 86 -77c0 -53 -40 -79 -86 -79s-87 26 -87 79z
M641 574h157v-574h-431c-220 0 -321 111 -321 315v179h157v-163c0 -122 75 -174 198 -174h240v417z" />
    <glyph glyph-name="uni062B.ss01" horiz-adv-x="903" 
d="M402 509c-38 0 -75 22 -75 68c0 39 32 66 75 66s75 -27 75 -66c0 -46 -36 -68 -75 -68zM683 574h157v-574h-526c-126 0 -215 30 -289 82l66 125c65 -39 127 -50 203 -50h389v417zM297 352c-45 0 -86 26 -86 79c0 47 37 77 86 77c50 0 87 -30 87 -77
c0 -53 -41 -79 -87 -79zM419 431c0 47 37 77 87 77c49 0 86 -30 86 -77c0 -53 -40 -79 -86 -79s-87 26 -87 79z" />
    <glyph glyph-name="uniFE9A.ss01" horiz-adv-x="933" 
d="M402 509c-38 0 -75 22 -75 68c0 39 32 66 75 66s75 -27 75 -66c0 -46 -36 -68 -75 -68zM840 157h113v-157h-639c-126 0 -215 30 -289 82l66 125c65 -39 127 -50 203 -50h389v417h157v-417zM297 352c-45 0 -86 26 -86 79c0 47 37 77 86 77c50 0 87 -30 87 -77
c0 -53 -41 -79 -87 -79zM419 431c0 47 37 77 87 77c49 0 86 -30 86 -77c0 -53 -40 -79 -86 -79s-87 26 -87 79z" />
    <glyph glyph-name="uni0679" unicode="&#x679;" horiz-adv-x="861" 
d="M562 694v-75h-245v213h95v-35h43c64 0 107 -41 107 -103zM467 694v12c0 13 -8 21 -21 21h-34v-33h55zM641 574h157v-574h-431c-220 0 -321 111 -321 315v179h157v-163c0 -122 75 -174 198 -174h240v417z" />
    <glyph glyph-name="uni0679.ss01" horiz-adv-x="903" 
d="M683 574h157v-574h-526c-126 0 -215 30 -289 82l66 125c65 -39 127 -50 203 -50h389v417zM524 408v-75h-245v213h95v-35h43c64 0 107 -41 107 -103zM429 408v12c0 13 -8 21 -21 21h-34v-33h55z" />
    <glyph glyph-name="uniFB67.ss01" horiz-adv-x="933" 
d="M840 157h113v-157h-639c-126 0 -215 30 -289 82l66 125c65 -39 127 -50 203 -50h389v417h157v-417zM524 408v-75h-245v213h95v-35h43c64 0 107 -41 107 -103zM429 408v12c0 13 -8 21 -21 21h-34v-33h55z" />
    <glyph glyph-name="uni062C" unicode="&#x62c;" horiz-adv-x="662" 
d="M325 599c192 0 291 -123 291 -323c0 -96 -25 -206 -46 -276h-229c-62 0 -90 -20 -115 -85l-59 -146l-142 55l68 168c48 121 110 165 235 165h123c10 39 17 87 17 127c0 98 -60 158 -153 158c-56 0 -98 -13 -153 -48l-56 143c69 37 144 62 219 62zM399 -104
c51 0 91 -32 91 -82c0 -55 -43 -82 -91 -82s-91 27 -91 82c0 50 40 82 91 82z" />
    <glyph glyph-name="uniFE9F.001" horiz-adv-x="601" 
d="M263 599c192 0 291 -123 291 -323c0 -96 -25 -206 -46 -276h-508v157h389c10 39 17 87 17 127c0 98 -60 158 -153 158c-56 0 -98 -13 -153 -48l-56 143c69 37 144 62 219 62zM273 -91c51 0 91 -32 91 -81c0 -55 -43 -82 -91 -82s-91 27 -91 82c0 49 40 81 91 81z" />
    <glyph glyph-name="uni0686" unicode="&#x686;" horiz-adv-x="756" 
d="M419 599c192 0 291 -123 291 -323c0 -96 -25 -206 -46 -276h-279c-84 0 -136 -28 -184 -96l-54 -71l-122 91l68 90c74 101 154 143 279 143h173c10 39 17 87 17 127c0 98 -60 158 -153 158c-56 0 -98 -13 -153 -48l-56 143c69 37 144 62 219 62zM443 -180
c0 -53 -41 -79 -87 -79c-45 0 -86 26 -86 79c0 47 37 77 86 77c50 0 87 -30 87 -77zM565 -103c49 0 86 -30 86 -77c0 -53 -40 -79 -86 -79s-87 26 -87 79c0 47 37 77 87 77zM461 -262c43 0 75 -27 75 -66c0 -46 -34 -69 -75 -69c-38 0 -75 23 -75 69c0 39 32 66 75 66z" />
    <glyph glyph-name="uni062D" unicode="&#x62d;" horiz-adv-x="662" 
d="M325 599c192 0 291 -123 291 -323c0 -96 -25 -206 -46 -276h-229c-62 0 -90 -20 -115 -85l-59 -146l-142 55l68 168c48 121 110 165 235 165h123c10 39 17 87 17 127c0 98 -60 158 -153 158c-56 0 -98 -13 -153 -48l-56 143c69 37 144 62 219 62z" />
    <glyph glyph-name="uni062D.alt" horiz-adv-x="756" 
d="M419 599c192 0 291 -123 291 -323c0 -96 -25 -206 -46 -276h-279c-84 0 -136 -28 -184 -96l-54 -71l-122 91l68 90c74 101 154 143 279 143h173c10 39 17 87 17 127c0 98 -60 158 -153 158c-56 0 -98 -13 -153 -48l-56 143c69 37 144 62 219 62z" />
    <glyph glyph-name="uniFEA2.alt" horiz-adv-x="781" 
d="M700 157h101v-157h-416c-84 0 -136 -28 -184 -96l-54 -71l-122 91l68 90c74 101 154 143 279 143h173c10 39 17 87 17 127c0 98 -60 158 -153 158c-56 0 -98 -13 -153 -48l-56 143c69 37 144 62 219 62c192 0 291 -123 291 -323c0 -39 -4 -79 -10 -119z" />
    <glyph glyph-name="uni062E" unicode="&#x62e;" horiz-adv-x="662" 
d="M343 693c-48 0 -91 27 -91 82c0 49 40 81 91 81s91 -32 91 -81c0 -55 -43 -82 -91 -82zM325 599c192 0 291 -123 291 -323c0 -96 -25 -206 -46 -276h-229c-62 0 -90 -20 -115 -85l-59 -146l-142 55l68 168c48 121 110 165 235 165h123c10 39 17 87 17 127
c0 98 -60 158 -153 158c-56 0 -98 -13 -153 -48l-56 143c69 37 144 62 219 62z" />
    <glyph glyph-name="uni062F" unicode="&#x62f;" horiz-adv-x="568" 
d="M23 0v157h345v134c0 84 -40 126 -121 126h-47v157h24c202 0 292 -102 292 -299v-275h-493z" />
    <glyph glyph-name="uni0630" unicode="&#x630;" horiz-adv-x="568" 
d="M231 668c-48 0 -91 27 -91 82c0 49 40 81 91 81s91 -32 91 -81c0 -55 -43 -82 -91 -82zM23 0v157h345v134c0 84 -40 126 -121 126h-47v157h24c202 0 292 -102 292 -299v-275h-493z" />
    <glyph glyph-name="uni0688" unicode="&#x688;" horiz-adv-x="568" 
d="M108 645v213h95v-35h43c64 0 107 -41 107 -103v-75h-245zM203 720h55v12c0 13 -8 21 -21 21h-34v-33zM23 0v157h345v134c0 84 -40 126 -121 126h-47v157h24c202 0 292 -102 292 -299v-275h-493z" />
    <glyph glyph-name="uni0631" unicode="&#x631;" horiz-adv-x="371" 
d="M81 -220c-29 0 -58 3 -84 9l-16 136c34 -2 57 -3 84 -3c50 0 86 26 86 102v550h157v-523c0 -212 -76 -271 -227 -271z" />
    <glyph glyph-name="uni0632" unicode="&#x632;" horiz-adv-x="371" 
d="M231 668c-48 0 -91 27 -91 82c0 49 40 81 91 81s91 -32 91 -81c0 -55 -43 -82 -91 -82zM81 -220c-29 0 -58 3 -84 9l-16 136c34 -2 57 -3 84 -3c50 0 86 26 86 102v550h157v-523c0 -212 -76 -271 -227 -271z" />
    <glyph glyph-name="uni0691" unicode="&#x691;" horiz-adv-x="371" 
d="M108 645v213h95v-35h43c64 0 107 -41 107 -103v-75h-245zM203 720h55v12c0 13 -8 21 -21 21h-34v-33zM81 -220c-29 0 -58 3 -84 9l-16 136c34 -2 57 -3 84 -3c50 0 86 26 86 102v550h157v-523c0 -212 -76 -271 -227 -271z" />
    <glyph glyph-name="uni0698" unicode="&#x698;" horiz-adv-x="371" 
d="M231 821c-38 0 -75 22 -75 68c0 39 32 66 75 66s75 -27 75 -66c0 -46 -36 -68 -75 -68zM126 664c-45 0 -86 26 -86 79c0 47 37 77 86 77c50 0 87 -30 87 -77c0 -53 -41 -79 -87 -79zM335 664c-46 0 -87 26 -87 79c0 47 37 77 87 77c49 0 86 -30 86 -77
c0 -53 -40 -79 -86 -79zM81 -220c-29 0 -58 3 -84 9l-16 136c34 -2 57 -3 84 -3c50 0 86 26 86 102v550h157v-523c0 -212 -76 -271 -227 -271z" />
    <glyph glyph-name="uni0633" unicode="&#x633;" horiz-adv-x="1430" 
d="M1221 578h157v-287c0 -200 -86 -301 -275 -301c-93 0 -169 37 -207 104c-44 -60 -117 -94 -212 -94h-62v-125h-255c-206 0 -321 112 -321 309v321h158v-302c0 -122 75 -171 188 -171h73v473h157v-348h62c65 0 146 29 146 134v214h156v-236c0 -77 47 -122 117 -122
c73 0 118 44 118 127v304z" />
    <glyph glyph-name="uni0633.ss01" horiz-adv-x="1522" 
d="M1313 578h157v-287c0 -200 -86 -301 -275 -301c-93 0 -169 37 -207 104c-44 -60 -117 -94 -212 -94h-63v-125h-418c-115 0 -197 26 -270 75l51 133c64 -38 127 -51 204 -51h276v473h157v-348h63c65 0 146 29 146 134v214h156v-236c0 -77 47 -122 117 -122
c73 0 118 44 118 127v304z" />
    <glyph glyph-name="uniFEB2.ss01" horiz-adv-x="1592" 
d="M1470 282c7 -86 55 -125 142 -125v-157c-89 0 -160 30 -195 83c-44 -62 -117 -93 -222 -93c-93 0 -169 37 -207 104c-44 -60 -117 -94 -212 -94h-63v-125h-418c-115 0 -197 26 -270 75l51 133c64 -38 127 -51 204 -51h276v473h157v-348h63c65 0 146 29 146 134v214h156
v-236c0 -77 47 -122 117 -122c73 0 118 44 118 127v304h157v-287v-9z" />
    <glyph glyph-name="uni0634" unicode="&#x634;" horiz-adv-x="1430" 
d="M910 752c-38 0 -75 22 -75 68c0 39 32 66 75 66s75 -27 75 -66c0 -46 -36 -68 -75 -68zM805 595c-45 0 -86 26 -86 79c0 47 37 77 86 77c50 0 87 -30 87 -77c0 -53 -41 -79 -87 -79zM927 674c0 47 37 77 87 77c49 0 86 -30 86 -77c0 -53 -40 -79 -86 -79s-87 26 -87 79z
M1221 578h157v-287c0 -200 -86 -301 -275 -301c-93 0 -169 37 -207 104c-44 -60 -117 -94 -212 -94h-62v-125h-255c-206 0 -321 112 -321 309v321h158v-302c0 -122 75 -171 188 -171h73v473h157v-348h62c65 0 146 29 146 134v214h156v-236c0 -77 47 -122 117 -122
c73 0 118 44 118 127v304z" />
    <glyph glyph-name="uni0634.ss01" horiz-adv-x="1522" 
d="M1002 752c-38 0 -75 22 -75 68c0 39 32 66 75 66s75 -27 75 -66c0 -46 -36 -68 -75 -68zM897 595c-45 0 -86 26 -86 79c0 47 37 77 86 77c50 0 87 -30 87 -77c0 -53 -41 -79 -87 -79zM1019 674c0 47 37 77 87 77c49 0 86 -30 86 -77c0 -53 -40 -79 -86 -79s-87 26 -87 79
zM1313 578h157v-287c0 -200 -86 -301 -275 -301c-93 0 -169 37 -207 104c-44 -60 -117 -94 -212 -94h-63v-125h-418c-115 0 -197 26 -270 75l51 133c64 -38 127 -51 204 -51h276v473h157v-348h63c65 0 146 29 146 134v214h156v-236c0 -77 47 -122 117 -122
c73 0 118 44 118 127v304z" />
    <glyph glyph-name="uniFEB6.ss01" horiz-adv-x="1592" 
d="M1002 752c-38 0 -75 22 -75 68c0 39 32 66 75 66s75 -27 75 -66c0 -46 -36 -68 -75 -68zM897 595c-45 0 -86 26 -86 79c0 47 37 77 86 77c50 0 87 -30 87 -77c0 -53 -41 -79 -87 -79zM1019 674c0 47 37 77 87 77c49 0 86 -30 86 -77c0 -53 -40 -79 -86 -79s-87 26 -87 79
zM1470 282c7 -86 55 -125 142 -125v-157c-89 0 -160 30 -195 83c-44 -62 -117 -93 -222 -93c-93 0 -169 37 -207 104c-44 -60 -117 -94 -212 -94h-63v-125h-418c-115 0 -197 26 -270 75l51 133c64 -38 127 -51 204 -51h276v473h157v-348h63c65 0 146 29 146 134v214h156
v-236c0 -77 47 -122 117 -122c73 0 118 44 118 127v304h157v-287v-9z" />
    <glyph glyph-name="uni0635" unicode="&#x635;" horiz-adv-x="1206" 
d="M836 574c204 -1 319 -114 318 -315v-259h-532v-125h-255c-206 0 -321 112 -321 309v321h158v-302c0 -122 75 -171 188 -171h73v598h157v-56h214zM996 157l1 130c0 86 -57 130 -147 130h-228v-260h374z" />
    <glyph glyph-name="uni0635.ss01" horiz-adv-x="1298" 
d="M927 574c204 -1 319 -114 318 -315v-259h-532v-125h-418c-115 0 -197 26 -270 75l51 133c64 -38 127 -51 204 -51h276v598h157v-56h214zM1087 157l1 130c0 86 -57 130 -147 130h-228v-260h374z" />
    <glyph glyph-name="uniFEBA.ss01" horiz-adv-x="1338" 
d="M1245 157h113v-157h-645v-125h-418c-115 0 -197 26 -270 75l51 133c64 -38 127 -51 204 -51h276v598h157v-56h214c204 -1 319 -114 318 -315v-102zM1087 157l1 130c0 86 -57 130 -147 130h-228v-260h374z" />
    <glyph glyph-name="uni0636" unicode="&#x636;" horiz-adv-x="1206" 
d="M837 668c-48 0 -91 27 -91 82c0 49 40 81 91 81s91 -32 91 -81c0 -55 -43 -82 -91 -82zM836 574c204 -1 319 -114 318 -315v-259h-532v-125h-255c-206 0 -321 112 -321 309v321h158v-302c0 -122 75 -171 188 -171h73v598h157v-56h214zM996 157l1 130
c0 86 -57 130 -147 130h-228v-260h374z" />
    <glyph glyph-name="uni0636.ss01" horiz-adv-x="1298" 
d="M929 668c-48 0 -91 27 -91 82c0 49 40 81 91 81s91 -32 91 -81c0 -55 -43 -82 -91 -82zM927 574c204 -1 319 -114 318 -315v-259h-532v-125h-418c-115 0 -197 26 -270 75l51 133c64 -38 127 -51 204 -51h276v598h157v-56h214zM1087 157l1 130c0 86 -57 130 -147 130h-228
v-260h374z" />
    <glyph glyph-name="uniFEBE.ss01" horiz-adv-x="1338" 
d="M929 668c-48 0 -91 27 -91 82c0 49 40 81 91 81s91 -32 91 -81c0 -55 -43 -82 -91 -82zM1245 157h113v-157h-645v-125h-418c-115 0 -197 26 -270 75l51 133c64 -38 127 -51 204 -51h276v598h157v-56h214c204 -1 319 -114 318 -315v-102zM1087 157l1 130
c0 86 -57 130 -147 130h-228v-260h374z" />
    <glyph glyph-name="uni0637" unicode="&#x637;" horiz-adv-x="882" 
d="M512 574c204 -1 319 -114 318 -315v-259h-808l30 157h89v654h157v-237h214zM672 157l1 130c0 86 -57 130 -147 130h-228v-260h374z" />
    <glyph glyph-name="uni0638" unicode="&#x638;" horiz-adv-x="882" 
d="M532 668c-48 0 -91 27 -91 82c0 49 40 81 91 81s91 -32 91 -81c0 -55 -43 -82 -91 -82zM512 574c204 -1 319 -114 318 -315v-259h-808l30 157h89v654h157v-237h214zM672 157l1 130c0 86 -57 130 -147 130h-228v-260h374z" />
    <glyph glyph-name="uni0639" unicode="&#x639;" horiz-adv-x="724" 
d="M678 157v-157h-340c-62 0 -90 -20 -115 -85l-59 -146l-142 55l68 168c30 76 65 121 118 145c-26 79 -37 139 -37 190c0 175 116 272 279 272c60 0 136 -20 212 -51l-52 -145c-54 25 -100 39 -149 39c-81 0 -141 -52 -141 -142c0 -46 17 -96 48 -143h310z" />
    <glyph glyph-name="uni063A" unicode="&#x63a;" horiz-adv-x="724" 
d="M451 693c-48 0 -91 27 -91 82c0 49 40 81 91 81s91 -32 91 -81c0 -55 -43 -82 -91 -82zM678 157v-157h-340c-62 0 -90 -20 -115 -85l-59 -146l-142 55l68 168c30 76 65 121 118 145c-26 79 -37 139 -37 190c0 175 116 272 279 272c60 0 136 -20 212 -51l-52 -145
c-54 25 -100 39 -149 39c-81 0 -141 -52 -141 -142c0 -46 17 -96 48 -143h310z" />
    <glyph glyph-name="uni0641" unicode="&#x641;" horiz-adv-x="1041" 
d="M769 668c-48 0 -91 27 -91 82c0 49 40 81 91 81s91 -32 91 -81c0 -55 -43 -82 -91 -82zM808 574h171v-574h-8h-184h-420c-220 0 -321 111 -321 315v179h157v-163c0 -122 75 -174 198 -174h102c-18 37 -28 81 -28 128v1c0 173 132 288 333 288zM773 157h49v261h-49
c-85 0 -151 -48 -151 -132v-1c0 -80 66 -128 151 -128z" />
    <glyph glyph-name="uni0641.ss01" horiz-adv-x="999" 
d="M746 668c-48 0 -91 27 -91 82c0 49 40 81 91 81s91 -32 91 -81c0 -55 -43 -82 -91 -82zM765 574h171v-574h-8h-167h-17h-10h-420c-126 0 -215 30 -289 82l66 125c65 -39 127 -50 203 -50h166c-18 37 -28 81 -28 128v1c0 173 132 288 333 288zM761 157h18v261h-49
c-85 0 -151 -48 -151 -132v-1c0 -80 66 -128 151 -128h4h27z" />
    <glyph glyph-name="uniFED2.ss01" horiz-adv-x="1029" 
d="M746 668c-48 0 -91 27 -91 82c0 49 40 81 91 81s91 -32 91 -81c0 -55 -43 -82 -91 -82zM936 157h113v-157h-121h-2h-165h-17h-10h-420c-126 0 -215 30 -289 82l66 125c65 -39 127 -50 203 -50h166c-18 37 -28 81 -28 128v1c0 173 132 288 333 288h171v-417zM761 157h18
v261h-49c-85 0 -151 -48 -151 -132v-1c0 -80 66 -128 151 -128h4h27z" />
    <glyph glyph-name="uni06A4" unicode="&#x6a4;" horiz-adv-x="1041" 
d="M769 821c-38 0 -75 22 -75 68c0 39 32 66 75 66s75 -27 75 -66c0 -46 -36 -68 -75 -68zM664 664c-45 0 -86 26 -86 79c0 47 37 77 86 77c50 0 87 -30 87 -77c0 -53 -41 -79 -87 -79zM786 743c0 47 37 77 87 77c49 0 86 -30 86 -77c0 -53 -40 -79 -86 -79s-87 26 -87 79z
M808 574h171v-574h-8h-184h-420c-220 0 -321 111 -321 315v179h157v-163c0 -122 75 -174 198 -174h102c-18 37 -28 81 -28 128v1c0 173 132 288 333 288zM773 157h49v261h-49c-85 0 -151 -48 -151 -132v-1c0 -80 66 -128 151 -128z" />
    <glyph glyph-name="uni06A4.ss01" horiz-adv-x="999" 
d="M746 821c-38 0 -75 22 -75 68c0 39 32 66 75 66s75 -27 75 -66c0 -46 -36 -68 -75 -68zM641 664c-45 0 -86 26 -86 79c0 47 37 77 86 77c50 0 87 -30 87 -77c0 -53 -41 -79 -87 -79zM763 743c0 47 37 77 87 77c49 0 86 -30 86 -77c0 -53 -40 -79 -86 -79s-87 26 -87 79z
M432 286c0 173 132 288 333 288h171v-574h-8h-167h-17h-10h-420c-126 0 -215 30 -289 82l66 125c65 -39 127 -50 203 -50h166c-18 37 -28 81 -28 128v1zM779 157v261h-49c-85 0 -151 -48 -151 -132v-1c0 -80 66 -128 151 -128h4h27h18z" />
    <glyph glyph-name="uniFB6B.ss01" horiz-adv-x="1072" 
d="M769 821c-38 0 -75 22 -75 68c0 39 32 66 75 66s75 -27 75 -66c0 -46 -36 -68 -75 -68zM664 664c-45 0 -86 26 -86 79c0 47 37 77 86 77c50 0 87 -30 87 -77c0 -53 -41 -79 -87 -79zM786 743c0 47 37 77 87 77c49 0 86 -30 86 -77c0 -53 -40 -79 -86 -79s-87 26 -87 79z
M979 157h113v-157h-121h-2h-182h-420c-220 0 -321 111 -321 315v179h157v-163c0 -122 75 -174 198 -174h102c-18 37 -28 81 -28 128v1c0 173 132 288 333 288h171v-417zM773 157h49v261h-49c-85 0 -151 -48 -151 -132v-1c0 -80 66 -128 151 -128z" />
    <glyph glyph-name="uni06A1" unicode="&#x6a1;" horiz-adv-x="1041" 
d="M808 574h171v-574h-8h-184h-420c-220 0 -321 111 -321 315v179h157v-163c0 -122 75 -174 198 -174h102c-18 37 -28 81 -28 128v1c0 173 132 288 333 288zM773 157h49v261h-49c-85 0 -151 -48 -151 -132v-1c0 -80 66 -128 151 -128z" />
    <glyph glyph-name="uni06A1.ss01" horiz-adv-x="999" 
d="M765 574h171v-574h-8h-167h-17h-10h-420c-126 0 -215 30 -289 82l66 125c65 -39 127 -50 203 -50h166c-18 37 -28 81 -28 128v1c0 173 132 288 333 288zM761 157h18v261h-49c-85 0 -151 -48 -151 -132v-1c0 -80 66 -128 151 -128h4h27z" />
    <glyph glyph-name="uni06A1.fina.ss01" horiz-adv-x="1029" 
d="M936 157h113v-157h-121h-2h-165h-17h-10h-420c-126 0 -215 30 -289 82l66 125c65 -39 127 -50 203 -50h166c-18 37 -28 81 -28 128v1c0 173 132 288 333 288h171v-417zM761 157h18v261h-49c-85 0 -151 -48 -151 -132v-1c0 -80 66 -128 151 -128h4h27z" />
    <glyph glyph-name="uni066F" unicode="&#x66f;" horiz-adv-x="890" 
d="M657 574h171v-794h-461c-216 0 -321 106 -321 315v204h157v-188c0 -126 81 -174 198 -174h270v89h-35c-186 0 -312 92 -312 259v1c0 173 132 288 333 288zM671 157v261h-49c-85 0 -151 -48 -151 -132v-1c0 -80 66 -128 151 -128h49z" />
    <glyph glyph-name="uni066F.ss01" horiz-adv-x="880" 
d="M647 574h171v-794h-504c-126 0 -215 30 -289 82l66 125c65 -39 127 -50 203 -50h367v89h-35c-186 0 -312 92 -312 259v1c0 173 132 288 333 288zM661 157v261h-49c-85 0 -151 -48 -151 -132v-1c0 -80 66 -128 151 -128h49z" />
    <glyph glyph-name="uni066F.fina.ss01" horiz-adv-x="911" 
d="M931 157v-157h-113v-220h-504c-126 0 -215 30 -289 82l66 125c65 -39 127 -50 203 -50h367v89h-35c-186 0 -312 92 -312 259v1c0 173 132 288 333 288h171v-417h113zM612 157h49v261h-49c-85 0 -151 -48 -151 -132v-1c0 -80 66 -128 151 -128z" />
    <glyph glyph-name="uni0642" unicode="&#x642;" horiz-adv-x="890" 
d="M519 664c-48 0 -90 27 -90 81c0 49 39 81 90 81s90 -32 90 -81c0 -54 -43 -81 -90 -81zM734 664c-48 0 -90 27 -90 81c0 49 39 81 90 81s90 -32 90 -81c0 -54 -43 -81 -90 -81zM657 574h171v-794h-461c-216 0 -321 106 -321 315v204h157v-188c0 -126 81 -174 198 -174
h270v89h-35c-186 0 -312 92 -312 259v1c0 173 132 288 333 288zM671 157v261h-49c-85 0 -151 -48 -151 -132v-1c0 -80 66 -128 151 -128h49z" />
    <glyph glyph-name="uni0642.ss01" horiz-adv-x="880" 
d="M503 664c-48 0 -90 27 -90 81c0 49 39 81 90 81s90 -32 90 -81c0 -54 -43 -81 -90 -81zM718 664c-48 0 -90 27 -90 81c0 49 39 81 90 81s90 -32 90 -81c0 -54 -43 -81 -90 -81zM647 574h171v-794h-504c-126 0 -215 30 -289 82l66 125c65 -39 127 -50 203 -50h367v89h-35
c-186 0 -312 92 -312 259v1c0 173 132 288 333 288zM661 157v261h-49c-85 0 -151 -48 -151 -132v-1c0 -80 66 -128 151 -128h49z" />
    <glyph glyph-name="uniFED6.ss01" horiz-adv-x="911" 
d="M503 664c-48 0 -90 27 -90 81c0 49 39 81 90 81s90 -32 90 -81c0 -54 -43 -81 -90 -81zM718 664c-48 0 -90 27 -90 81c0 49 39 81 90 81s90 -32 90 -81c0 -54 -43 -81 -90 -81zM931 157v-157h-113v-220h-504c-126 0 -215 30 -289 82l66 125c65 -39 127 -50 203 -50h367
v89h-35c-186 0 -312 92 -312 259v1c0 173 132 288 333 288h171v-417h113zM612 157h49v261h-49c-85 0 -151 -48 -151 -132v-1c0 -80 66 -128 151 -128z" />
    <glyph glyph-name="uni0643" unicode="&#x643;" horiz-adv-x="876" 
d="M641 811h157v-811h-431c-220 0 -321 111 -321 315v179h157v-163c0 -122 75 -174 198 -174h240v654zM553 608v-120h-234v130c0 72 47 120 118 120h81v-90h-71c-17 0 -28 -10 -28 -26v-14h134z" />
    <glyph glyph-name="uni0643.ss01" horiz-adv-x="918" 
d="M683 811h157v-811h-526c-126 0 -215 30 -289 82l66 125c65 -39 127 -50 203 -50h389v654zM539 487v-120h-234v130c0 72 47 120 118 120h81v-90h-71c-17 0 -28 -10 -28 -26v-14h134z" />
    <glyph glyph-name="uniFEDA.ss01" horiz-adv-x="933" 
d="M840 157h113v-157h-639c-126 0 -215 30 -289 82l66 125c65 -39 127 -50 203 -50h389v654h157v-654zM539 487v-120h-234v130c0 72 47 120 118 120h81v-90h-71c-17 0 -28 -10 -28 -26v-14h134z" />
    <glyph glyph-name="uni06A9" unicode="&#x6a9;" horiz-adv-x="971" 
d="M627 533c193 0 292 -95 292 -299v-234h-552c-220 0 -321 111 -321 315v179h157v-163c0 -122 75 -174 198 -174h359v104c0 76 -44 115 -114 115h-246c-25 35 -48 89 -49 156l146 280h192l-162 -279h100z" />
    <glyph glyph-name="uni06A9.ss01" horiz-adv-x="953" 
d="M609 533c193 0 291 -95 291 -299v-234h-586c-126 0 -215 30 -289 82l66 125c65 -39 127 -50 203 -50h448v104c0 76 -44 115 -114 115h-280c-25 35 -48 89 -50 156l147 279h191l-161 -278h134z" />
    <glyph glyph-name="uniFB8F.ss01" horiz-adv-x="993" 
d="M900 157h113v-157h-699c-126 0 -215 30 -289 82l66 125c65 -39 127 -50 203 -50h448v104c0 76 -44 115 -114 115h-280c-25 35 -48 89 -50 156l147 279h191l-161 -278h134c193 0 291 -95 291 -299v-77z" />
    <glyph glyph-name="uni06AF" unicode="&#x6af;" horiz-adv-x="971" 
d="M627 533c193 0 292 -95 292 -299v-234h-552c-220 0 -321 111 -321 315v179h157v-163c0 -122 75 -174 198 -174h359v104c0 76 -44 115 -114 115h-246c-25 35 -48 89 -49 156l146 280h192l-162 -279h100zM433 812l-157 -287l-127 -1l158 288h126z" />
    <glyph glyph-name="uni06AF.ss01" horiz-adv-x="953" 
d="M405 812l-157 -287l-127 -1l158 288h126zM609 533c193 0 291 -95 291 -299v-234h-586c-126 0 -215 30 -289 82l66 125c65 -39 127 -50 203 -50h448v104c0 76 -44 115 -114 115h-280c-25 35 -48 89 -50 156l147 279h191l-161 -278h134z" />
    <glyph glyph-name="uniFB93.ss01" horiz-adv-x="993" 
d="M405 812l-157 -287l-127 -1l158 288h126zM900 157h113v-157h-699c-126 0 -215 30 -289 82l66 125c65 -39 127 -50 203 -50h448v104c0 76 -44 115 -114 115h-280c-25 35 -48 89 -50 156l147 279h191l-161 -278h134c193 0 291 -95 291 -299v-77z" />
    <glyph glyph-name="uni06AA" unicode="&#x6aa;" horiz-adv-x="971" 
d="M627 533c193 0 292 -95 292 -299v-234h-552c-220 0 -321 111 -321 315v179h157v-163c0 -122 75 -174 198 -174h359v104c0 76 -44 115 -114 115h-246c-25 35 -48 89 -49 156l146 280h192l-162 -279h100z" />
    <glyph glyph-name="uni0644" unicode="&#x644;" horiz-adv-x="700" 
d="M465 811h157v-936h-255c-206 0 -321 112 -321 309v321h158v-302c0 -122 75 -171 188 -171h73v779z" />
    <glyph glyph-name="uni0644.ss01" horiz-adv-x="791" 
d="M556 811h157v-936h-418c-115 0 -197 26 -270 75l51 133c64 -38 127 -51 204 -51h276v779z" />
    <glyph glyph-name="uniFEDE.ss01" horiz-adv-x="806" 
d="M826 157v-157h-113v-125h-418c-115 0 -197 26 -270 75l51 133c64 -38 127 -51 204 -51h276v779h157v-654h113z" />
    <glyph glyph-name="uni0645" unicode="&#x645;" horiz-adv-x="910" 
d="M584 505c173 0 289 -125 289 -313v-1c0 -181 -116 -302 -289 -302h-1c-146 0 -251 84 -282 217c-69 -10 -98 -70 -98 -157v-169h-156v193c0 177 92 281 251 290c26 148 133 242 285 242h1zM716 195v1c0 92 -52 153 -132 153h-1c-81 0 -135 -61 -135 -153v-1
c0 -90 54 -150 135 -150h1c80 0 132 60 132 150z" />
    <glyph glyph-name="uni0645.ss01" horiz-adv-x="892" 
d="M567 505c173 0 289 -125 289 -313v-1c0 -181 -116 -302 -289 -302h-1c-81 0 -150 26 -200 72l-283 -193l-83 133l287 195c-8 30 -12 61 -12 95v1c0 188 116 313 291 313h1zM699 195v1c0 92 -52 153 -132 153h-1c-81 0 -135 -61 -135 -153v-1c0 -90 54 -150 135 -150h1
c80 0 132 60 132 150z" />
    <glyph glyph-name="uniFEE2.ss01" horiz-adv-x="918" 
d="M938 157v-157h-138c-51 -70 -132 -111 -233 -111h-1c-81 0 -150 26 -200 72l-283 -193l-83 133l287 195c-8 30 -12 61 -12 95v1c0 188 116 313 291 313h1c173 0 289 -125 289 -313v-1c0 -12 0 -23 -1 -34h83zM699 195v1c0 92 -52 153 -132 153h-1
c-81 0 -135 -61 -135 -153v-1c0 -90 54 -150 135 -150h1c80 0 132 60 132 150z" />
    <glyph glyph-name="uni0646" unicode="&#x646;" horiz-adv-x="684" 
d="M337 599c-48 0 -91 27 -91 82c0 49 40 81 91 81s91 -32 91 -81c0 -55 -43 -82 -91 -82zM367 -125c-206 0 -321 112 -321 309v321h158v-302c0 -122 75 -171 188 -171h73v473h157v-630h-255z" />
    <glyph glyph-name="uni0646.ss01" horiz-adv-x="776" 
d="M556 505h157v-630h-418c-115 0 -197 26 -270 75l51 133c64 -38 127 -51 204 -51h276v473zM299 223c-48 0 -91 27 -91 82c0 49 40 81 91 81s91 -32 91 -81c0 -55 -43 -82 -91 -82z" />
    <glyph glyph-name="uniFEE6.ss01" horiz-adv-x="806" 
d="M826 157v-157h-113v-125h-418c-115 0 -197 26 -270 75l51 133c64 -38 127 -51 204 -51h276v473h157v-348h113zM299 223c-48 0 -91 27 -91 82c0 49 40 81 91 81s91 -32 91 -81c0 -55 -43 -82 -91 -82z" />
    <glyph glyph-name="uni06BA" unicode="&#x6ba;" horiz-adv-x="684" 
d="M367 -125c-206 0 -321 112 -321 309v321h158v-302c0 -122 75 -171 188 -171h73v473h157v-630h-255z" />
    <glyph glyph-name="uni06BA.ss01" horiz-adv-x="776" 
d="M556 505h157v-630h-418c-115 0 -197 26 -270 75l51 133c64 -38 127 -51 204 -51h276v473z" />
    <glyph glyph-name="uniFB9F.ss01" horiz-adv-x="806" 
d="M826 157v-157h-113v-125h-418c-115 0 -197 26 -270 75l51 133c64 -38 127 -51 204 -51h276v473h157v-348h113z" />
    <glyph glyph-name="uni0647" unicode="&#x647;" horiz-adv-x="615" 
d="M395 624h157v-624h-157h-35c-187 0 -312 114 -312 285v1c0 173 132 288 333 288h14v50zM395 157v261h-49c-85 0 -151 -48 -151 -132v-1c0 -80 66 -128 151 -128h49z" />
    <glyph glyph-name="uni06C0" unicode="&#x6c0;" horiz-adv-x="615" 
d="M433 798h134v-120h-234v130c0 72 47 120 118 120h81v-90h-71c-17 0 -28 -10 -28 -26v-14zM395 574v50h157v-624h-157h-35c-187 0 -312 114 -312 285v1c0 173 132 288 333 288h14zM395 157v261h-49c-85 0 -151 -48 -151 -132v-1c0 -80 66 -128 151 -128h49z" />
    <glyph glyph-name="uni06C1" unicode="&#x6c1;" horiz-adv-x="615" 
d="M395 624h157v-624h-157h-35c-187 0 -312 114 -312 285v1c0 173 132 288 333 288h14v50zM395 157v261h-49c-85 0 -151 -48 -151 -132v-1c0 -80 66 -128 151 -128h49z" />
    <glyph glyph-name="uni06C2" unicode="&#x6c2;" horiz-adv-x="615" 
d="M433 798h134v-120h-234v130c0 72 47 120 118 120h81v-90h-71c-17 0 -28 -10 -28 -26v-14zM395 574v50h157v-624h-157h-35c-187 0 -312 114 -312 285v1c0 173 132 288 333 288h14zM395 157v261h-49c-85 0 -151 -48 -151 -132v-1c0 -80 66 -128 151 -128h49z" />
    <glyph glyph-name="uni06BE" unicode="&#x6be;" horiz-adv-x="855" 
d="M419 690c231 0 421 -144 421 -415c0 -68 -11 -162 -32 -275h-786l30 157h109c-4 25 -5 50 -5 73c0 136 96 226 225 226c128 0 224 -88 224 -221c0 -24 -2 -52 -5 -78h75c5 44 7 68 7 106c0 182 -121 270 -288 270c-77 0 -148 -19 -221 -59l-55 141c98 48 211 75 301 75z
M312 212c0 -19 1 -38 3 -55h131c2 17 3 36 3 55c0 52 -28 87 -71 87c-40 0 -66 -35 -66 -87z" />
    <glyph glyph-name="uni0629" unicode="&#x629;" horiz-adv-x="615" 
d="M253 695c-48 0 -90 27 -90 81c0 49 39 81 90 81s90 -32 90 -81c0 -54 -43 -81 -90 -81zM468 695c-48 0 -90 27 -90 81c0 49 39 81 90 81s90 -32 90 -81c0 -54 -43 -81 -90 -81zM395 574v50h157v-624h-157h-35c-187 0 -312 114 -312 285v1c0 173 132 288 333 288h14z
M395 157v261h-49c-85 0 -151 -48 -151 -132v-1c0 -80 66 -128 151 -128h49z" />
    <glyph glyph-name="uni06C3" unicode="&#x6c3;" horiz-adv-x="615" 
d="M253 695c-48 0 -90 27 -90 81c0 49 39 81 90 81s90 -32 90 -81c0 -54 -43 -81 -90 -81zM468 695c-48 0 -90 27 -90 81c0 49 39 81 90 81s90 -32 90 -81c0 -54 -43 -81 -90 -81zM395 574v50h157v-624h-157h-35c-187 0 -312 114 -312 285v1c0 173 132 288 333 288h14z
M395 157v261h-49c-85 0 -151 -48 -151 -132v-1c0 -80 66 -128 151 -128h49z" />
    <glyph glyph-name="uni0648" unicode="&#x648;" horiz-adv-x="615" 
d="M381 574h171v-518c0 -213 -85 -276 -263 -276c-48 0 -94 4 -136 13l-34 167c53 -15 109 -23 163 -23c58 0 101 13 111 63h-33c-187 0 -312 114 -312 285v1c0 173 132 288 333 288zM395 157v261h-49c-85 0 -151 -48 -151 -132v-1c0 -80 66 -128 151 -128h49z" />
    <glyph glyph-name="uni0624" unicode="&#x624;" horiz-adv-x="615" 
d="M509 757v-120h-234v130c0 72 47 120 118 120h81v-90h-71c-17 0 -28 -10 -28 -26v-14h134zM381 574h171v-518c0 -213 -85 -276 -263 -276c-48 0 -94 4 -136 13l-34 167c53 -15 109 -23 163 -23c58 0 101 13 111 63h-33c-187 0 -312 114 -312 285v1c0 173 132 288 333 288z
M395 157v261h-49c-85 0 -151 -48 -151 -132v-1c0 -80 66 -128 151 -128h49z" />
    <glyph glyph-name="uni0649" unicode="&#x649;" horiz-adv-x="1071" 
d="M819 574h190v-574h-157v426h-62c-75 0 -110 -43 -110 -115v-436h-313c-216 0 -321 106 -321 315v204h157v-188c0 -126 81 -174 198 -174h122v250c0 198 100 292 296 292z" />
    <glyph glyph-name="uni0649.ss01" horiz-adv-x="1058" 
d="M805 574h190v-574h-157v426h-62c-75 0 -110 -43 -110 -115v-436h-352c-126 0 -215 30 -289 82l66 125c65 -39 127 -50 203 -50h215v250c0 198 100 292 296 292z" />
    <glyph glyph-name="uniFEF0.ss01" horiz-adv-x="1088" 
d="M995 157h113v-157h-270v426h-62c-75 0 -110 -43 -110 -115v-436h-352c-126 0 -215 30 -289 82l66 125c65 -39 127 -50 203 -50h215v250c0 198 100 292 296 292h190v-417z" />
    <glyph glyph-name="uni064A" unicode="&#x64a;" horiz-adv-x="1071" 
d="M819 574h190v-574h-157v426h-62c-75 0 -110 -43 -110 -115v-436h-313c-216 0 -321 106 -321 315v204h157v-188c0 -126 81 -174 198 -174h122v250c0 198 100 292 296 292zM350 -216c51 0 90 -32 90 -81c0 -54 -43 -81 -90 -81c-48 0 -90 27 -90 81c0 49 39 81 90 81z
M565 -216c51 0 90 -32 90 -81c0 -54 -43 -81 -90 -81c-48 0 -90 27 -90 81c0 49 39 81 90 81z" />
    <glyph glyph-name="uni064A.ss01" horiz-adv-x="1058" 
d="M805 574h190v-574h-157v426h-62c-75 0 -110 -43 -110 -115v-436h-352c-126 0 -215 30 -289 82l66 125c65 -39 127 -50 203 -50h215v250c0 198 100 292 296 292zM329 377c-47 0 -90 27 -90 81c0 49 39 81 90 81s90 -32 90 -81c0 -54 -43 -81 -90 -81zM329 166
c-47 0 -90 27 -90 81c0 49 39 81 90 81c50 0 90 -32 90 -81c0 -54 -43 -81 -90 -81z" />
    <glyph glyph-name="uniFEF2.ss01" horiz-adv-x="1088" 
d="M995 157h113v-157h-270v426h-62c-75 0 -110 -43 -110 -115v-436h-352c-126 0 -215 30 -289 82l66 125c65 -39 127 -50 203 -50h215v250c0 198 100 292 296 292h190v-417zM329 377c-47 0 -90 27 -90 81c0 49 39 81 90 81s90 -32 90 -81c0 -54 -43 -81 -90 -81zM329 166
c-47 0 -90 27 -90 81c0 49 39 81 90 81c50 0 90 -32 90 -81c0 -54 -43 -81 -90 -81z" />
    <glyph glyph-name="uni0626" unicode="&#x626;" horiz-adv-x="1071" 
d="M930 757v-120h-234v130c0 72 47 120 118 120h81v-90h-71c-17 0 -28 -10 -28 -26v-14h134zM819 574h190v-574h-157v426h-62c-75 0 -110 -43 -110 -115v-436h-313c-216 0 -321 106 -321 315v204h157v-188c0 -126 81 -174 198 -174h122v250c0 198 100 292 296 292z" />
    <glyph glyph-name="uni0626.ss01" horiz-adv-x="1058" 
d="M926 757v-120h-234v130c0 72 47 120 118 120h81v-90h-71c-17 0 -28 -10 -28 -26v-14h134zM805 574h190v-574h-157v426h-62c-75 0 -110 -43 -110 -115v-436h-352c-126 0 -215 30 -289 82l66 125c65 -39 127 -50 203 -50h215v250c0 198 100 292 296 292z" />
    <glyph glyph-name="uniFE8A.ss01" horiz-adv-x="1088" 
d="M926 757v-120h-234v130c0 72 47 120 118 120h81v-90h-71c-17 0 -28 -10 -28 -26v-14h134zM995 157h113v-157h-270v426h-62c-75 0 -110 -43 -110 -115v-436h-352c-126 0 -215 30 -289 82l66 125c65 -39 127 -50 203 -50h215v250c0 198 100 292 296 292h190v-417z" />
    <glyph glyph-name="uni06CC" unicode="&#x6cc;" horiz-adv-x="1071" 
d="M819 574h190v-574h-157v426h-62c-75 0 -110 -43 -110 -115v-436h-313c-216 0 -321 106 -321 315v204h157v-188c0 -126 81 -174 198 -174h122v250c0 198 100 292 296 292z" />
    <glyph glyph-name="uni06CC.ss01" horiz-adv-x="1058" 
d="M805 574h190v-574h-157v426h-62c-75 0 -110 -43 -110 -115v-436h-352c-126 0 -215 30 -289 82l66 125c65 -39 127 -50 203 -50h215v250c0 198 100 292 296 292z" />
    <glyph glyph-name="uniFBFD.ss01" horiz-adv-x="1088" 
d="M995 157h113v-157h-270v426h-62c-75 0 -110 -43 -110 -115v-436h-352c-126 0 -215 30 -289 82l66 125c65 -39 127 -50 203 -50h215v250c0 198 100 292 296 292h190v-417z" />
    <glyph glyph-name="uni06D2" unicode="&#x6d2;" horiz-adv-x="970" 
d="M46 0v205c0 201 94 299 292 299h42c44 0 67 18 67 63v44h157v-45c0 -171 -77 -219 -214 -219h-66c-81 0 -121 -42 -121 -126v-64h721v-157h-878z" />
    <glyph glyph-name="uni06D3" unicode="&#x6d3;" horiz-adv-x="970" 
d="M433 679v73c0 71 48 108 117 108h35v-67h-39c-16 0 -27 -11 -27 -28v-10h92v-76h-178zM46 0v205c0 201 94 299 292 299h42c44 0 67 18 67 63v44h157v-45c0 -171 -77 -219 -214 -219h-66c-81 0 -121 -42 -121 -126v-64h721v-157h-878z" />
    <glyph glyph-name="uni06D5" unicode="&#x6d5;" horiz-adv-x="615" 
d="M395 624h157v-624h-157h-35c-187 0 -312 114 -312 285v1c0 173 132 288 333 288h14v50zM395 157v261h-49c-85 0 -151 -48 -151 -132v-1c0 -80 66 -128 151 -128h49z" />
    <glyph glyph-name="uni0640" unicode="&#x640;" horiz-adv-x="155" 
d="M0 0v157h175v-157h-175z" />
    <glyph glyph-name="uni0640.alt" horiz-adv-x="103" 
d="M0 0v157h123v-157h-123z" />
    <glyph glyph-name="uni066E0649.fina" horiz-adv-x="1214" 
d="M1211 157h23v-157h-23c-187 0 -284 103 -284 300v126h-108c-94 0 -139 -54 -139 -144v-407h-313c-216 0 -321 106 -321 315v204h157v-188c0 -126 81 -174 198 -174h122v250c0 198 100 292 296 292h108v120h157v-404c0 -87 43 -133 127 -133z" />
    <glyph glyph-name="uni066E0649.fina.ss01" horiz-adv-x="1197" 
d="M1193 157h24v-157h-24c-186 0 -284 103 -284 300v126h-107c-94 0 -139 -54 -139 -144v-407h-349c-126 0 -215 30 -289 82l66 125c65 -39 127 -50 203 -50h212v250c0 198 100 292 295 292h108v120h157v-404c0 -87 44 -133 127 -133z" />
    <glyph glyph-name="uniFC6D.ss01" horiz-adv-x="1219" 
d="M1216 157h23v-157h-23c-186 0 -284 103 -284 300v48h-219v-473h-418c-115 0 -197 26 -270 75l51 133c64 -38 127 -51 204 -51h276v473h376v120h157v-335c0 -87 43 -133 127 -133zM324 223c-48 0 -91 27 -91 82c0 49 40 81 91 81s91 -32 91 -81c0 -55 -43 -82 -91 -82z
M961 -91c51 0 91 -32 91 -81c0 -55 -43 -82 -91 -82s-91 27 -91 82c0 49 40 81 91 81z" />
    <glyph glyph-name="uniFC6E.ss01" horiz-adv-x="1197" 
d="M1193 157h24v-157h-24c-186 0 -284 103 -284 300v126h-107c-94 0 -139 -54 -139 -144v-407h-349c-126 0 -215 30 -289 82l66 125c65 -39 127 -50 203 -50h212v250c0 198 100 292 295 292h108v120h157v-404c0 -87 44 -133 127 -133zM916 -91c51 0 91 -32 91 -81
c0 -55 -43 -82 -91 -82s-91 27 -91 82c0 49 40 81 91 81z" />
    <glyph glyph-name="uniFC6F.ss01" horiz-adv-x="1197" 
d="M1193 157h24v-157h-24c-186 0 -284 103 -284 300v126h-107c-94 0 -139 -54 -139 -144v-407h-349c-126 0 -215 30 -289 82l66 125c65 -39 127 -50 203 -50h212v250c0 198 100 292 295 292h108v120h157v-404c0 -87 44 -133 127 -133zM329 377c-47 0 -90 27 -90 81
c0 49 39 81 90 81s90 -32 90 -81c0 -54 -43 -81 -90 -81zM329 166c-47 0 -90 27 -90 81c0 49 39 81 90 81c50 0 90 -32 90 -81c0 -54 -43 -81 -90 -81zM916 -91c51 0 91 -32 91 -81c0 -55 -43 -82 -91 -82s-91 27 -91 82c0 49 40 81 91 81z" />
    <glyph glyph-name="uni06280626.fina" horiz-adv-x="1214" 
d="M1211 157h23v-157h-23c-187 0 -284 103 -284 300v126h-108c-94 0 -139 -54 -139 -144v-407h-313c-216 0 -321 106 -321 315v204h157v-188c0 -126 81 -174 198 -174h122v250c0 198 100 292 296 292h108v120h157v-404c0 -87 43 -133 127 -133zM213 538v-76h-178v73
c0 71 48 108 117 108h35v-67h-39c-16 0 -27 -11 -27 -28v-10h92zM936 -91c51 0 91 -32 91 -81c0 -55 -43 -82 -91 -82s-91 27 -91 82c0 49 40 81 91 81z" />
    <glyph glyph-name="uni06280626.fina.ss01" horiz-adv-x="1197" 
d="M1193 157h24v-157h-24c-186 0 -284 103 -284 300v126h-107c-94 0 -139 -54 -139 -144v-407h-349c-126 0 -215 30 -289 82l66 125c65 -39 127 -50 203 -50h212v250c0 198 100 292 295 292h108v120h157v-404c0 -87 44 -133 127 -133zM385 301v-76h-178v73
c0 71 48 108 117 108h35v-67h-39c-16 0 -27 -11 -27 -28v-10h92zM916 -91c51 0 91 -32 91 -81c0 -55 -43 -82 -91 -82s-91 27 -91 82c0 49 40 81 91 81z" />
    <glyph glyph-name="uni067E0631.fina" horiz-adv-x="790" 
d="M787 157h23v-157h-23c-186 0 -284 103 -284 300v117h-195v-366c0 -212 -76 -271 -227 -271c-29 0 -58 3 -84 9l-16 136c34 -2 57 -3 84 -3c50 0 86 26 86 102v550h352v120h157v-404c0 -87 44 -133 127 -133zM504 -173c0 -53 -41 -79 -87 -79c-45 0 -86 26 -86 79
c0 47 37 77 86 77c50 0 87 -30 87 -77zM626 -96c49 0 86 -30 86 -77c0 -53 -40 -79 -86 -79s-87 26 -87 79c0 47 37 77 87 77zM522 -255c43 0 75 -27 75 -66c0 -46 -34 -69 -75 -69c-38 0 -75 23 -75 69c0 39 32 66 75 66z" />
    <glyph glyph-name="uni067E0632.fina" horiz-adv-x="790" 
d="M219 668c-48 0 -91 27 -91 82c0 49 40 81 91 81s91 -32 91 -81c0 -55 -43 -82 -91 -82zM787 157h23v-157h-23c-186 0 -284 103 -284 300v117h-195v-366c0 -212 -76 -271 -227 -271c-29 0 -58 3 -84 9l-16 136c34 -2 57 -3 84 -3c50 0 86 26 86 102v550h352v120h157v-404
c0 -87 44 -133 127 -133zM504 -173c0 -53 -41 -79 -87 -79c-45 0 -86 26 -86 79c0 47 37 77 86 77c50 0 87 -30 87 -77zM626 -96c49 0 86 -30 86 -77c0 -53 -40 -79 -86 -79s-87 26 -87 79c0 47 37 77 87 77zM522 -255c43 0 75 -27 75 -66c0 -46 -34 -69 -75 -69
c-38 0 -75 23 -75 69c0 39 32 66 75 66z" />
    <glyph glyph-name="uni067E0646.fina" horiz-adv-x="1128" 
d="M337 599c-48 0 -91 27 -91 82c0 49 40 81 91 81s91 -32 91 -81c0 -55 -43 -82 -91 -82zM1124 157h24v-157h-24c-186 0 -284 103 -284 300v48h-218v-473h-255c-206 0 -321 112 -321 309v321h158v-302c0 -122 75 -171 188 -171h73v473h375v120h157v-335
c0 -87 44 -133 127 -133zM852 -173c0 -53 -41 -79 -87 -79c-45 0 -86 26 -86 79c0 47 37 77 86 77c50 0 87 -30 87 -77zM974 -96c49 0 86 -30 86 -77c0 -53 -40 -79 -86 -79s-87 26 -87 79c0 47 37 77 87 77zM870 -255c43 0 75 -27 75 -66c0 -46 -34 -69 -75 -69
c-38 0 -75 23 -75 69c0 39 32 66 75 66z" />
    <glyph glyph-name="uni067E0646.fina.ss01" horiz-adv-x="1219" 
d="M1216 157h23v-157h-23c-186 0 -284 103 -284 300v48h-219v-473h-418c-115 0 -197 26 -270 75l51 133c64 -38 127 -51 204 -51h276v473h376v120h157v-335c0 -87 43 -133 127 -133zM324 223c-48 0 -91 27 -91 82c0 49 40 81 91 81s91 -32 91 -81c0 -55 -43 -82 -91 -82z
M944 -173c0 -53 -41 -79 -87 -79c-45 0 -86 26 -86 79c0 47 37 77 86 77c50 0 87 -30 87 -77zM1066 -96c49 0 86 -30 86 -77c0 -53 -40 -79 -86 -79s-87 26 -87 79c0 47 37 77 87 77zM962 -255c43 0 75 -27 75 -66c0 -46 -34 -69 -75 -69c-38 0 -75 23 -75 69
c0 39 32 66 75 66z" />
    <glyph glyph-name="uni067E0649.fina" horiz-adv-x="1214" 
d="M1211 157h23v-157h-23c-187 0 -284 103 -284 300v126h-108c-94 0 -139 -54 -139 -144v-407h-313c-216 0 -321 106 -321 315v204h157v-188c0 -126 81 -174 198 -174h122v250c0 198 100 292 296 292h108v120h157v-404c0 -87 43 -133 127 -133zM919 -173
c0 -53 -41 -79 -87 -79c-45 0 -86 26 -86 79c0 47 37 77 86 77c50 0 87 -30 87 -77zM1041 -96c49 0 86 -30 86 -77c0 -53 -40 -79 -86 -79s-87 26 -87 79c0 47 37 77 87 77zM937 -255c43 0 75 -27 75 -66c0 -46 -34 -69 -75 -69c-38 0 -75 23 -75 69c0 39 32 66 75 66z" />
    <glyph glyph-name="uni067E0649.fina.ss01" horiz-adv-x="1197" 
d="M1193 157h24v-157h-24c-186 0 -284 103 -284 300v126h-107c-94 0 -139 -54 -139 -144v-407h-349c-126 0 -215 30 -289 82l66 125c65 -39 127 -50 203 -50h212v250c0 198 100 292 295 292h108v120h157v-404c0 -87 44 -133 127 -133zM899 -173c0 -53 -41 -79 -87 -79
c-45 0 -86 26 -86 79c0 47 37 77 86 77c50 0 87 -30 87 -77zM1021 -96c49 0 86 -30 86 -77c0 -53 -40 -79 -86 -79s-87 26 -87 79c0 47 37 77 87 77zM917 -255c43 0 75 -27 75 -66c0 -46 -34 -69 -75 -69c-38 0 -75 23 -75 69c0 39 32 66 75 66z" />
    <glyph glyph-name="uni067E064A.fina" horiz-adv-x="1214" 
d="M1211 157h23v-157h-23c-187 0 -284 103 -284 300v126h-108c-94 0 -139 -54 -139 -144v-407h-313c-216 0 -321 106 -321 315v204h157v-188c0 -126 81 -174 198 -174h122v250c0 198 100 292 296 292h108v120h157v-404c0 -87 43 -133 127 -133zM919 -173
c0 -53 -41 -79 -87 -79c-45 0 -86 26 -86 79c0 47 37 77 86 77c50 0 87 -30 87 -77zM1041 -96c49 0 86 -30 86 -77c0 -53 -40 -79 -86 -79s-87 26 -87 79c0 47 37 77 87 77zM350 -216c51 0 90 -32 90 -81c0 -54 -43 -81 -90 -81c-48 0 -90 27 -90 81c0 49 39 81 90 81z
M565 -216c51 0 90 -32 90 -81c0 -54 -43 -81 -90 -81c-48 0 -90 27 -90 81c0 49 39 81 90 81zM937 -255c43 0 75 -27 75 -66c0 -46 -34 -69 -75 -69c-38 0 -75 23 -75 69c0 39 32 66 75 66z" />
    <glyph glyph-name="uni067E064A.fina.ss01" horiz-adv-x="1197" 
d="M1193 157h24v-157h-24c-186 0 -284 103 -284 300v126h-107c-94 0 -139 -54 -139 -144v-407h-349c-126 0 -215 30 -289 82l66 125c65 -39 127 -50 203 -50h212v250c0 198 100 292 295 292h108v120h157v-404c0 -87 44 -133 127 -133zM329 377c-47 0 -90 27 -90 81
c0 49 39 81 90 81s90 -32 90 -81c0 -54 -43 -81 -90 -81zM329 166c-47 0 -90 27 -90 81c0 49 39 81 90 81c50 0 90 -32 90 -81c0 -54 -43 -81 -90 -81zM899 -173c0 -53 -41 -79 -87 -79c-45 0 -86 26 -86 79c0 47 37 77 86 77c50 0 87 -30 87 -77zM1021 -96
c49 0 86 -30 86 -77c0 -53 -40 -79 -86 -79s-87 26 -87 79c0 47 37 77 87 77zM917 -255c43 0 75 -27 75 -66c0 -46 -34 -69 -75 -69c-38 0 -75 23 -75 69c0 39 32 66 75 66z" />
    <glyph glyph-name="uni067E0626.fina" horiz-adv-x="1214" 
d="M1211 157h23v-157h-23c-187 0 -284 103 -284 300v126h-108c-94 0 -139 -54 -139 -144v-407h-313c-216 0 -321 106 -321 315v204h157v-188c0 -126 81 -174 198 -174h122v250c0 198 100 292 296 292h108v120h157v-404c0 -87 43 -133 127 -133zM213 538v-76h-178v73
c0 71 48 108 117 108h35v-67h-39c-16 0 -27 -11 -27 -28v-10h92zM919 -173c0 -53 -41 -79 -87 -79c-45 0 -86 26 -86 79c0 47 37 77 86 77c50 0 87 -30 87 -77zM1041 -96c49 0 86 -30 86 -77c0 -53 -40 -79 -86 -79s-87 26 -87 79c0 47 37 77 87 77zM937 -255
c43 0 75 -27 75 -66c0 -46 -34 -69 -75 -69c-38 0 -75 23 -75 69c0 39 32 66 75 66z" />
    <glyph glyph-name="uni067E0626.fina.ss01" horiz-adv-x="1197" 
d="M1193 157h24v-157h-24c-186 0 -284 103 -284 300v126h-107c-94 0 -139 -54 -139 -144v-407h-349c-126 0 -215 30 -289 82l66 125c65 -39 127 -50 203 -50h212v250c0 198 100 292 295 292h108v120h157v-404c0 -87 44 -133 127 -133zM385 301v-76h-178v73
c0 71 48 108 117 108h35v-67h-39c-16 0 -27 -11 -27 -28v-10h92zM899 -173c0 -53 -41 -79 -87 -79c-45 0 -86 26 -86 79c0 47 37 77 86 77c50 0 87 -30 87 -77zM1021 -96c49 0 86 -30 86 -77c0 -53 -40 -79 -86 -79s-87 26 -87 79c0 47 37 77 87 77zM917 -255
c43 0 75 -27 75 -66c0 -46 -34 -69 -75 -69c-38 0 -75 23 -75 69c0 39 32 66 75 66z" />
    <glyph glyph-name="uniFC73.ss01" horiz-adv-x="1219" 
d="M905 715c-48 0 -90 27 -90 81c0 49 39 81 90 81s90 -32 90 -81c0 -54 -43 -81 -90 -81zM1120 715c-48 0 -90 27 -90 81c0 49 39 81 90 81s90 -32 90 -81c0 -54 -43 -81 -90 -81zM1216 157h23v-157h-23c-186 0 -284 103 -284 300v48h-219v-473h-418
c-115 0 -197 26 -270 75l51 133c64 -38 127 -51 204 -51h276v473h376v120h157v-335c0 -87 43 -133 127 -133zM324 223c-48 0 -91 27 -91 82c0 49 40 81 91 81s91 -32 91 -81c0 -55 -43 -82 -91 -82z" />
    <glyph glyph-name="uniFC74.ss01" horiz-adv-x="1197" 
d="M881 784c-48 0 -90 27 -90 81c0 49 39 81 90 81s90 -32 90 -81c0 -54 -43 -81 -90 -81zM1096 784c-48 0 -90 27 -90 81c0 49 39 81 90 81s90 -32 90 -81c0 -54 -43 -81 -90 -81zM1193 157h24v-157h-24c-186 0 -284 103 -284 300v126h-107c-94 0 -139 -54 -139 -144v-407
h-349c-126 0 -215 30 -289 82l66 125c65 -39 127 -50 203 -50h212v250c0 198 100 292 295 292h108v120h157v-404c0 -87 44 -133 127 -133z" />
    <glyph glyph-name="uniFC75.ss01" horiz-adv-x="1197" 
d="M881 784c-48 0 -90 27 -90 81c0 49 39 81 90 81s90 -32 90 -81c0 -54 -43 -81 -90 -81zM1096 784c-48 0 -90 27 -90 81c0 49 39 81 90 81s90 -32 90 -81c0 -54 -43 -81 -90 -81zM1193 157h24v-157h-24c-186 0 -284 103 -284 300v126h-107c-94 0 -139 -54 -139 -144v-407
h-349c-126 0 -215 30 -289 82l66 125c65 -39 127 -50 203 -50h212v250c0 198 100 292 295 292h108v120h157v-404c0 -87 44 -133 127 -133zM329 377c-47 0 -90 27 -90 81c0 49 39 81 90 81s90 -32 90 -81c0 -54 -43 -81 -90 -81zM329 166c-47 0 -90 27 -90 81
c0 49 39 81 90 81c50 0 90 -32 90 -81c0 -54 -43 -81 -90 -81z" />
    </font>
</defs>
</svg>
